<svg width="297" height="325" viewBox="0 0 297 325" fill="none" xmlns="http://www.w3.org/2000/svg">
<path d="M148.5 11C110.209 36.7112 61.7794 52.3665 9 53.1549C13.754 208.951 148.5 314 148.5 314C148.5 314 283.246 208.951 288 53.1549C235.221 52.3826 186.791 36.7273 148.5 11Z" fill="#424242"/>
<path d="M148 323C145.984 322 145 320.5 144 319.5C143 318.5 109.398 292.171 75.0241 246.13C43.2001 203.521 4.74347 135.418 2.22595 52.9726L2 45.8013L9.18139 45.6885C59.0314 44.9472 105.848 30.7658 144.546 4.67519L148.5 2L152.454 4.67519C191.152 30.7658 237.969 44.9472 287.819 45.6885L295 45.8013L294.774 52.9726C292.257 135.418 253.8 203.521 221.976 246.13C187.602 292.171 154.245 318.488 152.841 319.584C151.437 320.679 149.5 322.5 148.484 323C148.484 323 148.31 323.154 148 323Z" stroke="#D69923" stroke-width="3" stroke-miterlimit="10"/>
<path d="M207.989 52.0532C208.08 53.4371 208.006 54.9411 207.509 56.2933C207.717 54.8599 207.562 53.3453 207.062 51.9543C206.847 51.3577 206.548 50.7575 206.03 50.3974C205.312 49.896 204.283 49.9878 203.561 50.4892C202.843 50.9905 202.413 51.8343 202.265 52.7028C203.262 52.6075 204.371 53.1618 205.023 54.0691C205.674 54.9764 205.854 56.2051 205.484 57.2607C205.424 56.6075 205.125 55.9191 204.653 55.3577C204.181 54.7964 203.512 54.3763 202.783 54.3127C202.054 54.2492 201.272 54.5987 200.927 55.2448C202.353 55.672 203.579 56.8123 204.269 58.221C204.96 59.6297 205.114 61.2996 204.692 62.8106C204.646 61.0842 204.213 59.1954 203.11 57.6879C202.8 57.2642 202.427 56.8935 202.015 56.5758C201.55 56.2156 200.958 55.8697 200.353 55.9332C199.793 55.9897 199.314 56.3957 199.021 56.8794C198.729 57.3631 198.595 57.9209 198.461 58.4716C200.3 59.1566 201.659 61.0242 202.085 63.0401C202.512 65.0561 202.089 67.185 201.226 69.0526C200.363 70.9238 199.081 72.5655 197.725 74.1154C196.373 75.6652 194.932 77.1445 193.692 78.7862C194.837 75.4358 196.531 72.276 198.623 69.4092C194.886 71.7464 192.238 75.5452 190.367 79.6088C188.501 83.6725 187.363 88.0291 186.261 92.3681C185.877 91.8456 185.155 91.549 184.419 91.5137C184.031 91.4961 183.64 91.5702 183.309 91.7679C182.249 92.4105 182.383 93.7768 182.661 94.8783C183.01 96.2623 183.485 97.6392 184.292 98.8148C185.098 99.9905 186.275 100.961 187.662 101.293C188.909 101.593 190.276 101.346 191.34 100.626C192.403 99.9058 193.143 98.7266 193.333 97.4556C192.477 97.4203 191.568 96.4635 191.336 95.4326C191.104 94.4017 191.375 93.3284 191.664 92.3116C192.607 88.9823 193.756 85.6778 195.555 82.7263C197.355 79.7748 199.859 77.1763 202.991 75.7182C201.631 76.6326 200.634 78.2884 200.032 80.0219C199.43 81.7554 199.183 83.5913 198.898 85.4059C198.091 90.5746 196.862 95.9092 193.562 99.9622C192.572 101.177 191.315 102.303 189.772 102.571C188.603 102.776 187.391 102.458 186.342 101.901C183.894 100.601 182.267 98.0487 181.647 95.3408C181.03 92.6364 181.263 89.7697 182.031 87.1041C182.622 85.0423 183.88 83.2276 185.299 81.6389C186.088 80.7562 186.951 79.9336 187.581 78.931C187.867 78.4791 188.092 77.9777 188.233 77.4588C186.201 78.3873 184.419 79.863 183.08 81.5577C184.359 79.4358 186.211 77.6706 188.381 76.4808C188.388 76.1701 188.356 75.8559 188.272 75.5523C186.933 75.9759 185.451 76.7032 184.098 77.6247C184.623 75.4675 185.193 73.3422 186.13 71.3721C187.067 69.4021 188.392 67.5839 190.153 66.2988C190.698 65.8999 191.297 65.5503 191.959 65.4232C192.622 65.2961 193.361 65.4303 193.851 65.8963C194.478 66.493 194.555 67.4497 194.587 68.3147C195.062 67.2273 195.362 66.1788 195.274 65.1161C195.182 64.0534 194.612 62.966 193.622 62.5741C192.953 62.3128 192.192 62.4011 191.512 62.6377C190.378 63.0366 189.42 63.8168 188.554 64.65C186.87 66.267 185.429 68.1382 184.292 70.1788C185.021 68.5936 185.792 66.9802 186.789 65.508C187.786 64.0357 189.022 62.6941 190.554 61.7939C192.086 60.8936 193.935 60.4664 195.672 60.8406C196.161 60.1027 196.193 58.9341 195.587 58.1327C195.143 57.5431 194.411 57.2183 193.678 57.1442C192.946 57.0736 192.206 57.2324 191.509 57.4725C189.983 57.995 188.606 58.8953 187.381 59.9474C186.155 60.9995 185.07 62.2034 183.999 63.4073C185.401 61.0913 186.986 59.0789 188.793 57.296C189.631 56.4698 190.533 55.679 191.583 55.1494C192.636 54.6199 193.858 54.3621 195.003 54.6375C195.217 54.0691 195.26 53.4724 195.112 52.9146C194.964 52.3568 194.608 51.8378 194.097 51.573C193.544 51.2835 192.868 51.3082 192.276 51.513C191.688 51.7178 191.167 52.0849 190.67 52.4627C188.497 54.115 186.528 56.1133 185.267 58.5387C186.585 55.0471 189.138 52.0285 192.347 50.0655C191.572 49.8537 190.825 49.5677 190.124 49.1935C189.314 49.8078 188.642 50.5845 188.124 51.4565C186.782 50.0125 185.873 48.2826 185.475 46.4397C184.788 47.986 183.63 49.3453 182.221 50.3621C183.129 52.2262 183.721 54.2209 183.876 56.251C183.165 54.4398 182.464 52.5545 181.527 50.7857C181.073 49.9278 180.551 49.084 179.794 48.4768C179.04 47.8695 178.012 47.5341 177.086 47.813C176.43 48.0107 175.881 48.5015 175.571 49.1087C175.261 49.716 175.173 50.4327 175.289 51.107C176.406 51.2129 177.617 51.6578 178.572 52.4309C179.526 53.2041 180.217 54.295 180.509 55.4884C180.572 55.7496 180.611 56.0497 180.453 56.2651C180.266 56.5228 179.868 56.5475 179.583 56.4063C179.294 56.2651 179.086 56.0074 178.878 55.7637C178.308 55.1071 177.649 54.5281 176.924 54.0479C175.973 53.4195 174.874 52.9464 173.701 53.1476C173.405 53.1971 173.116 53.2994 172.855 53.4513C171.542 54.228 171.573 55.6896 171.746 56.9712C172.686 56.4416 173.828 56.5193 174.772 56.9465C175.715 57.3737 176.48 58.1151 177.135 58.9165C179.135 61.3596 180.248 64.4559 180.629 67.5945C181.009 70.7331 180.685 73.9247 180.044 77.021C179.435 79.9689 178.519 82.8993 176.85 85.4024C175.18 87.9055 172.686 89.9532 169.756 90.5993C166.893 91.2313 163.867 90.4828 161.261 89.1377C155.872 86.3592 151.92 80.9328 150.923 74.9415C149.927 68.9502 151.906 62.5317 156.101 58.1504C156.929 57.2854 157.865 56.4804 158.992 56.0674C160.116 55.6578 161.465 55.7037 162.416 56.431C163.025 54.6728 162.944 52.438 160.944 51.6472C160.609 51.513 160.246 51.453 159.887 51.4495C158.38 51.4353 157.126 52.2368 156.002 53.1265C153.787 54.8811 151.902 57.0559 150.483 59.5026C151.578 56.0603 153.72 52.9923 156.52 50.7328C157.15 50.2244 157.823 49.7513 158.58 49.4688C159.338 49.1864 160.197 49.1123 160.954 49.3982C161.116 48.5968 161.092 47.7707 160.806 47.0222C160.525 46.2737 159.961 45.6135 159.214 45.324C158.464 45.0345 157.605 45.144 156.869 45.4758C156.136 45.8042 155.509 46.3337 154.924 46.888C152.853 48.851 151.17 51.227 150.001 53.8326C151.04 50.4256 152.748 47.3858 154.942 44.7521C154.484 42.895 152.885 41.7405 151.24 41.7758C149.902 41.8041 148.63 42.6196 147.975 43.7812C147.32 42.6196 146.049 41.8076 144.71 41.7758C143.066 41.7405 141.466 42.8915 141.009 44.7521C143.203 47.3858 144.915 50.4221 145.95 53.8326C144.781 51.2235 143.097 48.851 141.026 46.888C140.442 46.3337 139.818 45.8042 139.082 45.4758C138.349 45.1475 137.487 45.0345 136.736 45.324C135.993 45.6135 135.43 46.2737 135.144 47.0222C134.859 47.7707 134.834 48.5968 134.996 49.3982C135.754 49.1123 136.61 49.1864 137.37 49.4688C138.131 49.7513 138.8 50.2244 139.431 50.7328C142.231 52.9923 144.372 56.0568 145.468 59.5026C144.048 57.0559 142.164 54.8811 139.948 53.1265C138.825 52.2368 137.568 51.4318 136.064 51.4495C135.704 51.453 135.342 51.5165 135.007 51.6472C133.003 52.4345 132.922 54.6728 133.535 56.431C134.486 55.7037 135.831 55.6578 136.958 56.0674C138.082 56.4769 139.019 57.2854 139.85 58.1504C144.048 62.5317 146.028 68.9502 145.027 74.9415C144.027 80.9328 140.079 86.3592 134.69 89.1377C132.084 90.4828 129.058 91.2278 126.195 90.5993C123.264 89.9532 120.767 87.902 119.101 85.4024C117.435 82.9028 116.516 79.9689 115.907 77.021C115.266 73.9247 114.945 70.7331 115.322 67.5945C115.702 64.4559 116.815 61.3596 118.816 58.9165C119.471 58.1151 120.239 57.3737 121.179 56.9465C122.12 56.5193 123.264 56.4416 124.205 56.9712C124.377 55.6896 124.409 54.228 123.095 53.4513C122.835 53.2994 122.546 53.1971 122.25 53.1476C121.077 52.9464 119.975 53.4195 119.027 54.0479C118.302 54.5281 117.643 55.1071 117.072 55.7637C116.861 56.0038 116.653 56.2651 116.368 56.4063C116.079 56.5475 115.685 56.5263 115.498 56.2651C115.34 56.0462 115.378 55.7461 115.442 55.4884C115.734 54.295 116.424 53.2041 117.379 52.4309C118.333 51.6578 119.545 51.2129 120.661 51.107C120.774 50.4327 120.69 49.7195 120.38 49.1087C120.07 48.4979 119.517 48.0107 118.865 47.813C117.939 47.5341 116.91 47.8695 116.157 48.4768C115.403 49.084 114.878 49.9278 114.424 50.7857C113.487 52.5545 112.786 54.4398 112.075 56.251C112.229 54.2209 112.821 52.2226 113.73 50.3621C112.321 49.3453 111.162 47.9825 110.475 46.4397C110.074 48.2826 109.169 50.0125 107.827 51.4565C107.309 50.588 106.636 49.8078 105.826 49.1935C105.125 49.5677 104.379 49.8537 103.604 50.0655C106.812 52.0285 109.366 55.0471 110.683 58.5387C109.426 56.1097 107.457 54.115 105.28 52.4627C104.784 52.0849 104.262 51.7178 103.674 51.513C103.083 51.3082 102.406 51.28 101.853 51.573C101.343 51.8413 100.987 52.3568 100.839 52.9146C100.691 53.4724 100.733 54.0691 100.948 54.6375C102.093 54.3621 103.319 54.6199 104.368 55.1494C105.418 55.679 106.319 56.4698 107.158 57.296C108.965 59.0824 110.549 61.0948 111.951 63.4073C110.877 62.1999 109.792 60.996 108.57 59.9474C107.344 58.8953 105.971 57.9986 104.442 57.4725C103.745 57.2324 103.009 57.0736 102.272 57.1442C101.54 57.2148 100.811 57.5431 100.364 58.1327C99.7577 58.9341 99.7894 60.0992 100.279 60.8406C102.015 60.4664 103.864 60.8936 105.397 61.7939C106.929 62.6941 108.165 64.0357 109.162 65.508C110.158 66.9802 110.93 68.5936 111.659 70.1788C110.525 68.1382 109.081 66.267 107.397 64.65C106.531 63.8168 105.573 63.0366 104.439 62.6377C103.759 62.4011 102.998 62.3093 102.329 62.5741C101.339 62.9625 100.765 64.0534 100.677 65.1161C100.585 66.1788 100.888 67.2273 101.364 68.3147C101.395 67.4497 101.473 66.493 102.1 65.8963C102.589 65.4303 103.329 65.2997 103.991 65.4232C104.653 65.5468 105.252 65.8999 105.798 66.2988C107.556 67.5839 108.88 69.4021 109.82 71.3721C110.761 73.3422 111.328 75.4675 111.853 77.6247C110.5 76.7032 109.017 75.9759 107.679 75.5523C107.594 75.8559 107.563 76.1701 107.57 76.4808C109.739 77.6706 111.592 79.4358 112.871 81.5577C111.532 79.863 109.75 78.3873 107.718 77.4588C107.859 77.9777 108.084 78.4755 108.369 78.931C108.996 79.9336 109.863 80.7562 110.652 81.6389C112.071 83.2276 113.328 85.0458 113.92 87.1041C114.684 89.7732 114.92 92.6364 114.304 95.3408C113.688 98.0452 112.057 100.601 109.609 101.901C108.559 102.458 107.348 102.776 106.179 102.571C104.636 102.303 103.382 101.18 102.389 99.9622C99.085 95.9092 97.8593 90.5781 97.0527 85.4059C96.7675 83.5913 96.5209 81.7554 95.9186 80.0219C95.3163 78.2884 94.3196 76.6326 92.9601 75.7182C96.0912 77.1763 98.5954 79.7748 100.395 82.7263C102.195 85.6778 103.343 88.9823 104.287 92.3116C104.576 93.3284 104.847 94.4017 104.615 95.4326C104.382 96.4635 103.47 97.4203 102.618 97.4556C102.808 98.7266 103.548 99.9058 104.611 100.626C105.675 101.346 107.041 101.593 108.288 101.293C109.672 100.961 110.849 99.9905 111.659 98.8148C112.469 97.6392 112.941 96.2623 113.29 94.8783C113.568 93.7768 113.702 92.4105 112.642 91.7679C112.311 91.5667 111.92 91.4925 111.532 91.5137C110.796 91.549 110.074 91.8491 109.69 92.3681C108.588 88.0326 107.45 83.676 105.583 79.6088C103.717 75.5452 101.064 71.7464 97.3275 69.4092C99.4196 72.276 101.114 75.4393 102.258 78.7862C101.019 77.1445 99.5781 75.6652 98.2256 74.1154C96.8731 72.5655 95.5875 70.9238 94.7246 69.0526C93.8617 67.1814 93.4391 65.0561 93.8652 63.0401C94.2914 61.0242 95.6509 59.1566 97.4895 58.4716C97.3592 57.9209 97.2218 57.3631 96.9295 56.8794C96.6371 56.3957 96.1616 55.9932 95.5981 55.9332C94.9888 55.8697 94.3971 56.2192 93.9357 56.5758C93.5236 56.8935 93.1467 57.2677 92.8403 57.6879C91.7379 59.1954 91.3047 61.0842 91.2589 62.8106C90.8362 61.2961 90.9877 59.6297 91.6815 58.221C92.3719 56.8123 93.5976 55.672 95.024 55.2448C94.6753 54.5987 93.8969 54.2527 93.1679 54.3127C92.4388 54.3763 91.7696 54.7964 91.2976 55.3577C90.8257 55.9191 90.5263 56.6075 90.4664 57.2607C90.0966 56.2051 90.2762 54.9764 90.9278 54.0691C91.5794 53.1653 92.6924 52.6075 93.6856 52.7028C93.5377 51.8378 93.108 50.9905 92.3895 50.4892C91.671 49.9878 90.6425 49.8996 89.9205 50.3974C89.4027 50.7575 89.1033 51.3612 88.8885 51.9543C88.3884 53.3453 88.2334 54.8599 88.4412 56.2933C87.9446 54.9411 87.8706 53.4407 87.9622 52.0532C83.5842 46.8916 78.0968 42.6832 72 40C75.2368 42.7679 78.3187 45.8077 80.5305 49.4547C82.7424 53.1017 84.0386 57.4266 83.5842 61.808C83.9082 61.1972 84.7359 60.9748 85.391 61.1972C86.0462 61.4196 86.5357 61.9845 86.8422 62.6024C87.1486 63.2202 87.3 63.9051 87.4973 64.5724C88.1982 66.9696 89.4802 69.1903 91.2025 70.9944C93.4602 73.3598 96.3941 74.9591 98.8208 77.1481C102.163 80.1596 104.477 84.3009 105.224 88.7917C103.921 85.4977 102.575 82.1331 100.254 79.4641C96.6653 75.3369 90.9771 73.1409 88.3144 68.3571C87.5431 66.9696 87.0676 65.4232 86.2364 64.071C85.8595 63.4603 85.303 62.8318 84.5317 62.9942C84.183 63.0684 83.8836 63.312 83.7004 63.6191C83.313 64.2652 83.3905 65.0243 83.5525 65.7269C84.1301 68.2088 85.782 70.4224 88.0643 71.5522C87.7826 73.4622 87.9234 75.4322 88.5962 77.0951C89.6422 76.8692 90.7517 77.3811 91.4667 78.179C92.1817 78.9769 92.5585 80.0254 92.8016 81.074C93.277 83.1499 93.2735 85.3318 92.71 87.4748C90.4946 82.8498 86.7717 78.9627 82.4113 76.7138C89.9804 85.2682 95.3797 95.7398 98.2573 107.073C98.8067 106.229 99.9233 105.83 100.902 106.052C101.882 106.275 102.688 107.08 103.005 108.037C103.322 108.993 103.171 110.077 102.685 110.956C102.195 111.839 101.388 112.52 100.501 113.096C102.075 112.266 104.129 112.453 105.534 113.548C106.939 114.646 107.619 116.594 107.203 118.328C106.788 120.061 105.298 121.491 103.576 121.834C103.227 124.27 103.907 126.837 105.393 128.761C105.393 128.761 105.235 130.282 106.577 129.777C106.009 130.268 106.027 131.172 106.626 131.627C106.643 131.642 106.665 131.656 106.682 131.67C107.154 132.016 107.813 131.917 108.218 131.493C108.278 131.43 108.345 131.37 108.408 131.31C108.528 131.878 108.979 132.913 110.638 133.594C113.033 134.579 122.901 138 148 138C173.099 138 182.967 134.575 185.363 133.594C187.021 132.913 187.472 131.878 187.592 131.31C187.655 131.37 187.719 131.43 187.782 131.493C188.191 131.913 188.846 132.012 189.318 131.67C189.335 131.656 189.357 131.642 189.374 131.627C189.973 131.172 189.991 130.268 189.423 129.777C190.765 130.282 190.607 128.761 190.607 128.761C192.093 126.837 192.773 124.27 192.424 121.834C190.698 121.488 189.212 120.061 188.797 118.328C188.381 116.594 189.061 114.646 190.466 113.548C191.871 112.453 193.921 112.266 195.499 113.096C194.612 112.52 193.805 111.835 193.315 110.956C192.826 110.074 192.678 108.993 192.995 108.037C193.312 107.08 194.118 106.278 195.098 106.052C196.077 105.826 197.193 106.225 197.743 107.073C200.624 95.7398 206.02 85.2682 213.589 76.7138C209.225 78.9592 205.505 82.8463 203.29 87.4748C202.723 85.3318 202.719 83.1464 203.198 81.074C203.438 80.029 203.818 78.9804 204.533 78.179C205.248 77.3775 206.358 76.8692 207.404 77.0951C208.08 75.4322 208.217 73.4622 207.936 71.5522C210.218 70.4189 211.87 68.2088 212.447 65.7269C212.61 65.0243 212.687 64.2652 212.3 63.6191C212.116 63.312 211.817 63.0684 211.468 62.9942C210.697 62.8283 210.141 63.4603 209.764 64.071C208.932 65.4268 208.457 66.9696 207.686 68.3571C205.023 73.1409 199.335 75.3369 195.746 79.4641C193.425 82.1367 192.079 85.4977 190.776 88.7917C191.523 84.2974 193.837 80.1596 197.179 77.1481C199.606 74.9591 202.54 73.3598 204.797 70.9944C206.52 69.1903 207.802 66.9661 208.503 64.5724C208.696 63.9086 208.848 63.2237 209.158 62.6024C209.468 61.981 209.954 61.4161 210.609 61.1972C211.264 60.9783 212.088 61.1972 212.416 61.808C211.961 57.4266 213.258 53.1017 215.469 49.4547C217.681 45.8077 220.76 42.7715 224 40C217.903 42.6832 212.416 46.8916 208.038 52.0532H207.989ZM78.1038 44.6673C81.5942 46.7574 84.2252 50.242 85.2502 54.401C83.7638 50.6374 80.8722 47.64 78.1038 44.6673ZM160.141 94.4299C161.877 95.7715 163.994 96.6895 166.188 96.7354C168.421 96.7813 170.619 95.9198 172.408 94.5782C174.197 93.2366 175.606 91.4396 176.74 89.5084C176.011 91.782 174.61 93.8968 172.708 95.4608C170.806 97.0249 168.379 98.0099 165.92 97.9393C163.571 97.8757 161.292 96.8519 159.542 95.2808C157.791 93.7097 156.548 91.6161 155.805 89.3778C157.02 91.3372 158.408 93.0848 160.144 94.4264L160.141 94.4299ZM147.958 82.6592C147.958 82.6592 151.205 86.0167 151.205 89.3813C151.205 92.7459 149.462 94.1263 148.197 94.1263H147.718C146.454 94.1263 144.71 92.7459 144.71 89.3813C144.71 86.0167 147.958 82.6592 147.958 82.6592ZM123.511 94.5782C125.3 95.9198 127.494 96.7813 129.731 96.7354C131.922 96.6895 134.038 95.7715 135.778 94.4299C137.515 93.0883 138.902 91.3407 140.118 89.3813C139.378 91.6161 138.131 93.7132 136.381 95.2843C134.63 96.8554 132.351 97.8792 130.002 97.9428C127.544 98.0099 125.117 97.0284 123.215 95.4644C121.313 93.9004 119.911 91.782 119.182 89.5119C120.316 91.4396 121.725 93.2401 123.514 94.5817L123.511 94.5782ZM104.301 111.246C104.213 110.13 105.122 109.149 106.14 108.69C107.161 108.234 108.302 108.157 109.391 107.902C112.666 107.143 115.491 104.661 116.671 101.509C116.872 100.972 117.034 100.411 117.333 99.9199C117.632 99.4291 118.118 99.0125 118.689 98.9596C119.788 98.8572 120.506 100.026 121.207 100.88C123.035 103.115 126.166 103.828 129.048 103.758C131.488 103.701 133.943 103.171 136.099 102.017C138.251 100.863 140.089 99.0514 141.361 96.7671C141.614 98.3453 142.555 99.7963 143.89 100.672C144.33 100.958 144.83 101.212 145.084 101.671C145.302 102.073 145.281 102.596 145.024 102.977C144.767 103.359 144.302 103.422 143.728 103.465C130.809 104.425 116.509 105.424 104.298 111.239L104.301 111.246ZM152.92 110.494C152.677 112.224 151.48 113.795 149.87 114.462C148.31 115.108 146.447 114.893 145.013 113.996C143.58 113.099 142.562 111.567 142.484 109.932C142.432 108.796 142.784 107.648 143.456 106.734C144.126 105.816 145.105 105.134 146.193 104.81C147.863 104.308 149.775 104.693 151.114 105.816C152.452 106.939 153.167 108.767 152.924 110.497L152.92 110.494ZM154.555 119.253C160.68 119.585 167.033 120.001 173.229 121.325C176.941 122.12 180.608 123.26 184.042 124.866C185.098 125.403 184.408 126.42 183.52 125.972C183.499 125.961 183.485 125.957 183.464 125.947C180.086 124.312 176.385 123.253 172.676 122.589C166.234 121.435 159.658 121.35 153.146 120.704C152.568 120.648 151.976 120.58 151.469 120.302C150.814 119.941 150.332 119.133 150.807 118.395C151.124 117.904 151.723 117.696 152.304 117.77C153.237 117.89 153.924 118.586 154.555 119.253ZM144.45 120.302C143.943 120.58 143.347 120.648 142.773 120.704C136.264 121.35 129.685 121.435 123.243 122.589C119.534 123.253 115.833 124.309 112.455 125.947C112.437 125.954 112.42 125.961 112.399 125.972C111.507 126.423 110.821 125.407 111.877 124.866C115.311 123.26 118.978 122.12 122.69 121.325C128.889 119.998 135.239 119.585 141.364 119.253C141.995 118.586 142.685 117.89 143.615 117.77C144.193 117.696 144.795 117.904 145.112 118.395C145.587 119.133 145.105 119.941 144.45 120.302ZM108.936 113.756C108.288 113.781 107.651 113.332 107.457 112.714C107.263 112.097 107.538 111.359 108.095 111.027C108.651 110.695 109.433 110.801 110.148 111.348C119.256 108.022 129.403 106.352 139.075 106.395C139.751 105.989 140.445 105.632 141.371 105.883C141.678 105.964 141.984 106.105 142.167 106.367C142.428 106.737 142.347 107.281 142.058 107.627C141.769 107.977 141.312 108.15 140.861 108.192C140.227 108.252 139.572 108.065 139.096 107.758C129.41 107.662 119.71 109.293 110.588 112.552C110.183 113.244 109.584 113.731 108.936 113.756ZM147.958 136.263C129.449 136.263 109.782 134.282 109.782 130.614C109.782 128.496 116.005 126.992 121.225 126.106C128.713 124.835 138.209 124.136 147.958 124.136C157.707 124.136 167.199 124.835 174.691 126.106C179.91 126.992 186.134 128.492 186.134 130.614C186.134 134.282 166.463 136.263 147.958 136.263ZM188.458 112.714C188.265 113.336 187.627 113.781 186.979 113.756C186.331 113.731 185.732 113.244 185.327 112.552C176.205 109.293 166.505 107.662 156.819 107.758C156.34 108.065 155.689 108.252 155.055 108.192C154.604 108.15 154.146 107.977 153.857 107.627C153.568 107.277 153.487 106.737 153.748 106.367C153.931 106.105 154.238 105.968 154.544 105.883C155.47 105.632 156.164 105.989 156.84 106.395C166.512 106.352 176.659 108.022 185.768 111.348C186.486 110.801 187.268 110.691 187.821 111.027C188.377 111.359 188.652 112.097 188.458 112.714ZM191.614 111.246C179.4 105.431 165.103 104.432 152.184 103.472C151.61 103.429 151.145 103.366 150.888 102.984C150.631 102.603 150.606 102.081 150.828 101.678C151.082 101.216 151.582 100.965 152.022 100.679C153.357 99.8034 154.298 98.3523 154.551 96.7742C155.823 99.0584 157.661 100.866 159.813 102.024C161.965 103.179 164.42 103.708 166.864 103.765C169.745 103.832 172.877 103.122 174.705 100.887C175.406 100.029 176.124 98.8643 177.223 98.9666C177.793 99.0196 178.276 99.4397 178.579 99.9269C178.882 100.414 179.04 100.975 179.245 101.516C180.428 104.668 183.253 107.15 186.525 107.909C187.613 108.164 188.754 108.241 189.776 108.697C190.797 109.152 191.702 110.134 191.614 111.253V111.246ZM195.422 103.585C193.682 105.583 191.051 106.84 188.409 106.698C185.715 106.554 183.225 105 181.53 102.896C179.836 100.792 178.871 98.1793 178.265 95.5526C178.17 95.9939 178.068 96.4529 177.804 96.813C177.748 96.8907 177.663 96.9719 177.565 96.9578C177.494 96.9472 177.445 96.8836 177.424 96.8201C177.403 96.753 177.406 96.6824 177.41 96.6118C177.434 96.2128 177.484 95.8174 177.279 95.5032C175.638 98.2499 173.246 100.679 170.217 101.696C167.294 102.677 163.987 102.229 161.268 100.771C158.549 99.3126 156.4 96.9119 154.91 94.1969C154.91 94.5606 154.914 94.9313 154.819 95.2808C154.801 95.3479 154.777 95.4185 154.731 95.4714C154.685 95.5244 154.611 95.5597 154.544 95.5456C154.431 95.5173 154.393 95.3796 154.379 95.2631C154.333 94.8995 154.319 94.5288 154.234 94.2887C153.706 95.7609 153.044 97.2155 152.005 98.3841C150.969 99.5562 149.49 100.206 147.958 100.206C146.426 100.206 144.95 99.5562 143.911 98.3841C142.875 97.2155 142.21 95.7609 141.681 94.2887C141.593 94.5288 141.583 94.8995 141.537 95.2631C141.523 95.3796 141.484 95.5173 141.371 95.5456C141.301 95.5632 141.231 95.5244 141.185 95.4714C141.139 95.4185 141.114 95.3479 141.097 95.2808C141.002 94.9313 141.002 94.5606 141.005 94.1969C139.515 96.9084 137.367 99.3126 134.648 100.771C131.929 102.229 128.621 102.677 125.698 101.696C122.669 100.679 120.281 98.2499 118.636 95.5032C118.432 95.8174 118.481 96.2128 118.506 96.6118C118.509 96.6824 118.513 96.753 118.492 96.8201C118.471 96.8872 118.418 96.9472 118.351 96.9578C118.256 96.9754 118.171 96.8942 118.111 96.813C117.844 96.4494 117.742 95.9939 117.65 95.5526C117.044 98.1793 116.079 100.788 114.385 102.896C112.691 105 110.201 106.557 107.506 106.698C104.865 106.84 102.234 105.583 100.494 103.585C98.7539 101.586 97.8734 98.9137 97.8382 96.2623C98.6306 98.2994 99.5006 100.467 100.902 102.289C102.304 104.111 104.322 105.572 106.605 105.805C108.683 106.017 110.785 105.177 112.367 103.811C113.948 102.441 115.051 100.584 115.808 98.6312C116.565 96.6789 116.998 94.6206 117.495 92.5482C118.583 94.3311 119.682 96.1281 121.084 97.6745C122.482 99.2244 124.219 100.534 126.226 101.103C129.305 101.978 132.781 101.085 135.384 99.2173C137.987 97.3497 140.026 94.7159 141.621 91.8279C142.027 93.4096 142.65 94.9348 143.464 96.3505C143.946 97.1837 144.506 97.9922 145.263 98.5853C146.021 99.182 146.979 99.4856 147.958 99.4856C148.937 99.4856 149.895 99.182 150.652 98.5853C151.409 97.9922 151.969 97.1837 152.452 96.3505C153.269 94.9383 153.892 93.4096 154.294 91.8279C155.89 94.7159 157.929 97.3497 160.532 99.2173C163.134 101.085 166.611 101.978 169.689 101.103C171.697 100.531 173.433 99.2244 174.831 97.6745C176.23 96.1246 177.329 94.3311 178.42 92.5482C178.917 94.617 179.35 96.6789 180.108 98.6312C180.865 100.584 181.967 102.441 183.549 103.811C185.13 105.18 187.233 106.017 189.311 105.805C191.593 105.572 193.611 104.111 195.013 102.289C196.415 100.467 197.285 98.2994 198.077 96.2623C198.042 98.9137 197.162 101.586 195.422 103.585ZM210.665 54.401C211.687 50.242 214.321 46.7609 217.812 44.6673C215.047 47.6365 212.152 50.6374 210.665 54.401Z" fill="#D69923"/>
<path d="M71.0049 208.353L93.6874 237.385L93.6973 237.4L115.397 258.909L148.894 286L182.589 258.928L182.599 258.918L204.224 237.483H204.249L204.578 237.096L204.563 237.067L227 208.348L204.671 171.458L208.624 167.542L192.224 142.935L175.5 138.573L156.19 129H141.815L122.505 138.573L105.781 142.935L89.381 167.542L93.3286 171.458L71.1032 208.176L71 208.343L71.0049 208.353ZM124.811 169.909L127.092 173.09L121.124 179.164L110.938 176.232L124.811 169.904V169.909ZM102.374 179.507L97.7333 169.89L101.514 161.145L123.41 169.909L102.374 179.502V179.507ZM127.431 173.566L146.687 188.124L144.18 207.015L111.823 189.79L111.754 189.526L127.426 173.571L127.431 173.566ZM127.864 173.174L144.214 168.909L148.703 172.953L146.775 187.467L127.864 173.174ZM170.751 173.595L170.785 173.571L178.838 181.761L178.857 181.904L178.995 181.923L186.31 189.369L154.046 207.069L151.529 188.124L170.746 173.6L170.751 173.595ZM151.446 187.462L149.519 172.948L154.007 168.904L170.358 173.169L151.446 187.462ZM188.916 177.169L179.118 181.217L171.129 173.085L173.061 170.39L188.916 177.169ZM174.394 170.336L197.583 161.14L200.921 168.586L195.837 179.507L174.394 170.336ZM191.723 208.471L174.364 228.955L186.762 190.442L191.723 208.471ZM187.229 189.957L225.152 207.613L192.141 207.824L187.225 189.962L187.229 189.957ZM186.29 190.035L173.469 229.852L155.978 221.396V221.381L155.944 221.357L154.13 207.672L186.29 190.03V190.035ZM124.693 230.636L124.929 230.224L124.914 230.209L142.056 222.117L139.849 230.695L140.001 231.023L148.806 235.317L148.388 242.753L139.421 256.08L124.688 230.631L124.693 230.636ZM138.856 256.257L116.222 245.336L124.363 231.214L138.856 256.257ZM148.683 243.351L158.466 256.688L149.111 261.203L139.731 256.673V256.659L148.683 243.346V243.351ZM148.968 242.762L149.386 235.337L158.22 231.023L158.372 230.695L156.17 222.122L173.248 230.381L158.918 256.32L148.973 242.762H148.968ZM173.651 230.842L182.004 245.331L159.7 256.095L173.651 230.842ZM157.758 230.611L149.116 234.827L140.473 230.611L142.754 221.739H155.477L157.758 230.611ZM142.282 221.357L142.253 221.381V221.391L124.54 229.754L124.098 229.234L116.1 206.289L112.024 190.54L144.106 207.618L142.282 221.362V221.357ZM115.544 206.441L123.061 228.009L106.508 208.475L111.439 190.56L115.549 206.446L115.544 206.441ZM106.086 207.819H72.8681L110.972 189.972L110.997 189.986L106.091 207.824L106.086 207.819ZM106.15 208.941L123.587 229.518L123.769 230.043L94.4052 236.792L106.15 208.936V208.941ZM94.4937 237.366L124.005 230.582L124.034 230.636L115.574 245.316L110.726 253.463L94.4937 237.371V237.366ZM115.8 258.487L111.149 253.879L115.937 245.831L126.453 250.904L121.291 262.928L115.8 258.487ZM121.758 263.305L126.974 251.154L138.88 256.899L138.802 257.017L139.028 257.168L133.63 272.903L121.758 263.3V263.305ZM148.899 285.255L134.107 273.295L139.608 257.252L148.988 261.781L149.116 261.84L158.82 257.159L158.854 257.208L163.795 273.29L148.899 285.255ZM164.277 272.898L159.405 257.026L159.429 257.012L159.38 256.948L159.365 256.899L171.257 251.159L176.227 263.305L164.281 272.903L164.277 272.898ZM182.215 258.487L176.689 262.923L171.773 250.904L182.274 245.836L186.438 254.296L182.215 258.482V258.487ZM186.871 253.87L182.795 245.586L182.81 245.576L174.222 230.68L203.556 237.327L186.866 253.87H186.871ZM174.172 230.082L192.086 208.946L203.831 236.802L174.172 230.082ZM226.307 208.304L204.313 236.454L192.48 208.387L226.228 208.176L226.307 208.304ZM225.638 207.201L186.959 189.197L179.929 182.041L213.039 186.389L225.633 207.201H225.638ZM212.66 185.761L180.003 181.472L189.525 177.541L189.471 177.409L196.132 180.257L199.229 173.61L204.091 171.61L212.66 185.766V185.761ZM207.882 167.463L204.411 170.904L204.391 170.86L199.583 172.835L201.56 168.591L197.887 160.405L173.204 170.194L192.106 143.808L207.877 167.468L207.882 167.463ZM191.698 143.386L170.721 172.669L160.226 169.929L175.46 139.146L191.703 143.381L191.698 143.386ZM174.925 138.926L159.655 169.782L154.307 168.385L165.855 134.426L174.925 138.921V138.926ZM149.401 129.574H156.052L165.329 134.171L153.678 168.424L149.425 172.257L149.396 172.041V129.574H149.401ZM155.339 221.166H142.887L149.111 174.262L155.339 221.166ZM141.953 129.574H148.826V172.041L148.796 172.257L144.549 168.429L134.112 133.461L141.953 129.574ZM122.712 139.112L133.586 133.72L143.934 168.385L138.581 169.782L124.481 138.504L123.955 138.74L138.02 169.929L127.51 172.669L106.499 143.337L122.717 139.107L122.712 139.112ZM90.1233 167.468L106.002 143.646L124.762 169.831L101.209 160.405L97.1041 169.904L98.4215 172.635L94.061 171.38L90.1233 167.473V167.468ZM93.9234 171.59L93.83 171.909L98.7509 173.326L102.099 180.266L110.132 176.605L119.821 179.394L85.3646 185.737L93.9234 171.595V171.59ZM84.9664 186.389L120.44 179.86L111.262 189.202L110.977 189.334L110.697 189.183L110.49 189.56L72.1848 207.505L84.9664 186.389ZM105.742 208.397L93.8349 236.64L71.7669 208.397H105.742Z" fill="#FEBB12"/>
</svg>
