<svg width="298" height="325" viewBox="0 0 298 325" fill="none" xmlns="http://www.w3.org/2000/svg">
<path d="M149.016 323L144.659 319.584C143.255 318.488 109.898 292.171 75.5241 246.13C43.7001 203.521 5.24347 135.418 2.72595 52.9726L2.5 45.8013L9.68139 45.6885C59.5314 44.9472 106.348 30.7658 145.046 4.67519L149 2L152.954 4.67519C191.652 30.7658 238.469 44.9472 288.319 45.6885L295.5 45.8013L295.274 52.9726C292.757 135.418 254.3 203.521 222.476 246.13C188.102 292.171 154.745 318.488 153.341 319.584L151 321.5L149.016 323Z" stroke="#D69923" stroke-width="3" stroke-miterlimit="10"/>
<path d="M208.489 52.0532C208.58 53.4371 208.506 54.9411 208.009 56.2933C208.217 54.8599 208.062 53.3453 207.562 51.9543C207.347 51.3577 207.048 50.7575 206.53 50.3974C205.812 49.896 204.783 49.9878 204.061 50.4892C203.343 50.9905 202.913 51.8343 202.765 52.7028C203.762 52.6075 204.871 53.1618 205.523 54.0691C206.174 54.9764 206.354 56.2051 205.984 57.2607C205.924 56.6075 205.625 55.9191 205.153 55.3577C204.681 54.7964 204.012 54.3763 203.283 54.3127C202.554 54.2492 201.772 54.5987 201.427 55.2448C202.853 55.672 204.079 56.8123 204.769 58.221C205.46 59.6297 205.614 61.2996 205.192 62.8106C205.146 61.0842 204.713 59.1954 203.61 57.6879C203.3 57.2642 202.927 56.8935 202.515 56.5758C202.05 56.2156 201.458 55.8697 200.853 55.9332C200.293 55.9897 199.814 56.3957 199.521 56.8794C199.229 57.3631 199.095 57.9209 198.961 58.4716C200.8 59.1566 202.159 61.0242 202.585 63.0401C203.012 65.0561 202.589 67.185 201.726 69.0526C200.863 70.9238 199.581 72.5655 198.225 74.1154C196.873 75.6652 195.432 77.1445 194.192 78.7862C195.337 75.4358 197.031 72.276 199.123 69.4092C195.386 71.7464 192.738 75.5452 190.867 79.6088C189.001 83.6725 187.863 88.0291 186.761 92.3681C186.377 91.8456 185.655 91.549 184.919 91.5137C184.531 91.4961 184.14 91.5702 183.809 91.7679C182.749 92.4105 182.883 93.7768 183.161 94.8783C183.51 96.2623 183.985 97.6392 184.792 98.8148C185.598 99.9905 186.775 100.961 188.162 101.293C189.409 101.593 190.776 101.346 191.84 100.626C192.903 99.9058 193.643 98.7266 193.833 97.4556C192.977 97.4203 192.068 96.4635 191.836 95.4326C191.604 94.4017 191.875 93.3284 192.164 92.3116C193.107 88.9823 194.256 85.6778 196.055 82.7263C197.855 79.7748 200.359 77.1763 203.491 75.7182C202.131 76.6326 201.134 78.2884 200.532 80.0219C199.93 81.7554 199.683 83.5913 199.398 85.4059C198.591 90.5746 197.362 95.9092 194.062 99.9622C193.072 101.177 191.815 102.303 190.272 102.571C189.103 102.776 187.891 102.458 186.842 101.901C184.394 100.601 182.767 98.0487 182.147 95.3408C181.53 92.6364 181.763 89.7697 182.531 87.1041C183.122 85.0423 184.38 83.2276 185.799 81.6389C186.588 80.7562 187.451 79.9336 188.081 78.931C188.367 78.4791 188.592 77.9777 188.733 77.4588C186.701 78.3873 184.919 79.863 183.58 81.5577C184.859 79.4358 186.711 77.6706 188.881 76.4808C188.888 76.1701 188.856 75.8559 188.772 75.5523C187.433 75.9759 185.951 76.7032 184.598 77.6247C185.123 75.4675 185.693 73.3422 186.63 71.3721C187.567 69.4021 188.892 67.5839 190.653 66.2988C191.198 65.8999 191.797 65.5503 192.459 65.4232C193.122 65.2961 193.861 65.4303 194.351 65.8963C194.978 66.493 195.055 67.4497 195.087 68.3147C195.562 67.2273 195.862 66.1788 195.774 65.1161C195.682 64.0534 195.112 62.966 194.122 62.5741C193.453 62.3128 192.692 62.4011 192.012 62.6377C190.878 63.0366 189.92 63.8168 189.054 64.65C187.37 66.267 185.929 68.1382 184.792 70.1788C185.521 68.5936 186.292 66.9802 187.289 65.508C188.286 64.0357 189.522 62.6941 191.054 61.7939C192.586 60.8936 194.435 60.4664 196.172 60.8406C196.661 60.1027 196.693 58.9341 196.087 58.1327C195.643 57.5431 194.911 57.2183 194.178 57.1442C193.446 57.0736 192.706 57.2324 192.009 57.4725C190.483 57.995 189.106 58.8953 187.881 59.9474C186.655 60.9995 185.57 62.2034 184.499 63.4073C185.901 61.0913 187.486 59.0789 189.293 57.296C190.131 56.4698 191.033 55.679 192.083 55.1494C193.136 54.6199 194.358 54.3621 195.503 54.6375C195.717 54.0691 195.76 53.4724 195.612 52.9146C195.464 52.3568 195.108 51.8378 194.597 51.573C194.044 51.2835 193.368 51.3082 192.776 51.513C192.188 51.7178 191.667 52.0849 191.17 52.4627C188.997 54.115 187.028 56.1133 185.767 58.5387C187.085 55.0471 189.638 52.0285 192.847 50.0655C192.072 49.8537 191.325 49.5677 190.624 49.1935C189.814 49.8078 189.142 50.5845 188.624 51.4565C187.282 50.0125 186.373 48.2826 185.975 46.4397C185.288 47.986 184.13 49.3453 182.721 50.3621C183.629 52.2262 184.221 54.2209 184.376 56.251C183.665 54.4398 182.964 52.5545 182.027 50.7857C181.573 49.9278 181.051 49.084 180.294 48.4768C179.54 47.8695 178.512 47.5341 177.586 47.813C176.93 48.0107 176.381 48.5015 176.071 49.1087C175.761 49.716 175.673 50.4327 175.789 51.107C176.906 51.2129 178.117 51.6578 179.072 52.4309C180.026 53.2041 180.717 54.295 181.009 55.4884C181.072 55.7496 181.111 56.0497 180.953 56.2651C180.766 56.5228 180.368 56.5475 180.083 56.4063C179.794 56.2651 179.586 56.0074 179.378 55.7637C178.808 55.1071 178.149 54.5281 177.424 54.0479C176.473 53.4195 175.374 52.9464 174.201 53.1476C173.905 53.1971 173.616 53.2994 173.355 53.4513C172.042 54.228 172.073 55.6896 172.246 56.9712C173.186 56.4416 174.328 56.5193 175.272 56.9465C176.215 57.3737 176.98 58.1151 177.635 58.9165C179.635 61.3596 180.748 64.4559 181.129 67.5945C181.509 70.7331 181.185 73.9247 180.544 77.021C179.935 79.9689 179.019 82.8993 177.35 85.4024C175.68 87.9055 173.186 89.9532 170.256 90.5993C167.393 91.2313 164.367 90.4828 161.761 89.1377C156.372 86.3592 152.42 80.9328 151.423 74.9415C150.427 68.9502 152.406 62.5317 156.601 58.1504C157.429 57.2854 158.365 56.4804 159.492 56.0674C160.616 55.6578 161.965 55.7037 162.916 56.431C163.525 54.6728 163.444 52.438 161.444 51.6472C161.109 51.513 160.746 51.453 160.387 51.4495C158.88 51.4353 157.626 52.2368 156.502 53.1265C154.287 54.8811 152.402 57.0559 150.983 59.5026C152.078 56.0603 154.22 52.9923 157.02 50.7328C157.65 50.2244 158.323 49.7513 159.08 49.4688C159.838 49.1864 160.697 49.1123 161.454 49.3982C161.616 48.5968 161.592 47.7707 161.306 47.0222C161.025 46.2737 160.461 45.6135 159.714 45.324C158.964 45.0345 158.105 45.144 157.369 45.4758C156.636 45.8042 156.009 46.3337 155.424 46.888C153.353 48.851 151.67 51.227 150.501 53.8326C151.54 50.4256 153.248 47.3858 155.442 44.7521C154.984 42.895 153.385 41.7405 151.74 41.7758C150.402 41.8041 149.13 42.6196 148.475 43.7812C147.82 42.6196 146.549 41.8076 145.21 41.7758C143.566 41.7405 141.966 42.8915 141.509 44.7521C143.703 47.3858 145.415 50.4221 146.45 53.8326C145.281 51.2235 143.597 48.851 141.526 46.888C140.942 46.3337 140.318 45.8042 139.582 45.4758C138.849 45.1475 137.987 45.0345 137.236 45.324C136.493 45.6135 135.93 46.2737 135.644 47.0222C135.359 47.7707 135.334 48.5968 135.496 49.3982C136.254 49.1123 137.11 49.1864 137.87 49.4688C138.631 49.7513 139.3 50.2244 139.931 50.7328C142.731 52.9923 144.872 56.0568 145.968 59.5026C144.548 57.0559 142.664 54.8811 140.448 53.1265C139.325 52.2368 138.068 51.4318 136.564 51.4495C136.204 51.453 135.842 51.5165 135.507 51.6472C133.503 52.4345 133.422 54.6728 134.035 56.431C134.986 55.7037 136.331 55.6578 137.458 56.0674C138.582 56.4769 139.519 57.2854 140.35 58.1504C144.548 62.5317 146.528 68.9502 145.527 74.9415C144.527 80.9328 140.579 86.3592 135.19 89.1377C132.584 90.4828 129.558 91.2278 126.695 90.5993C123.764 89.9532 121.267 87.902 119.601 85.4024C117.935 82.9028 117.016 79.9689 116.407 77.021C115.766 73.9247 115.445 70.7331 115.822 67.5945C116.202 64.4559 117.315 61.3596 119.316 58.9165C119.971 58.1151 120.739 57.3737 121.679 56.9465C122.62 56.5193 123.764 56.4416 124.705 56.9712C124.877 55.6896 124.909 54.228 123.595 53.4513C123.335 53.2994 123.046 53.1971 122.75 53.1476C121.577 52.9464 120.475 53.4195 119.527 54.0479C118.802 54.5281 118.143 55.1071 117.572 55.7637C117.361 56.0038 117.153 56.2651 116.868 56.4063C116.579 56.5475 116.185 56.5263 115.998 56.2651C115.84 56.0462 115.878 55.7461 115.942 55.4884C116.234 54.295 116.924 53.2041 117.879 52.4309C118.833 51.6578 120.045 51.2129 121.161 51.107C121.274 50.4327 121.19 49.7195 120.88 49.1087C120.57 48.4979 120.017 48.0107 119.365 47.813C118.439 47.5341 117.41 47.8695 116.657 48.4768C115.903 49.084 115.378 49.9278 114.924 50.7857C113.987 52.5545 113.286 54.4398 112.575 56.251C112.729 54.2209 113.321 52.2226 114.23 50.3621C112.821 49.3453 111.662 47.9825 110.975 46.4397C110.574 48.2826 109.669 50.0125 108.327 51.4565C107.809 50.588 107.136 49.8078 106.326 49.1935C105.625 49.5677 104.879 49.8537 104.104 50.0655C107.312 52.0285 109.866 55.0471 111.183 58.5387C109.926 56.1097 107.957 54.115 105.78 52.4627C105.284 52.0849 104.762 51.7178 104.174 51.513C103.583 51.3082 102.906 51.28 102.353 51.573C101.843 51.8413 101.487 52.3568 101.339 52.9146C101.191 53.4724 101.233 54.0691 101.448 54.6375C102.593 54.3621 103.819 54.6199 104.868 55.1494C105.918 55.679 106.819 56.4698 107.658 57.296C109.465 59.0824 111.049 61.0948 112.451 63.4073C111.377 62.1999 110.292 60.996 109.07 59.9474C107.844 58.8953 106.471 57.9986 104.942 57.4725C104.245 57.2324 103.509 57.0736 102.772 57.1442C102.04 57.2148 101.311 57.5431 100.864 58.1327C100.258 58.9341 100.289 60.0992 100.779 60.8406C102.515 60.4664 104.364 60.8936 105.897 61.7939C107.429 62.6941 108.665 64.0357 109.662 65.508C110.658 66.9802 111.43 68.5936 112.159 70.1788C111.025 68.1382 109.581 66.267 107.897 64.65C107.031 63.8168 106.073 63.0366 104.939 62.6377C104.259 62.4011 103.498 62.3093 102.829 62.5741C101.839 62.9625 101.265 64.0534 101.177 65.1161C101.085 66.1788 101.388 67.2273 101.864 68.3147C101.895 67.4497 101.973 66.493 102.6 65.8963C103.089 65.4303 103.829 65.2997 104.491 65.4232C105.153 65.5468 105.752 65.8999 106.298 66.2988C108.056 67.5839 109.38 69.4021 110.32 71.3721C111.261 73.3422 111.828 75.4675 112.353 77.6247C111 76.7032 109.517 75.9759 108.179 75.5523C108.094 75.8559 108.063 76.1701 108.07 76.4808C110.239 77.6706 112.092 79.4358 113.371 81.5577C112.032 79.863 110.25 78.3873 108.218 77.4588C108.359 77.9777 108.584 78.4755 108.869 78.931C109.496 79.9336 110.363 80.7562 111.152 81.6389C112.571 83.2276 113.828 85.0458 114.42 87.1041C115.184 89.7732 115.42 92.6364 114.804 95.3408C114.188 98.0452 112.557 100.601 110.109 101.901C109.059 102.458 107.848 102.776 106.679 102.571C105.136 102.303 103.882 101.18 102.889 99.9622C99.585 95.9092 98.3593 90.5781 97.5527 85.4059C97.2675 83.5913 97.0209 81.7554 96.4186 80.0219C95.8163 78.2884 94.8196 76.6326 93.4601 75.7182C96.5912 77.1763 99.0954 79.7748 100.895 82.7263C102.695 85.6778 103.843 88.9823 104.787 92.3116C105.076 93.3284 105.347 94.4017 105.115 95.4326C104.882 96.4635 103.97 97.4203 103.118 97.4556C103.308 98.7266 104.048 99.9058 105.111 100.626C106.175 101.346 107.541 101.593 108.788 101.293C110.172 100.961 111.349 99.9905 112.159 98.8148C112.969 97.6392 113.441 96.2623 113.79 94.8783C114.068 93.7768 114.202 92.4105 113.142 91.7679C112.811 91.5667 112.42 91.4925 112.032 91.5137C111.296 91.549 110.574 91.8491 110.19 92.3681C109.088 88.0326 107.95 83.676 106.083 79.6088C104.217 75.5452 101.564 71.7464 97.8275 69.4092C99.9196 72.276 101.614 75.4393 102.758 78.7862C101.519 77.1445 100.078 75.6652 98.7256 74.1154C97.3731 72.5655 96.0875 70.9238 95.2246 69.0526C94.3617 67.1814 93.9391 65.0561 94.3652 63.0401C94.7914 61.0242 96.1509 59.1566 97.9895 58.4716C97.8592 57.9209 97.7218 57.3631 97.4295 56.8794C97.1371 56.3957 96.6616 55.9932 96.0981 55.9332C95.4888 55.8697 94.8971 56.2192 94.4357 56.5758C94.0236 56.8935 93.6467 57.2677 93.3403 57.6879C92.2379 59.1954 91.8047 61.0842 91.7589 62.8106C91.3362 61.2961 91.4877 59.6297 92.1815 58.221C92.8719 56.8123 94.0976 55.672 95.524 55.2448C95.1753 54.5987 94.3969 54.2527 93.6679 54.3127C92.9388 54.3763 92.2696 54.7964 91.7976 55.3577C91.3257 55.9191 91.0263 56.6075 90.9664 57.2607C90.5966 56.2051 90.7762 54.9764 91.4278 54.0691C92.0794 53.1653 93.1924 52.6075 94.1856 52.7028C94.0377 51.8378 93.608 50.9905 92.8895 50.4892C92.171 49.9878 91.1425 49.8996 90.4205 50.3974C89.9027 50.7575 89.6033 51.3612 89.3885 51.9543C88.8884 53.3453 88.7334 54.8599 88.9412 56.2933C88.4446 54.9411 88.3706 53.4407 88.4622 52.0532C84.0842 46.8916 78.5968 42.6832 72.5 40C75.7368 42.7679 78.8187 45.8077 81.0305 49.4547C83.2424 53.1017 84.5386 57.4266 84.0842 61.808C84.4082 61.1972 85.2359 60.9748 85.891 61.1972C86.5462 61.4196 87.0357 61.9845 87.3422 62.6024C87.6486 63.2202 87.8 63.9051 87.9973 64.5724C88.6982 66.9696 89.9802 69.1903 91.7025 70.9944C93.9602 73.3598 96.8941 74.9591 99.3208 77.1481C102.663 80.1596 104.977 84.3009 105.724 88.7917C104.421 85.4977 103.075 82.1331 100.754 79.4641C97.1653 75.3369 91.4771 73.1409 88.8144 68.3571C88.0431 66.9696 87.5676 65.4232 86.7364 64.071C86.3595 63.4603 85.803 62.8318 85.0317 62.9942C84.683 63.0684 84.3836 63.312 84.2004 63.6191C83.813 64.2652 83.8905 65.0243 84.0525 65.7269C84.6301 68.2088 86.282 70.4224 88.5643 71.5522C88.2826 73.4622 88.4234 75.4322 89.0962 77.0951C90.1422 76.8692 91.2517 77.3811 91.9667 78.179C92.6817 78.9769 93.0585 80.0254 93.3016 81.074C93.777 83.1499 93.7735 85.3318 93.21 87.4748C90.9946 82.8498 87.2717 78.9627 82.9113 76.7138C90.4804 85.2682 95.8797 95.7398 98.7573 107.073C99.3067 106.229 100.423 105.83 101.402 106.052C102.382 106.275 103.188 107.08 103.505 108.037C103.822 108.993 103.671 110.077 103.185 110.956C102.695 111.839 101.888 112.52 101.001 113.096C102.575 112.266 104.629 112.453 106.034 113.548C107.439 114.646 108.119 116.594 107.703 118.328C107.288 120.061 105.798 121.491 104.076 121.834C103.727 124.27 104.407 126.837 105.893 128.761C105.893 128.761 105.735 130.282 107.077 129.777C106.509 130.268 106.527 131.172 107.126 131.627C107.143 131.642 107.165 131.656 107.182 131.67C107.654 132.016 108.313 131.917 108.718 131.493C108.778 131.43 108.845 131.37 108.908 131.31C109.028 131.878 109.479 132.913 111.138 133.594C113.533 134.579 123.401 138 148.5 138C173.599 138 183.467 134.575 185.863 133.594C187.521 132.913 187.972 131.878 188.092 131.31C188.155 131.37 188.219 131.43 188.282 131.493C188.691 131.913 189.346 132.012 189.818 131.67C189.835 131.656 189.857 131.642 189.874 131.627C190.473 131.172 190.491 130.268 189.923 129.777C191.265 130.282 191.107 128.761 191.107 128.761C192.593 126.837 193.273 124.27 192.924 121.834C191.198 121.488 189.712 120.061 189.297 118.328C188.881 116.594 189.561 114.646 190.966 113.548C192.371 112.453 194.421 112.266 195.999 113.096C195.112 112.52 194.305 111.835 193.815 110.956C193.326 110.074 193.178 108.993 193.495 108.037C193.812 107.08 194.618 106.278 195.598 106.052C196.577 105.826 197.693 106.225 198.243 107.073C201.124 95.7398 206.52 85.2682 214.089 76.7138C209.725 78.9592 206.005 82.8463 203.79 87.4748C203.223 85.3318 203.219 83.1464 203.698 81.074C203.938 80.029 204.318 78.9804 205.033 78.179C205.748 77.3775 206.858 76.8692 207.904 77.0951C208.58 75.4322 208.717 73.4622 208.436 71.5522C210.718 70.4189 212.37 68.2088 212.947 65.7269C213.11 65.0243 213.187 64.2652 212.8 63.6191C212.616 63.312 212.317 63.0684 211.968 62.9942C211.197 62.8283 210.641 63.4603 210.264 64.071C209.432 65.4268 208.957 66.9696 208.186 68.3571C205.523 73.1409 199.835 75.3369 196.246 79.4641C193.925 82.1367 192.579 85.4977 191.276 88.7917C192.023 84.2974 194.337 80.1596 197.679 77.1481C200.106 74.9591 203.04 73.3598 205.297 70.9944C207.02 69.1903 208.302 66.9661 209.003 64.5724C209.196 63.9086 209.348 63.2237 209.658 62.6024C209.968 61.981 210.454 61.4161 211.109 61.1972C211.764 60.9783 212.588 61.1972 212.916 61.808C212.461 57.4266 213.758 53.1017 215.969 49.4547C218.181 45.8077 221.26 42.7715 224.5 40C218.403 42.6832 212.916 46.8916 208.538 52.0532H208.489ZM78.6038 44.6673C82.0942 46.7574 84.7252 50.242 85.7502 54.401C84.2638 50.6374 81.3722 47.64 78.6038 44.6673ZM160.641 94.4299C162.377 95.7715 164.494 96.6895 166.688 96.7354C168.921 96.7813 171.119 95.9198 172.908 94.5782C174.697 93.2366 176.106 91.4396 177.24 89.5084C176.511 91.782 175.11 93.8968 173.208 95.4608C171.306 97.0249 168.879 98.0099 166.42 97.9393C164.071 97.8757 161.792 96.8519 160.042 95.2808C158.291 93.7097 157.048 91.6161 156.305 89.3778C157.52 91.3372 158.908 93.0848 160.644 94.4264L160.641 94.4299ZM148.458 82.6592C148.458 82.6592 151.705 86.0167 151.705 89.3813C151.705 92.7459 149.962 94.1263 148.697 94.1263H148.218C146.954 94.1263 145.21 92.7459 145.21 89.3813C145.21 86.0167 148.458 82.6592 148.458 82.6592ZM124.011 94.5782C125.8 95.9198 127.994 96.7813 130.231 96.7354C132.422 96.6895 134.538 95.7715 136.278 94.4299C138.015 93.0883 139.402 91.3407 140.618 89.3813C139.878 91.6161 138.631 93.7132 136.881 95.2843C135.13 96.8554 132.851 97.8792 130.502 97.9428C128.044 98.0099 125.617 97.0284 123.715 95.4644C121.813 93.9004 120.411 91.782 119.682 89.5119C120.816 91.4396 122.225 93.2401 124.014 94.5817L124.011 94.5782ZM104.801 111.246C104.713 110.13 105.622 109.149 106.64 108.69C107.661 108.234 108.802 108.157 109.891 107.902C113.166 107.143 115.991 104.661 117.171 101.509C117.372 100.972 117.534 100.411 117.833 99.9199C118.132 99.4291 118.618 99.0125 119.189 98.9596C120.288 98.8572 121.006 100.026 121.707 100.88C123.535 103.115 126.666 103.828 129.548 103.758C131.988 103.701 134.443 103.171 136.599 102.017C138.751 100.863 140.589 99.0514 141.861 96.7671C142.114 98.3453 143.055 99.7963 144.39 100.672C144.83 100.958 145.33 101.212 145.584 101.671C145.802 102.073 145.781 102.596 145.524 102.977C145.267 103.359 144.802 103.422 144.228 103.465C131.309 104.425 117.009 105.424 104.798 111.239L104.801 111.246ZM153.42 110.494C153.177 112.224 151.98 113.795 150.37 114.462C148.81 115.108 146.947 114.893 145.513 113.996C144.08 113.099 143.062 111.567 142.984 109.932C142.932 108.796 143.284 107.648 143.956 106.734C144.626 105.816 145.605 105.134 146.693 104.81C148.363 104.308 150.275 104.693 151.614 105.816C152.952 106.939 153.667 108.767 153.424 110.497L153.42 110.494ZM155.055 119.253C161.18 119.585 167.533 120.001 173.729 121.325C177.441 122.12 181.108 123.26 184.542 124.866C185.598 125.403 184.908 126.42 184.02 125.972C183.999 125.961 183.985 125.957 183.964 125.947C180.586 124.312 176.885 123.253 173.176 122.589C166.734 121.435 160.158 121.35 153.646 120.704C153.068 120.648 152.476 120.58 151.969 120.302C151.314 119.941 150.832 119.133 151.307 118.395C151.624 117.904 152.223 117.696 152.804 117.77C153.737 117.89 154.424 118.586 155.055 119.253ZM144.95 120.302C144.443 120.58 143.847 120.648 143.273 120.704C136.764 121.35 130.185 121.435 123.743 122.589C120.034 123.253 116.333 124.309 112.955 125.947C112.937 125.954 112.92 125.961 112.899 125.972C112.007 126.423 111.321 125.407 112.377 124.866C115.811 123.26 119.478 122.12 123.19 121.325C129.389 119.998 135.739 119.585 141.864 119.253C142.495 118.586 143.185 117.89 144.115 117.77C144.693 117.696 145.295 117.904 145.612 118.395C146.087 119.133 145.605 119.941 144.95 120.302ZM109.436 113.756C108.788 113.781 108.151 113.332 107.957 112.714C107.763 112.097 108.038 111.359 108.595 111.027C109.151 110.695 109.933 110.801 110.648 111.348C119.756 108.022 129.903 106.352 139.575 106.395C140.251 105.989 140.945 105.632 141.871 105.883C142.178 105.964 142.484 106.105 142.667 106.367C142.928 106.737 142.847 107.281 142.558 107.627C142.269 107.977 141.812 108.15 141.361 108.192C140.727 108.252 140.072 108.065 139.596 107.758C129.91 107.662 120.21 109.293 111.088 112.552C110.683 113.244 110.084 113.731 109.436 113.756ZM148.458 136.263C129.949 136.263 110.282 134.282 110.282 130.614C110.282 128.496 116.505 126.992 121.725 126.106C129.213 124.835 138.709 124.136 148.458 124.136C158.207 124.136 167.699 124.835 175.191 126.106C180.41 126.992 186.634 128.492 186.634 130.614C186.634 134.282 166.963 136.263 148.458 136.263ZM188.958 112.714C188.765 113.336 188.127 113.781 187.479 113.756C186.831 113.731 186.232 113.244 185.827 112.552C176.705 109.293 167.005 107.662 157.319 107.758C156.84 108.065 156.189 108.252 155.555 108.192C155.104 108.15 154.646 107.977 154.357 107.627C154.068 107.277 153.987 106.737 154.248 106.367C154.431 106.105 154.738 105.968 155.044 105.883C155.97 105.632 156.664 105.989 157.34 106.395C167.012 106.352 177.159 108.022 186.268 111.348C186.986 110.801 187.768 110.691 188.321 111.027C188.877 111.359 189.152 112.097 188.958 112.714ZM192.114 111.246C179.9 105.431 165.603 104.432 152.684 103.472C152.11 103.429 151.645 103.366 151.388 102.984C151.131 102.603 151.106 102.081 151.328 101.678C151.582 101.216 152.082 100.965 152.522 100.679C153.857 99.8034 154.798 98.3523 155.051 96.7742C156.323 99.0584 158.161 100.866 160.313 102.024C162.465 103.179 164.92 103.708 167.364 103.765C170.245 103.832 173.377 103.122 175.205 100.887C175.906 100.029 176.624 98.8643 177.723 98.9666C178.293 99.0196 178.776 99.4397 179.079 99.9269C179.382 100.414 179.54 100.975 179.745 101.516C180.928 104.668 183.753 107.15 187.025 107.909C188.113 108.164 189.254 108.241 190.276 108.697C191.297 109.152 192.202 110.134 192.114 111.253V111.246ZM195.922 103.585C194.182 105.583 191.551 106.84 188.909 106.698C186.215 106.554 183.725 105 182.03 102.896C180.336 100.792 179.371 98.1793 178.765 95.5526C178.67 95.9939 178.568 96.4529 178.304 96.813C178.248 96.8907 178.163 96.9719 178.065 96.9578C177.994 96.9472 177.945 96.8836 177.924 96.8201C177.903 96.753 177.906 96.6824 177.91 96.6118C177.934 96.2128 177.984 95.8174 177.779 95.5032C176.138 98.2499 173.746 100.679 170.717 101.696C167.794 102.677 164.487 102.229 161.768 100.771C159.049 99.3126 156.9 96.9119 155.41 94.1969C155.41 94.5606 155.414 94.9313 155.319 95.2808C155.301 95.3479 155.277 95.4185 155.231 95.4714C155.185 95.5244 155.111 95.5597 155.044 95.5456C154.931 95.5173 154.893 95.3796 154.879 95.2631C154.833 94.8995 154.819 94.5288 154.734 94.2887C154.206 95.7609 153.544 97.2155 152.505 98.3841C151.469 99.5562 149.99 100.206 148.458 100.206C146.926 100.206 145.45 99.5562 144.411 98.3841C143.375 97.2155 142.71 95.7609 142.181 94.2887C142.093 94.5288 142.083 94.8995 142.037 95.2631C142.023 95.3796 141.984 95.5173 141.871 95.5456C141.801 95.5632 141.731 95.5244 141.685 95.4714C141.639 95.4185 141.614 95.3479 141.597 95.2808C141.502 94.9313 141.502 94.5606 141.505 94.1969C140.015 96.9084 137.867 99.3126 135.148 100.771C132.429 102.229 129.121 102.677 126.198 101.696C123.169 100.679 120.781 98.2499 119.136 95.5032C118.932 95.8174 118.981 96.2128 119.006 96.6118C119.009 96.6824 119.013 96.753 118.992 96.8201C118.971 96.8872 118.918 96.9472 118.851 96.9578C118.756 96.9754 118.671 96.8942 118.611 96.813C118.344 96.4494 118.242 95.9939 118.15 95.5526C117.544 98.1793 116.579 100.788 114.885 102.896C113.191 105 110.701 106.557 108.006 106.698C105.365 106.84 102.734 105.583 100.994 103.585C99.2539 101.586 98.3734 98.9137 98.3382 96.2623C99.1306 98.2994 100.001 100.467 101.402 102.289C102.804 104.111 104.822 105.572 107.105 105.805C109.183 106.017 111.285 105.177 112.867 103.811C114.448 102.441 115.551 100.584 116.308 98.6312C117.065 96.6789 117.498 94.6206 117.995 92.5482C119.083 94.3311 120.182 96.1281 121.584 97.6745C122.982 99.2244 124.719 100.534 126.726 101.103C129.805 101.978 133.281 101.085 135.884 99.2173C138.487 97.3497 140.526 94.7159 142.121 91.8279C142.527 93.4096 143.15 94.9348 143.964 96.3505C144.446 97.1837 145.006 97.9922 145.763 98.5853C146.521 99.182 147.479 99.4856 148.458 99.4856C149.437 99.4856 150.395 99.182 151.152 98.5853C151.909 97.9922 152.469 97.1837 152.952 96.3505C153.769 94.9383 154.392 93.4096 154.794 91.8279C156.39 94.7159 158.429 97.3497 161.032 99.2173C163.634 101.085 167.111 101.978 170.189 101.103C172.197 100.531 173.933 99.2244 175.331 97.6745C176.73 96.1246 177.829 94.3311 178.92 92.5482C179.417 94.617 179.85 96.6789 180.608 98.6312C181.365 100.584 182.467 102.441 184.049 103.811C185.63 105.18 187.733 106.017 189.811 105.805C192.093 105.572 194.111 104.111 195.513 102.289C196.915 100.467 197.785 98.2994 198.577 96.2623C198.542 98.9137 197.662 101.586 195.922 103.585ZM211.165 54.401C212.187 50.242 214.821 46.7609 218.312 44.6673C215.547 47.6365 212.652 50.6374 211.165 54.401Z" fill="#D69923"/>
<path d="M71.5049 208.353L94.1874 237.385L94.1973 237.4L115.897 258.909L149.394 286L183.089 258.928L183.099 258.918L204.724 237.483H204.749L205.078 237.096L205.063 237.067L227.5 208.348L205.171 171.458L209.124 167.542L192.724 142.935L176 138.573L156.69 129H142.315L123.005 138.573L106.281 142.935L89.881 167.542L93.8286 171.458L71.6032 208.176L71.5 208.343L71.5049 208.353ZM125.311 169.909L127.592 173.09L121.624 179.164L111.438 176.232L125.311 169.904V169.909ZM102.874 179.507L98.2333 169.89L102.014 161.145L123.91 169.909L102.874 179.502V179.507ZM127.931 173.566L147.187 188.124L144.68 207.015L112.323 189.79L112.254 189.526L127.926 173.571L127.931 173.566ZM128.364 173.174L144.714 168.909L149.203 172.953L147.275 187.467L128.364 173.174ZM171.251 173.595L171.285 173.571L179.338 181.761L179.357 181.904L179.495 181.923L186.81 189.369L154.546 207.069L152.029 188.124L171.246 173.6L171.251 173.595ZM151.946 187.462L150.019 172.948L154.507 168.904L170.858 173.169L151.946 187.462ZM189.416 177.169L179.618 181.217L171.629 173.085L173.561 170.39L189.416 177.169ZM174.894 170.336L198.083 161.14L201.421 168.586L196.337 179.507L174.894 170.336ZM192.223 208.471L174.864 228.955L187.262 190.442L192.223 208.471ZM187.729 189.957L225.652 207.613L192.641 207.824L187.725 189.962L187.729 189.957ZM186.79 190.035L173.969 229.852L156.478 221.396V221.381L156.444 221.357L154.63 207.672L186.79 190.03V190.035ZM125.193 230.636L125.429 230.224L125.414 230.209L142.556 222.117L140.349 230.695L140.501 231.023L149.306 235.317L148.888 242.753L139.921 256.08L125.188 230.631L125.193 230.636ZM139.356 256.257L116.722 245.336L124.863 231.214L139.356 256.257ZM149.183 243.351L158.966 256.688L149.611 261.203L140.231 256.673V256.659L149.183 243.346V243.351ZM149.468 242.762L149.886 235.337L158.72 231.023L158.872 230.695L156.67 222.122L173.748 230.381L159.418 256.32L149.473 242.762H149.468ZM174.151 230.842L182.504 245.331L160.2 256.095L174.151 230.842ZM158.258 230.611L149.616 234.827L140.973 230.611L143.254 221.739H155.977L158.258 230.611ZM142.782 221.357L142.753 221.381V221.391L125.04 229.754L124.598 229.234L116.6 206.289L112.524 190.54L144.606 207.618L142.782 221.362V221.357ZM116.044 206.441L123.561 228.009L107.008 208.475L111.939 190.56L116.049 206.446L116.044 206.441ZM106.586 207.819H73.3681L111.472 189.972L111.497 189.986L106.591 207.824L106.586 207.819ZM106.65 208.941L124.087 229.518L124.269 230.043L94.9052 236.792L106.65 208.936V208.941ZM94.9937 237.366L124.505 230.582L124.534 230.636L116.074 245.316L111.226 253.463L94.9937 237.371V237.366ZM116.3 258.487L111.649 253.879L116.437 245.831L126.953 250.904L121.791 262.928L116.3 258.487ZM122.258 263.305L127.474 251.154L139.38 256.899L139.302 257.017L139.528 257.168L134.13 272.903L122.258 263.3V263.305ZM149.399 285.255L134.607 273.295L140.108 257.252L149.488 261.781L149.616 261.84L159.32 257.159L159.354 257.208L164.295 273.29L149.399 285.255ZM164.777 272.898L159.905 257.026L159.929 257.012L159.88 256.948L159.865 256.899L171.757 251.159L176.727 263.305L164.781 272.903L164.777 272.898ZM182.715 258.487L177.189 262.923L172.273 250.904L182.774 245.836L186.938 254.296L182.715 258.482V258.487ZM187.371 253.87L183.295 245.586L183.31 245.576L174.722 230.68L204.056 237.327L187.366 253.87H187.371ZM174.672 230.082L192.586 208.946L204.331 236.802L174.672 230.082ZM226.807 208.304L204.813 236.454L192.98 208.387L226.728 208.176L226.807 208.304ZM226.138 207.201L187.459 189.197L180.429 182.041L213.539 186.389L226.133 207.201H226.138ZM213.16 185.761L180.503 181.472L190.025 177.541L189.971 177.409L196.632 180.257L199.729 173.61L204.591 171.61L213.16 185.766V185.761ZM208.382 167.463L204.911 170.904L204.891 170.86L200.083 172.835L202.06 168.591L198.387 160.405L173.704 170.194L192.606 143.808L208.377 167.468L208.382 167.463ZM192.198 143.386L171.221 172.669L160.726 169.929L175.96 139.146L192.203 143.381L192.198 143.386ZM175.425 138.926L160.155 169.782L154.807 168.385L166.355 134.426L175.425 138.921V138.926ZM149.901 129.574H156.552L165.829 134.171L154.178 168.424L149.925 172.257L149.896 172.041V129.574H149.901ZM155.839 221.166H143.387L149.611 174.262L155.839 221.166ZM142.453 129.574H149.326V172.041L149.296 172.257L145.049 168.429L134.612 133.461L142.453 129.574ZM123.212 139.112L134.086 133.72L144.434 168.385L139.081 169.782L124.981 138.504L124.455 138.74L138.52 169.929L128.01 172.669L106.999 143.337L123.217 139.107L123.212 139.112ZM90.6233 167.468L106.502 143.646L125.262 169.831L101.709 160.405L97.6041 169.904L98.9215 172.635L94.561 171.38L90.6233 167.473V167.468ZM94.4234 171.59L94.33 171.909L99.2509 173.326L102.599 180.266L110.632 176.605L120.321 179.394L85.8646 185.737L94.4234 171.595V171.59ZM85.4664 186.389L120.94 179.86L111.762 189.202L111.477 189.334L111.197 189.183L110.99 189.56L72.6848 207.505L85.4664 186.389ZM106.242 208.397L94.3349 236.64L72.2669 208.397H106.242Z" fill="#FEBB12"/>
</svg>
