<svg width="89" height="88" viewBox="0 0 89 88" fill="none" xmlns="http://www.w3.org/2000/svg">
<path d="M44.4994 2.4673C32.999 9.51586 18.4536 13.8076 2.60175 14.0238C4.02958 56.7342 44.4994 85.5327 44.4994 85.5327C44.4994 85.5327 84.9692 56.7342 86.397 14.0238C70.5452 13.812 55.9997 9.52027 44.4994 2.4673Z" fill="#101010"/>
<path d="M62.3661 13.7217C62.3936 14.1011 62.3714 14.5135 62.2222 14.8842C62.2846 14.4912 62.2381 14.076 62.0879 13.6946C62.0233 13.5311 61.9334 13.3665 61.7779 13.2678C61.5621 13.1304 61.2532 13.1555 61.0364 13.293C60.8206 13.4304 60.6915 13.6617 60.6471 13.8998C60.9465 13.8737 61.2797 14.0257 61.4754 14.2744C61.6711 14.5231 61.725 14.86 61.6139 15.1493C61.596 14.9703 61.5061 14.7816 61.3643 14.6277C61.2225 14.4738 61.0216 14.3586 60.8026 14.3412C60.5836 14.3238 60.3488 14.4196 60.2451 14.5967C60.6735 14.7138 61.0417 15.0264 61.249 15.4126C61.4563 15.7988 61.5029 16.2566 61.3759 16.6708C61.3622 16.1975 61.2321 15.6797 60.901 15.2665C60.8079 15.1503 60.6958 15.0487 60.572 14.9616C60.4324 14.8629 60.2546 14.768 60.0727 14.7854C59.9045 14.8009 59.7606 14.9122 59.6728 15.0448C59.585 15.1774 59.5448 15.3303 59.5046 15.4813C60.0568 15.6691 60.4651 16.1811 60.5931 16.7337C60.7211 17.2864 60.5942 17.87 60.335 18.382C60.0759 18.895 59.6908 19.3451 59.2835 19.7699C58.8773 20.1948 58.4447 20.6004 58.0723 21.0504C58.4161 20.1319 58.9249 19.2657 59.5533 18.4798C58.4309 19.1205 57.6354 20.1619 57.0737 21.2759C56.5131 22.39 56.1714 23.5843 55.8403 24.7738C55.725 24.6306 55.5081 24.5493 55.287 24.5396C55.1707 24.5347 55.0533 24.5551 54.9538 24.6093C54.6354 24.7854 54.6756 25.16 54.7592 25.462C54.8639 25.8414 55.0067 26.2188 55.249 26.5411C55.4912 26.8634 55.8445 27.1296 56.2613 27.2206C56.6358 27.3028 57.0462 27.2351 57.3657 27.0376C57.6852 26.8402 57.9073 26.5169 57.9644 26.1685C57.7074 26.1588 57.4344 25.8965 57.3646 25.6139C57.2948 25.3313 57.3763 25.0371 57.463 24.7583C57.7465 23.8456 58.0914 22.9397 58.6319 22.1306C59.1725 21.3214 59.9246 20.6091 60.865 20.2094C60.4567 20.46 60.1573 20.914 59.9764 21.3892C59.7955 21.8644 59.7215 22.3677 59.6358 22.8652C59.3936 24.2821 59.0244 25.7446 58.0332 26.8557C57.7359 27.1886 57.3583 27.4974 56.8949 27.5709C56.5437 27.6271 56.1799 27.54 55.8646 27.3871C55.1294 27.0309 54.6407 26.3311 54.4545 25.5888C54.2694 24.8474 54.3392 24.0615 54.5698 23.3307C54.7475 22.7655 55.1252 22.268 55.5515 21.8325C55.7885 21.5905 56.0476 21.365 56.237 21.0901C56.3227 20.9662 56.3904 20.8288 56.4327 20.6865C55.8223 20.9411 55.287 21.3456 54.8851 21.8102C55.2691 21.2285 55.8255 20.7446 56.4771 20.4184C56.4792 20.3332 56.4697 20.2471 56.4443 20.1639C56.0423 20.28 55.597 20.4794 55.1908 20.732C55.3484 20.1406 55.5198 19.558 55.8012 19.0179C56.0825 18.4778 56.4803 17.9794 57.0092 17.6271C57.1732 17.5177 57.353 17.4219 57.5519 17.3871C57.7507 17.3522 57.9729 17.389 58.1199 17.5168C58.3082 17.6803 58.3315 17.9426 58.341 18.1797C58.4838 17.8816 58.5737 17.5942 58.5473 17.3029C58.5198 17.0115 58.3484 16.7134 58.0512 16.606C57.8502 16.5344 57.6217 16.5586 57.4175 16.6234C57.0769 16.7328 56.7892 16.9467 56.5289 17.1751C56.0233 17.6184 55.5906 18.1313 55.249 18.6908C55.4679 18.2562 55.6996 17.8139 55.999 17.4103C56.2983 17.0067 56.6696 16.6389 57.1298 16.3921C57.5899 16.1453 58.1453 16.0282 58.6668 16.1308C58.8139 15.9285 58.8234 15.6081 58.6414 15.3884C58.5081 15.2268 58.2881 15.1377 58.0681 15.1174C57.8481 15.0981 57.6259 15.1416 57.4165 15.2074C56.9584 15.3507 56.5448 15.5975 56.1767 15.8859C55.8086 16.1743 55.4827 16.5044 55.1612 16.8344C55.5822 16.1995 56.0582 15.6478 56.6009 15.159C56.8526 14.9325 57.1234 14.7157 57.4387 14.5706C57.755 14.4254 58.122 14.3547 58.4658 14.4302C58.5304 14.2744 58.5431 14.1108 58.4986 13.9579C58.4542 13.805 58.3474 13.6627 58.194 13.5901C58.0279 13.5108 57.8248 13.5175 57.6471 13.5737C57.4704 13.6298 57.3139 13.7305 57.1647 13.834C56.512 14.287 55.9207 14.8348 55.542 15.4997C55.9376 14.5425 56.7045 13.715 57.6682 13.1768C57.4355 13.1188 57.2112 13.0404 57.0007 12.9378C56.7574 13.1062 56.5554 13.3191 56.3999 13.5582C55.9968 13.1623 55.7239 12.6881 55.6044 12.1828C55.3981 12.6068 55.0501 12.9794 54.627 13.2581C54.8999 13.7692 55.0776 14.316 55.1241 14.8725C54.9104 14.376 54.6999 13.8592 54.4186 13.3743C54.2821 13.1391 54.1255 12.9078 53.8981 12.7413C53.6717 12.5748 53.3628 12.4829 53.0846 12.5593C52.8879 12.6135 52.7229 12.7481 52.6298 12.9145C52.5367 13.081 52.5102 13.2775 52.5451 13.4624C52.8805 13.4914 53.2444 13.6133 53.531 13.8253C53.8177 14.0373 54.025 14.3363 54.1128 14.6635C54.1319 14.7351 54.1435 14.8174 54.0959 14.8764C54.0399 14.9471 53.9203 14.9538 53.8346 14.9151C53.7479 14.8764 53.6855 14.8058 53.6231 14.739C53.4517 14.559 53.2539 14.4002 53.036 14.2686C52.7504 14.0963 52.4203 13.9666 52.0681 14.0218C51.9792 14.0353 51.8925 14.0634 51.8142 14.105C51.4196 14.318 51.4291 14.7186 51.481 15.07C51.7634 14.9248 52.1061 14.9461 52.3896 15.0632C52.6731 15.1803 52.9027 15.3836 53.0994 15.6033C53.7003 16.273 54.0346 17.1219 54.1488 17.9823C54.2631 18.8427 54.1657 19.7177 53.9732 20.5665C53.7902 21.3747 53.5152 22.178 53.0138 22.8642C52.5123 23.5504 51.7634 24.1118 50.8833 24.2889C50.0233 24.4622 49.1146 24.257 48.3318 23.8882C46.7133 23.1265 45.5264 21.6389 45.227 19.9964C44.9277 18.354 45.5222 16.5944 46.7821 15.3933C47.0306 15.1561 47.312 14.9355 47.6505 14.8222C47.988 14.7099 48.3931 14.7225 48.6787 14.9219C48.8618 14.4399 48.8374 13.8272 48.2366 13.6104C48.1361 13.5737 48.0271 13.5572 47.9192 13.5562C47.4665 13.5524 47.0899 13.7721 46.7524 14.016C46.0871 14.497 45.5211 15.0932 45.0948 15.7639C45.4238 14.8203 46.067 13.9792 46.9079 13.3598C47.0973 13.2204 47.2993 13.0907 47.5268 13.0133C47.7542 12.9358 48.0123 12.9155 48.2397 12.9939C48.2884 12.7742 48.281 12.5477 48.1953 12.3425C48.1107 12.1374 47.9414 11.9564 47.7172 11.877C47.4919 11.7976 47.2337 11.8276 47.0127 11.9186C46.7926 12.0086 46.6043 12.1538 46.4287 12.3058C45.8067 12.8439 45.3011 13.4953 44.9499 14.2096C45.2619 13.2756 45.775 12.4422 46.434 11.7202C46.2965 11.2111 45.8162 10.8946 45.3222 10.9043C44.9203 10.912 44.5384 11.1356 44.3416 11.454C44.1449 11.1356 43.763 10.913 43.361 10.9043C42.867 10.8946 42.3868 11.2101 42.2492 11.7202C42.9083 12.4422 43.4224 13.2746 43.7334 14.2096C43.3822 13.4943 42.8765 12.8439 42.2545 12.3058C42.0789 12.1538 41.8917 12.0086 41.6706 11.9186C41.4506 11.8286 41.1914 11.7976 40.9661 11.877C40.7429 11.9564 40.5736 12.1374 40.4879 12.3425C40.4022 12.5477 40.3948 12.7742 40.4435 12.9939C40.6709 12.9155 40.928 12.9358 41.1565 13.0133C41.385 13.0907 41.586 13.2204 41.7753 13.3598C42.6163 13.9792 43.2595 14.8193 43.5884 15.7639C43.1621 15.0932 42.5962 14.497 41.9308 14.016C41.5934 13.7721 41.2157 13.5514 40.764 13.5562C40.6561 13.5572 40.5472 13.5746 40.4467 13.6104C39.8448 13.8263 39.8204 14.4399 40.0045 14.9219C40.2901 14.7225 40.6942 14.7099 41.0327 14.8222C41.3702 14.9345 41.6516 15.1561 41.9012 15.3933C43.1621 16.5944 43.7566 18.354 43.4562 19.9964C43.1558 21.6389 41.97 23.1265 40.3515 23.8882C39.5687 24.257 38.66 24.4612 37.8 24.2889C36.9199 24.1118 36.1699 23.5495 35.6695 22.8642C35.1691 22.179 34.8931 21.3747 34.71 20.5665C34.5175 19.7177 34.4213 18.8427 34.5344 17.9823C34.6487 17.1219 34.983 16.273 35.5838 15.6033C35.7806 15.3836 36.0112 15.1803 36.2936 15.0632C36.5761 14.9461 36.9199 14.9248 37.2023 15.07C37.2541 14.7186 37.2637 14.318 36.8691 14.105C36.7908 14.0634 36.7041 14.0353 36.6152 14.0218C36.2629 13.9666 35.9318 14.0963 35.6473 14.2686C35.4294 14.4002 35.2316 14.559 35.0602 14.739C34.9967 14.8048 34.9343 14.8764 34.8486 14.9151C34.7619 14.9538 34.6434 14.948 34.5873 14.8764C34.5397 14.8164 34.5514 14.7341 34.5704 14.6635C34.6582 14.3363 34.8655 14.0373 35.1522 13.8253C35.4389 13.6133 35.8028 13.4914 36.1381 13.4624C36.172 13.2775 36.1466 13.082 36.0535 12.9145C35.9604 12.7471 35.7943 12.6135 35.5986 12.5593C35.3204 12.4829 35.0115 12.5748 34.7852 12.7413C34.5588 12.9078 34.4012 13.1391 34.2647 13.3743C33.9833 13.8592 33.7728 14.376 33.5591 14.8725C33.6057 14.316 33.7834 13.7682 34.0563 13.2581C33.6332 12.9794 33.2851 12.6058 33.0789 12.1828C32.9583 12.6881 32.6864 13.1623 32.2834 13.5582C32.1279 13.3201 31.9258 13.1062 31.6825 12.9378C31.472 13.0404 31.2478 13.1188 31.015 13.1768C31.9787 13.715 32.7456 14.5425 33.1413 15.4997C32.7636 14.8338 32.1723 14.287 31.5186 13.834C31.3694 13.7305 31.2128 13.6298 31.0362 13.5737C30.8585 13.5175 30.6554 13.5098 30.4893 13.5901C30.3359 13.6637 30.2291 13.805 30.1846 13.9579C30.1402 14.1108 30.1529 14.2744 30.2174 14.4302C30.5612 14.3547 30.9293 14.4254 31.2446 14.5706C31.5598 14.7157 31.8306 14.9325 32.0824 15.159C32.6251 15.6488 33.1011 16.2005 33.5221 16.8344C33.1995 16.5034 32.8736 16.1734 32.5066 15.8859C32.1385 15.5975 31.7259 15.3516 31.2668 15.2074C31.0573 15.1416 30.8363 15.0981 30.6152 15.1174C30.3951 15.1368 30.1762 15.2268 30.0418 15.3884C29.8599 15.6081 29.8694 15.9275 30.0164 16.1308C30.5379 16.0282 31.0933 16.1453 31.5535 16.3921C32.0136 16.6389 32.3849 17.0067 32.6843 17.4103C32.9837 17.8139 33.2153 18.2562 33.4343 18.6908C33.0937 18.1313 32.66 17.6184 32.1543 17.1751C31.8941 16.9467 31.6064 16.7328 31.2657 16.6234C31.0616 16.5586 30.8331 16.5334 30.6321 16.606C30.3348 16.7125 30.1624 17.0115 30.136 17.3029C30.1085 17.5942 30.1994 17.8816 30.3422 18.1797C30.3518 17.9426 30.375 17.6803 30.5633 17.5168C30.7104 17.389 30.9325 17.3532 31.1314 17.3871C31.3303 17.4209 31.5101 17.5177 31.6741 17.6271C32.2019 17.9794 32.5997 18.4778 32.8821 19.0179C33.1645 19.558 33.3349 20.1406 33.4925 20.732C33.0863 20.4794 32.6409 20.28 32.2389 20.1639C32.2136 20.2471 32.204 20.3332 32.2062 20.4184C32.8578 20.7446 33.4142 21.2285 33.7982 21.8102C33.3962 21.3456 32.8609 20.9411 32.2506 20.6865C32.2929 20.8288 32.3606 20.9653 32.4463 21.0901C32.6346 21.365 32.8948 21.5905 33.1318 21.8325C33.5581 22.268 33.9357 22.7665 34.1134 23.3307C34.343 24.0624 34.4138 24.8474 34.2287 25.5888C34.0436 26.3301 33.5538 27.0309 32.8186 27.3871C32.5034 27.54 32.1395 27.6271 31.7883 27.5709C31.325 27.4974 30.9484 27.1896 30.6501 26.8557C29.6578 25.7446 29.2897 24.2831 29.0475 22.8652C28.9618 22.3677 28.8877 21.8644 28.7068 21.3892C28.5259 20.914 28.2266 20.46 27.8183 20.2094C28.7587 20.6091 29.5108 21.3214 30.0513 22.1306C30.5919 22.9397 30.9368 23.8456 31.2202 24.7583C31.307 25.0371 31.3884 25.3313 31.3186 25.6139C31.2488 25.8965 30.9748 26.1588 30.7188 26.1685C30.776 26.5169 30.9981 26.8402 31.3176 27.0376C31.637 27.2351 32.0475 27.3028 32.4219 27.2206C32.8377 27.1296 33.191 26.8634 33.4343 26.5411C33.6776 26.2188 33.8194 25.8414 33.9241 25.462C34.0076 25.16 34.0478 24.7854 33.7294 24.6093C33.63 24.5541 33.5126 24.5338 33.3962 24.5396C33.1751 24.5493 32.9583 24.6315 32.843 24.7738C32.5119 23.5853 32.1702 22.3909 31.6095 21.2759C31.0489 20.1619 30.2523 19.1205 29.13 18.4798C29.7583 19.2657 30.2671 20.1329 30.6109 21.0504C30.2386 20.6004 29.8059 20.1948 29.3997 19.7699C28.9935 19.3451 28.6074 18.895 28.3482 18.382C28.0891 17.8691 27.9621 17.2864 28.0901 16.7337C28.2181 16.1811 28.6264 15.6691 29.1786 15.4813C29.1395 15.3303 29.0982 15.1774 29.0104 15.0448C28.9226 14.9122 28.7798 14.8019 28.6106 14.7854C28.4276 14.768 28.2498 14.8638 28.1113 14.9616C27.9875 15.0487 27.8743 15.1513 27.7823 15.2665C27.4512 15.6797 27.3211 16.1975 27.3073 16.6708C27.1804 16.2556 27.2259 15.7988 27.4343 15.4126C27.6416 15.0264 28.0097 14.7138 28.4381 14.5967C28.3334 14.4196 28.0996 14.3247 27.8807 14.3412C27.6617 14.3586 27.4607 14.4738 27.319 14.6277C27.1772 14.7816 27.0873 14.9703 27.0693 15.1493C26.9582 14.86 27.0122 14.5231 27.2079 14.2744C27.4036 14.0266 27.7379 13.8737 28.0362 13.8998C27.9917 13.6627 27.8627 13.4304 27.6469 13.293C27.4311 13.1555 27.1222 13.1313 26.9053 13.2678C26.7498 13.3665 26.6599 13.532 26.5954 13.6946C26.4452 14.076 26.3986 14.4912 26.4611 14.8842C26.3119 14.5135 26.2897 14.1021 26.3172 13.7217C25.0023 12.3067 23.3542 11.153 21.5231 10.4175C22.4952 11.1763 23.4208 12.0096 24.0852 13.0094C24.7495 14.0092 25.1388 15.1948 25.0023 16.396C25.0996 16.2285 25.3482 16.1675 25.545 16.2285C25.7417 16.2895 25.8888 16.4444 25.9808 16.6137C26.0728 16.7831 26.1183 16.9709 26.1776 17.1538C26.3881 17.811 26.7731 18.4198 27.2904 18.9143C27.9685 19.5628 28.8496 20.0013 29.5785 20.6013C30.5824 21.4269 31.2774 22.5622 31.5016 23.7934C31.1102 22.8903 30.7061 21.968 30.009 21.2363C28.9311 20.1048 27.2227 19.5028 26.423 18.1914C26.1913 17.811 26.0485 17.3871 25.7988 17.0164C25.6857 16.8489 25.5185 16.6766 25.2869 16.7212C25.1821 16.7415 25.0922 16.8083 25.0372 16.8925C24.9208 17.0696 24.9441 17.2777 24.9928 17.4703C25.1663 18.1507 25.6624 18.7576 26.3479 19.0673C26.2632 19.5909 26.3056 20.131 26.5076 20.5868C26.8218 20.5249 27.155 20.6652 27.3697 20.884C27.5845 21.1027 27.6977 21.3901 27.7707 21.6776C27.9135 22.2467 27.9124 22.8449 27.7431 23.4323C27.0778 22.1644 25.9596 21.0988 24.65 20.4823C26.9233 22.8274 28.545 25.6981 29.4092 28.805C29.5743 28.5737 29.9096 28.4643 30.2037 28.5253C30.4977 28.5862 30.74 28.8069 30.8352 29.0692C30.9304 29.3315 30.8849 29.6286 30.7389 29.8696C30.5919 30.1116 30.3497 30.2984 30.0831 30.4562C30.5559 30.2287 31.1726 30.28 31.5947 30.58C32.0168 30.881 32.221 31.4153 32.0961 31.8905C31.9713 32.3658 31.5238 32.7577 31.0066 32.8516C30.9018 33.5194 31.106 34.2231 31.5524 34.7506C31.5524 34.7506 31.5048 35.1677 31.9078 35.0293C31.7375 35.1639 31.7428 35.4116 31.9227 35.5365C31.9279 35.5404 31.9343 35.5442 31.9396 35.5481C32.0813 35.6429 32.2791 35.6158 32.4008 35.4997C32.4188 35.4823 32.4389 35.4658 32.4579 35.4494C32.4939 35.6052 32.6293 35.8888 33.1275 36.0756C33.8468 36.3456 36.8109 37.2835 44.349 37.2835C51.8872 37.2835 54.8512 36.3446 55.5705 36.0756C56.0688 35.8888 56.2042 35.6052 56.2401 35.4494C56.2592 35.4658 56.2782 35.4823 56.2973 35.4997C56.42 35.6149 56.6167 35.642 56.7585 35.5481C56.7638 35.5442 56.7701 35.5404 56.7754 35.5365C56.9552 35.4116 56.9605 35.1639 56.7902 35.0293C57.1933 35.1677 57.1457 34.7506 57.1457 34.7506C57.5921 34.2231 57.7962 33.5194 57.6915 32.8516C57.1732 32.7568 56.7268 32.3658 56.6019 31.8905C56.4771 31.4153 56.6813 30.881 57.1033 30.58C57.5254 30.28 58.1411 30.2287 58.615 30.4562C58.3484 30.2984 58.1062 30.1106 57.9591 29.8696C57.8121 29.6277 57.7677 29.3315 57.8629 29.0692C57.9581 28.8069 58.2003 28.5872 58.4944 28.5253C58.7885 28.4633 59.1238 28.5727 59.2888 28.805C60.1541 25.6981 61.7747 22.8274 64.048 20.4823C62.7374 21.0979 61.6203 22.1635 60.9549 23.4323C60.7846 22.8449 60.7836 22.2457 60.9274 21.6776C60.9993 21.3911 61.1136 21.1037 61.3283 20.884C61.5431 20.6642 61.8763 20.5249 62.1905 20.5868C62.3936 20.131 62.4348 19.5909 62.3502 19.0673C63.0357 18.7566 63.5318 18.1507 63.7053 17.4703C63.7539 17.2777 63.7772 17.0696 63.6609 16.8925C63.6058 16.8083 63.5159 16.7415 63.4112 16.7212C63.1795 16.6757 63.0124 16.8489 62.8992 17.0164C62.6496 17.388 62.5068 17.811 62.2751 18.1914C61.4754 19.5028 59.767 20.1048 58.689 21.2363C57.9919 21.9689 57.5878 22.8903 57.1964 23.7934C57.4207 22.5613 58.1157 21.4269 59.1196 20.6013C59.8484 20.0013 60.7296 19.5628 61.4077 18.9143C61.9249 18.4198 62.31 17.81 62.5205 17.1538C62.5787 16.9718 62.6242 16.7841 62.7173 16.6137C62.8104 16.4434 62.9563 16.2885 63.1531 16.2285C63.3499 16.1685 63.5974 16.2285 63.6958 16.396C63.5593 15.1948 63.9486 14.0092 64.6129 13.0094C65.2772 12.0096 66.2018 11.1772 67.175 10.4175C65.3439 11.153 63.6958 12.3067 62.3809 13.7217H62.3661ZM23.3563 11.697C24.4046 12.2699 25.1948 13.2252 25.5027 14.3654C25.0562 13.3336 24.1878 12.5119 23.3563 11.697ZM47.9954 25.339C48.5169 25.7068 49.1527 25.9585 49.8117 25.9711C50.4824 25.9836 51.1424 25.7475 51.6798 25.3797C52.2172 25.0119 52.6403 24.5193 52.981 23.9898C52.762 24.6131 52.341 25.1929 51.7697 25.6217C51.1985 26.0504 50.4697 26.3205 49.7313 26.3011C49.0257 26.2837 48.3413 26.003 47.8156 25.5723C47.2898 25.1416 46.9164 24.5677 46.6932 23.954C47.0581 24.4912 47.4749 24.9703 47.9964 25.3381L47.9954 25.339ZM44.3363 22.1122C44.3363 22.1122 45.3117 23.0326 45.3117 23.955C45.3117 24.8774 44.788 25.2558 44.4083 25.2558H44.2644C43.8846 25.2558 43.361 24.8774 43.361 23.955C43.361 23.0326 44.3363 22.1122 44.3363 22.1122ZM36.9939 25.3797C37.5313 25.7475 38.1903 25.9836 38.862 25.9711C39.52 25.9585 40.1558 25.7068 40.6783 25.339C41.1999 24.9713 41.6166 24.4922 41.9816 23.955C41.7595 24.5677 41.385 25.1426 40.8592 25.5733C40.3335 26.004 39.6491 26.2846 38.9435 26.3021C38.2051 26.3205 37.4763 26.0514 36.9051 25.6226C36.3338 25.1939 35.9128 24.6131 35.6938 23.9908C36.0345 24.5193 36.4576 25.0129 36.995 25.3807L36.9939 25.3797ZM31.2245 29.949C31.198 29.6431 31.471 29.3741 31.7767 29.2483C32.0834 29.1234 32.4262 29.1021 32.7531 29.0324C33.7368 28.8243 34.5852 28.1439 34.9396 27.2796C34.9999 27.1325 35.0486 26.9786 35.1385 26.8441C35.2284 26.7095 35.3744 26.5953 35.5457 26.5808C35.8758 26.5527 36.0916 26.8731 36.3021 27.1073C36.8511 27.72 37.7915 27.9155 38.6568 27.8961C39.3899 27.8807 40.1272 27.7355 40.7746 27.419C41.4209 27.1025 41.9731 26.606 42.355 25.9798C42.4312 26.4124 42.7136 26.8102 43.1145 27.0502C43.2468 27.1286 43.397 27.1983 43.4731 27.3241C43.5387 27.4345 43.5324 27.5777 43.4552 27.6822C43.3779 27.7868 43.2383 27.8042 43.0659 27.8158C39.1857 28.0791 34.8909 28.353 31.2234 29.9471L31.2245 29.949ZM45.8268 29.7428C45.7538 30.2171 45.3942 30.6478 44.9107 30.8307C44.4421 31.0078 43.8825 30.9488 43.452 30.703C43.0215 30.4571 42.7157 30.0371 42.6925 29.5889C42.6766 29.2773 42.7824 28.9627 42.9844 28.7121C43.1854 28.4604 43.4795 28.2736 43.8064 28.1846C44.3078 28.0471 44.8822 28.1526 45.2842 28.4604C45.6861 28.7682 45.9009 29.2695 45.8279 29.7438L45.8268 29.7428ZM46.3177 32.1441C48.1572 32.2351 50.0656 32.3493 51.9263 32.7122C53.0413 32.93 54.1425 33.2426 55.1739 33.683C55.4912 33.8301 55.2839 34.1089 55.0173 33.986C55.0109 33.9831 55.0067 33.9821 55.0004 33.9792C53.9859 33.5311 52.8741 33.2407 51.7602 33.0587C49.8254 32.7422 47.8505 32.719 45.8945 32.5419C45.721 32.5264 45.5433 32.508 45.391 32.4316C45.1942 32.3328 45.0493 32.1112 45.1921 31.9089C45.2873 31.7744 45.4672 31.7173 45.6417 31.7376C45.922 31.7705 46.1283 31.9612 46.3177 32.1441ZM43.2827 32.4316C43.1304 32.508 42.9516 32.5264 42.7792 32.5419C40.8243 32.719 38.8483 32.7422 36.9135 33.0587C35.7996 33.2407 34.6878 33.5301 33.6734 33.9792C33.6681 33.9811 33.6628 33.9831 33.6564 33.986C33.3888 34.1098 33.1825 33.8311 33.4999 33.683C34.5313 33.2426 35.6325 32.93 36.7474 32.7122C38.6092 32.3483 40.5165 32.2351 42.3561 32.1441C42.5454 31.9612 42.7528 31.7705 43.032 31.7376C43.2055 31.7173 43.3864 31.7744 43.4816 31.9089C43.6244 32.1112 43.4795 32.3328 43.2827 32.4316ZM32.6166 30.6371C32.422 30.6439 32.2305 30.521 32.1723 30.3516C32.1141 30.1822 32.1966 29.98 32.3638 29.889C32.5309 29.798 32.7657 29.827 32.9805 29.9771C35.716 29.0653 38.7637 28.6075 41.6685 28.6191C41.8716 28.5078 42.08 28.4101 42.3582 28.4788C42.4502 28.5011 42.5423 28.5398 42.5973 28.6114C42.6755 28.713 42.6512 28.8621 42.5645 28.9569C42.4777 29.0527 42.3402 29.1002 42.2048 29.1118C42.0144 29.1282 41.8176 29.0769 41.6748 28.9927C38.7658 28.9666 35.8525 29.4138 33.1127 30.3071C32.9911 30.4968 32.8112 30.6304 32.6166 30.6371ZM44.3363 36.8073C38.7774 36.8073 32.8705 36.2643 32.8705 35.2587C32.8705 34.678 34.7397 34.2657 36.3074 34.0227C38.5563 33.6743 41.4083 33.4827 44.3363 33.4827C47.2644 33.4827 50.1153 33.6743 52.3653 34.0227C53.933 34.2657 55.8022 34.677 55.8022 35.2587C55.8022 36.2643 49.8942 36.8073 44.3363 36.8073ZM56.5004 30.3516C56.4422 30.522 56.2507 30.6439 56.0561 30.6371C55.8615 30.6304 55.6816 30.4968 55.56 30.3071C52.8202 29.4138 49.9069 28.9666 46.9978 28.9927C46.854 29.0769 46.6583 29.1282 46.4679 29.1118C46.3325 29.1002 46.195 29.0527 46.1082 28.9569C46.0215 28.8611 45.9971 28.713 46.0754 28.6114C46.1304 28.5398 46.2225 28.502 46.3145 28.4788C46.5927 28.4101 46.8011 28.5078 47.0042 28.6191C49.909 28.6075 52.9566 29.0653 55.6922 29.9771C55.908 29.827 56.1428 29.797 56.3089 29.889C56.476 29.98 56.5586 30.1822 56.5004 30.3516ZM57.4482 29.949C53.7796 28.3549 49.4859 28.081 45.6057 27.8177C45.4333 27.8061 45.2937 27.7887 45.2165 27.6842C45.1392 27.5797 45.1318 27.4364 45.1985 27.3261C45.2746 27.1993 45.4249 27.1306 45.5571 27.0522C45.958 26.8121 46.2404 26.4143 46.3166 25.9817C46.6985 26.6079 47.2507 27.1035 47.897 27.4209C48.5433 27.7374 49.2807 27.8826 50.0148 27.8981C50.8801 27.9165 51.8205 27.7219 52.3695 27.1093C52.58 26.8741 52.7958 26.5547 53.1259 26.5828C53.2973 26.5973 53.4422 26.7124 53.5331 26.846C53.6241 26.9796 53.6717 27.1335 53.7331 27.2815C54.0885 28.1459 54.9369 28.8263 55.9196 29.0344C56.2465 29.104 56.5892 29.1253 56.896 29.2502C57.2028 29.375 57.4746 29.6441 57.4482 29.9509V29.949ZM58.5917 27.8487C58.0691 28.3965 57.2789 28.7411 56.4856 28.7024C55.6763 28.6627 54.9284 28.2368 54.4196 27.66C53.9108 27.0831 53.6209 26.3669 53.439 25.6468C53.4104 25.7678 53.3798 25.8936 53.3004 25.9924C53.2835 26.0136 53.2581 26.0359 53.2285 26.032C53.2073 26.0291 53.1925 26.0117 53.1862 25.9943C53.1798 25.9759 53.1809 25.9565 53.1819 25.9372C53.1894 25.8278 53.2042 25.7194 53.1428 25.6333C52.6499 26.3863 51.9316 27.0522 51.0219 27.3309C50.1439 27.6 49.1505 27.4771 48.3339 27.0773C47.5173 26.6776 46.872 26.0195 46.4245 25.2752C46.4245 25.3749 46.4256 25.4765 46.397 25.5723C46.3917 25.5907 46.3843 25.61 46.3706 25.6246C46.3568 25.6391 46.3346 25.6488 46.3145 25.6449C46.2806 25.6371 46.269 25.5994 46.2648 25.5675C46.251 25.4678 46.2468 25.3661 46.2214 25.3003C46.0627 25.7039 45.8638 26.1027 45.5518 26.4231C45.2408 26.7444 44.7965 26.9225 44.3363 26.9225C43.8762 26.9225 43.4329 26.7444 43.1209 26.4231C42.8099 26.1027 42.61 25.7039 42.4513 25.3003C42.4248 25.3661 42.4217 25.4678 42.4079 25.5675C42.4037 25.5994 42.392 25.6371 42.3582 25.6449C42.337 25.6497 42.3159 25.6391 42.3021 25.6246C42.2884 25.61 42.281 25.5907 42.2757 25.5723C42.2471 25.4765 42.2471 25.3749 42.2482 25.2752C41.8007 26.0185 41.1554 26.6776 40.3388 27.0773C39.5221 27.4771 38.5288 27.6 37.6508 27.3309C36.7411 27.0522 36.0239 26.3863 35.5299 25.6333C35.4685 25.7194 35.4833 25.8278 35.4907 25.9372C35.4918 25.9565 35.4928 25.9759 35.4865 25.9943C35.4801 26.0127 35.4643 26.0291 35.4442 26.032C35.4156 26.0369 35.3902 26.0146 35.3722 25.9924C35.2919 25.8927 35.2612 25.7678 35.2337 25.6468C35.0517 26.3669 34.7619 27.0822 34.2531 27.66C33.7442 28.2368 32.9964 28.6637 32.1871 28.7024C31.3937 28.7411 30.6035 28.3965 30.081 27.8487C29.5584 27.3009 29.2939 26.5682 29.2834 25.8414C29.5214 26.3998 29.7826 26.9941 30.2037 27.4935C30.6247 27.9929 31.2308 28.3936 31.9163 28.4575C32.5404 28.5156 33.172 28.2852 33.6469 27.9107C34.1219 27.5351 34.453 27.026 34.6804 26.4908C34.9079 25.9556 35.038 25.3913 35.1871 24.8232C35.514 25.3119 35.844 25.8046 36.2651 26.2285C36.685 26.6534 37.2065 27.0125 37.8095 27.1683C38.734 27.4083 39.7781 27.1635 40.5599 26.6515C41.3416 26.1395 41.9541 25.4174 42.4333 24.6257C42.5549 25.0593 42.7422 25.4774 42.9865 25.8656C43.1315 26.094 43.2997 26.3156 43.5271 26.4782C43.7545 26.6418 44.0423 26.725 44.3363 26.725C44.6304 26.725 44.9181 26.6418 45.1456 26.4782C45.373 26.3156 45.5412 26.094 45.6861 25.8656C45.9316 25.4784 46.1188 25.0593 46.2394 24.6257C46.7186 25.4174 47.3311 26.1395 48.1128 26.6515C48.8945 27.1635 49.9386 27.4083 50.8632 27.1683C51.4661 27.0115 51.9877 26.6534 52.4076 26.2285C52.8276 25.8036 53.1576 25.3119 53.4855 24.8232C53.6347 25.3903 53.7648 25.9556 53.9922 26.4908C54.2197 27.026 54.5508 27.5351 55.0258 27.9107C55.5007 28.2862 56.1322 28.5156 56.7564 28.4575C57.4418 28.3936 58.048 27.9929 58.469 27.4935C58.89 26.9941 59.1513 26.3998 59.3893 25.8414C59.3787 26.5682 59.1143 27.3009 58.5917 27.8487ZM63.17 14.3654C63.4768 13.2252 64.2681 12.2709 65.3164 11.697C64.486 12.5109 63.6164 13.3336 63.17 14.3654Z" fill="#FFB930"/>
<path d="M21.2246 56.5702L28.0371 64.5293L28.04 64.5333L34.5572 70.4298L44.618 77.8567L54.7378 70.4351L54.7408 70.4324L61.2358 64.5562H61.2432L61.3421 64.45L61.3377 64.442L68.0763 56.5689L61.3702 46.4558L62.5573 45.3821L57.6317 38.6365L52.6087 37.4405L46.8091 34.8162H42.4919L36.6922 37.4405L31.6692 38.6365L26.7437 45.3821L27.9293 46.4558L21.2541 56.5219L21.2231 56.5676L21.2246 56.5702ZM37.3847 46.0312L38.0698 46.9033L36.2773 48.5682L33.2181 47.7646L37.3847 46.0298V46.0312ZM30.646 48.6622L29.2522 46.0258L30.3877 43.6285L36.9639 46.0312L30.646 48.6609V48.6622ZM38.1717 47.0336L43.9551 51.0246L43.202 56.2034L33.4838 51.4814L33.4632 51.4089L38.1702 47.035L38.1717 47.0336ZM38.3016 46.9261L43.2124 45.757L44.5604 46.8656L43.9816 50.8445L38.3016 46.9261ZM51.1824 47.0417L51.1928 47.035L53.6113 49.2804L53.6172 49.3193L53.6585 49.3247L55.8555 51.3659L46.1653 56.2182L45.4094 51.0246L51.181 47.043L51.1824 47.0417ZM45.3843 50.8432L44.8055 46.8643L46.1535 45.7557L51.0643 46.9248L45.3843 50.8432ZM56.638 48.0213L53.6954 49.1312L51.2961 46.9019L51.8764 46.1629L56.638 48.0213ZM52.2765 46.1481L59.2411 43.6272L60.2436 45.6684L58.7169 48.6622L52.2765 46.1481ZM57.4811 56.6025L52.2677 62.2181L55.9913 51.6602L57.4811 56.6025ZM56.1316 51.5271L67.5212 56.3673L57.6066 56.4251L56.1301 51.5285L56.1316 51.5271ZM55.8496 51.5486L51.9989 62.464L46.7456 60.146V60.142L46.7353 60.1352L46.1904 56.3835L55.8496 51.5473V51.5486ZM37.3493 62.679L37.4201 62.5661L37.4157 62.5621L42.5642 60.3435L41.9013 62.6951L41.947 62.7851L44.5914 63.9622L44.4659 66.0007L41.7728 69.6544L37.3478 62.6776L37.3493 62.679ZM41.603 69.7028L34.8053 66.7089L37.2503 62.8375L41.603 69.7028ZM44.5545 66.1647L47.4927 69.821L44.683 71.0586L41.8658 69.817V69.813L44.5545 66.1633V66.1647ZM44.6401 66.0034L44.7656 63.9676L47.4189 62.7851L47.4647 62.6951L46.8032 60.3449L51.9325 62.6091L47.6285 69.7203L44.6416 66.0034H44.6401ZM52.0536 62.7354L54.5621 66.7075L47.8633 69.6584L52.0536 62.7354ZM47.2801 62.6723L44.6844 63.8279L42.0888 62.6723L42.7739 60.24H46.595L47.2801 62.6723ZM42.6321 60.1352L42.6233 60.142V60.1446L37.3035 62.4371L37.1706 62.2947L34.7684 56.0045L33.5444 51.687L43.1799 56.3687L42.6321 60.1366V60.1352ZM34.6015 56.0462L36.8591 61.9587L31.8878 56.6038L33.3687 51.6924L34.603 56.0475L34.6015 56.0462ZM31.7608 56.4238H21.7842L33.2284 51.5312L33.2358 51.5352L31.7623 56.4251L31.7608 56.4238ZM31.78 56.7315L37.0171 62.3726L37.0717 62.5164L28.2527 64.3667L31.78 56.7302V56.7315ZM28.2792 64.5239L37.1426 62.6642L37.1514 62.679L34.6104 66.7035L33.1546 68.9368L28.2792 64.5253V64.5239ZM34.6783 70.3142L33.2816 69.0511L34.7197 66.8446L37.8779 68.2354L36.3275 71.5316L34.6783 70.3142ZM36.4678 71.6351L38.0344 68.3039L41.6104 69.8788L41.5868 69.9111L41.6547 69.9527L40.0335 74.2662L36.4678 71.6338V71.6351ZM44.6195 77.6524L40.1767 74.3737L41.8289 69.9756L44.646 71.2172L44.6844 71.2333L47.599 69.95L47.6093 69.9635L49.0932 74.3723L44.6195 77.6524ZM49.2379 74.2648L47.7747 69.9137L47.7821 69.9097L47.7673 69.8923L47.7629 69.8788L51.3345 68.3053L52.8272 71.6351L49.2394 74.2662L49.2379 74.2648ZM54.6256 70.3142L52.966 71.5303L51.4895 68.2354L54.6433 66.846L55.8939 69.1653L54.6256 70.3128V70.3142ZM56.0238 69.0484L54.7998 66.7774L54.8042 66.7747L52.2248 62.6911L61.035 64.5132L56.0224 69.0484H56.0238ZM52.2101 62.5271L57.5904 56.7328L61.1177 64.3694L52.2101 62.5271ZM67.8682 56.5568L61.2624 64.274L57.7085 56.5797L67.8446 56.5219L67.8682 56.5568ZM67.6674 56.2545L56.0504 51.3189L53.939 49.357L63.8831 50.5489L67.6659 56.2545H67.6674ZM63.7695 50.3769L53.9612 49.2011L56.8211 48.1234L56.8049 48.0871L58.8055 48.8678L59.7357 47.0457L61.1959 46.4975L63.7695 50.3782V50.3769ZM62.3343 45.3606L61.2919 46.304L61.286 46.2919L59.842 46.8334L60.4356 45.6697L59.3326 43.4256L51.9192 46.1091L57.5963 38.8757L62.3328 45.362L62.3343 45.3606ZM57.4737 38.7601L51.1736 46.7877L48.0213 46.0365L52.5969 37.5978L57.4752 38.7588L57.4737 38.7601ZM52.436 37.5373L47.85 45.9962L46.2436 45.6133L49.7119 36.3037L52.436 37.5359V37.5373ZM46.7678 34.9734L49.5539 36.2338L46.0546 45.624L44.7775 46.6748L44.7686 46.6157V34.9734H46.7678ZM46.5537 60.0828H42.8137L44.683 47.2244L46.5537 60.0828ZM42.5332 34.9734H44.5973V46.6157L44.5885 46.6748L43.3128 45.6254L40.1782 36.039L42.5332 34.9734ZM36.7542 37.5883L40.0202 36.1102L43.1282 45.6133L41.5203 45.9962L37.2858 37.4217L37.1278 37.4862L41.352 46.0365L38.1953 46.7877L31.8848 38.7467L36.7557 37.587L36.7542 37.5883ZM26.9666 45.362L31.7357 38.8313L37.3699 46.0097L30.2961 43.4256L29.0633 46.0298L29.4589 46.7783L28.1493 46.4343L26.9666 45.3633V45.362ZM28.108 46.4921L28.0799 46.5794L29.5579 46.9678L30.5634 48.8705L32.9759 47.8667L35.8861 48.6313L25.5374 50.3702L28.108 46.4934V46.4921ZM25.4178 50.5489L36.0721 48.759L33.3155 51.3202L33.2299 51.3565L33.1457 51.3148L33.0837 51.4183L21.579 56.3378L25.4178 50.5489ZM31.6574 56.5823L28.0814 64.3251L21.4535 56.5823H31.6574Z" fill="#FFC125"/>
</svg>
