<svg aria-hidden="true" style="position: absolute; width: 0; height: 0; overflow: hidden;" version="1.1" xmlns="http://www.w3.org/2000/svg" xmlns:xlink="http://www.w3.org/1999/xlink">
<defs>

<symbol id="icon_burger" viewBox="0 0 54 32">
<path fill="#febb12" style="fill: var(--color1, #febb12)" d="M2.526 0h48.842c1.395 0 2.526 1.131 2.526 2.526s-1.131 2.526-2.526 2.526h-48.842c-1.395 0-2.526-1.131-2.526-2.526s1.131-2.526 2.526-2.526z"></path>
<path fill="#febb12" style="fill: var(--color1, #febb12)" d="M24.421 13.474h26.947c1.395 0 2.526 1.131 2.526 2.526s-1.131 2.526-2.526 2.526h-26.947c-1.395 0-2.526-1.131-2.526-2.526s1.131-2.526 2.526-2.526z"></path>
<path fill="#febb12" style="fill: var(--color1, #febb12)" d="M2.526 26.947h48.842c1.395 0 2.526 1.131 2.526 2.526s-1.131 2.526-2.526 2.526h-48.842c-1.395 0-2.526-1.131-2.526-2.526s1.131-2.526 2.526-2.526z"></path>
</symbol>

<symbol id="icon_logo_bg_black_small" viewBox="0 0 29 32">
<path fill="#161616" style="fill: var(--color2, #161616)" d="M14.176 1.61c-3.559 2.392-8.061 3.849-12.966 3.922 0.442 14.496 12.966 24.27 12.966 24.27s12.525-9.774 12.966-24.27c-4.906-0.072-9.407-1.528-12.966-3.922z"></path>
<path fill="none" stroke="#d69923" style="stroke: var(--color3, #d69923)" stroke-linejoin="miter" stroke-linecap="butt" stroke-miterlimit="10" stroke-width="0.6809" d="M7.468 23.736c3.195 4.284 6.018 6.711 6.149 6.813s0.681 0.43 0.681 0.43c0 0 0.428-0.306 0.559-0.408s3.076-2.551 6.271-6.834c2.958-3.964 6.533-10.301 6.767-17.972l0.021-0.667-0.668-0.011c-4.634-0.069-8.985-1.388-12.582-3.816l-0.368-0.249-0.368 0.249c-3.597 2.428-7.949 3.747-12.582 3.816l-0.667 0.011 0.021 0.667c0.234 7.671 3.808 14.008 6.767 17.972z"></path>
<path fill="#d69923" style="fill: var(--color3, #d69923)" d="M19.448 5.547c0.009 0.129 0.002 0.269-0.045 0.395 0.019-0.133 0.005-0.274-0.042-0.404-0.020-0.056-0.048-0.111-0.096-0.145-0.067-0.047-0.162-0.038-0.229 0.009s-0.107 0.125-0.12 0.206c0.093-0.009 0.196 0.043 0.256 0.127s0.077 0.199 0.043 0.297c-0.006-0.061-0.033-0.125-0.077-0.177s-0.106-0.091-0.174-0.097-0.14 0.027-0.173 0.087c0.133 0.040 0.247 0.146 0.311 0.277s0.079 0.286 0.039 0.427c-0.004-0.161-0.045-0.336-0.147-0.477-0.029-0.039-0.064-0.074-0.102-0.103-0.043-0.034-0.098-0.066-0.155-0.060-0.052 0.005-0.097 0.043-0.124 0.088s-0.040 0.097-0.052 0.148c0.171 0.064 0.297 0.237 0.337 0.425s0 0.386-0.080 0.559c-0.080 0.174-0.199 0.327-0.325 0.471s-0.26 0.282-0.375 0.435c0.106-0.312 0.264-0.606 0.458-0.872-0.347 0.217-0.593 0.571-0.767 0.949s-0.279 0.783-0.382 1.187c-0.036-0.049-0.103-0.076-0.171-0.080-0.036-0.002-0.072 0.005-0.103 0.024-0.099 0.060-0.086 0.187-0.060 0.289 0.032 0.129 0.077 0.257 0.152 0.366s0.184 0.2 0.313 0.231c0.116 0.028 0.243 0.005 0.342-0.062s0.168-0.177 0.185-0.295c-0.080-0.003-0.164-0.092-0.186-0.188s0.004-0.196 0.030-0.29c0.088-0.31 0.194-0.617 0.362-0.892s0.4-0.516 0.691-0.652c-0.126 0.085-0.219 0.239-0.275 0.4s-0.079 0.332-0.105 0.501c-0.075 0.481-0.189 0.977-0.496 1.354-0.092 0.113-0.209 0.218-0.352 0.243-0.109 0.019-0.221-0.011-0.319-0.062-0.228-0.121-0.379-0.358-0.436-0.61s-0.036-0.518 0.036-0.766c0.055-0.192 0.172-0.361 0.304-0.508 0.073-0.082 0.154-0.159 0.212-0.252 0.027-0.042 0.048-0.089 0.061-0.137-0.189 0.086-0.355 0.224-0.479 0.381 0.119-0.197 0.291-0.362 0.493-0.472 0.001-0.029-0.002-0.058-0.010-0.086-0.124 0.039-0.262 0.107-0.388 0.193 0.049-0.201 0.102-0.398 0.189-0.582s0.21-0.352 0.374-0.472c0.051-0.037 0.106-0.070 0.168-0.081s0.13 0.001 0.176 0.044c0.058 0.056 0.066 0.145 0.068 0.225 0.044-0.101 0.072-0.199 0.064-0.298s-0.062-0.2-0.154-0.237c-0.062-0.024-0.133-0.016-0.196 0.006-0.105 0.037-0.194 0.11-0.275 0.187-0.156 0.15-0.29 0.325-0.396 0.514 0.068-0.148 0.14-0.298 0.232-0.435s0.208-0.262 0.35-0.346c0.142-0.084 0.314-0.123 0.476-0.089 0.045-0.069 0.048-0.177-0.008-0.252-0.041-0.055-0.109-0.085-0.177-0.092s-0.137 0.008-0.202 0.031c-0.142 0.049-0.27 0.132-0.384 0.23s-0.215 0.21-0.314 0.322c0.13-0.215 0.278-0.403 0.446-0.569 0.078-0.077 0.162-0.15 0.259-0.2s0.211-0.073 0.318-0.048c0.020-0.053 0.024-0.108 0.010-0.16s-0.047-0.1-0.094-0.125c-0.051-0.027-0.114-0.025-0.169-0.006s-0.103 0.053-0.149 0.088c-0.202 0.154-0.385 0.34-0.502 0.565 0.122-0.325 0.36-0.606 0.658-0.788-0.072-0.020-0.141-0.046-0.207-0.081-0.075 0.057-0.138 0.129-0.186 0.211-0.125-0.134-0.209-0.295-0.246-0.467-0.064 0.144-0.172 0.27-0.302 0.365 0.084 0.173 0.139 0.359 0.154 0.548-0.066-0.169-0.131-0.344-0.218-0.508-0.042-0.080-0.091-0.158-0.161-0.215s-0.166-0.088-0.252-0.062c-0.061 0.018-0.112 0.064-0.141 0.121s-0.037 0.123-0.026 0.186c0.104 0.010 0.216 0.051 0.305 0.123s0.153 0.173 0.18 0.284c0.006 0.024 0.010 0.052-0.005 0.072-0.017 0.024-0.054 0.026-0.081 0.013s-0.046-0.037-0.066-0.060c-0.053-0.061-0.114-0.115-0.182-0.16-0.088-0.058-0.191-0.103-0.299-0.084-0.027 0.005-0.054 0.014-0.079 0.028-0.122 0.072-0.119 0.208-0.103 0.327 0.087-0.049 0.194-0.042 0.281-0.002s0.159 0.109 0.22 0.183c0.186 0.227 0.289 0.515 0.325 0.807s0.005 0.589-0.054 0.877c-0.057 0.274-0.142 0.547-0.297 0.78s-0.387 0.423-0.659 0.484c-0.266 0.059-0.547-0.011-0.79-0.136-0.501-0.259-0.868-0.763-0.961-1.321s0.091-1.155 0.481-1.562c0.077-0.080 0.164-0.155 0.269-0.194s0.23-0.034 0.318 0.034c0.057-0.164 0.049-0.372-0.137-0.445-0.031-0.012-0.065-0.018-0.098-0.018-0.14-0.001-0.257 0.073-0.361 0.156-0.206 0.163-0.381 0.366-0.513 0.593 0.102-0.32 0.301-0.606 0.561-0.816 0.059-0.047 0.121-0.091 0.191-0.118s0.15-0.033 0.221-0.007c0.015-0.075 0.013-0.151-0.014-0.221s-0.079-0.131-0.148-0.158c-0.070-0.027-0.15-0.017-0.218 0.014s-0.126 0.080-0.181 0.131c-0.192 0.183-0.349 0.404-0.458 0.646 0.097-0.317 0.255-0.6 0.459-0.845-0.043-0.173-0.191-0.28-0.344-0.277-0.124 0.003-0.243 0.079-0.303 0.187-0.061-0.108-0.179-0.184-0.304-0.187-0.153-0.003-0.301 0.104-0.344 0.277 0.204 0.245 0.363 0.528 0.459 0.845-0.109-0.243-0.265-0.463-0.458-0.646-0.054-0.052-0.112-0.101-0.181-0.131s-0.148-0.041-0.218-0.014c-0.069 0.027-0.121 0.088-0.148 0.158s-0.029 0.146-0.014 0.221c0.070-0.027 0.15-0.020 0.221 0.007s0.133 0.070 0.192 0.118c0.26 0.21 0.459 0.495 0.561 0.816-0.132-0.228-0.307-0.43-0.513-0.593-0.104-0.083-0.221-0.158-0.361-0.156-0.033 0-0.067 0.006-0.098 0.018-0.186 0.073-0.194 0.282-0.137 0.445 0.088-0.068 0.213-0.072 0.318-0.034s0.192 0.113 0.269 0.194c0.39 0.408 0.574 1.005 0.481 1.562s-0.46 1.062-0.961 1.321c-0.242 0.125-0.524 0.195-0.79 0.136-0.272-0.060-0.505-0.251-0.659-0.484s-0.24-0.506-0.297-0.78c-0.060-0.288-0.089-0.585-0.054-0.877s0.139-0.58 0.325-0.807c0.061-0.075 0.132-0.144 0.22-0.183s0.194-0.047 0.281 0.002c0.016-0.119 0.019-0.255-0.103-0.327-0.024-0.014-0.051-0.024-0.079-0.028-0.109-0.019-0.212 0.025-0.3 0.084-0.067 0.045-0.129 0.099-0.182 0.16-0.020 0.022-0.039 0.047-0.065 0.060s-0.064 0.011-0.081-0.013c-0.015-0.020-0.011-0.048-0.005-0.072 0.027-0.111 0.091-0.213 0.18-0.284s0.201-0.113 0.305-0.123c0.011-0.063 0.003-0.129-0.026-0.186s-0.080-0.102-0.141-0.121c-0.086-0.026-0.182 0.005-0.252 0.062s-0.119 0.135-0.161 0.215c-0.087 0.165-0.152 0.34-0.218 0.508 0.014-0.189 0.069-0.375 0.154-0.548-0.131-0.095-0.239-0.221-0.303-0.365-0.037 0.171-0.121 0.332-0.246 0.467-0.048-0.081-0.111-0.153-0.186-0.211-0.065 0.035-0.135 0.061-0.207 0.081 0.298 0.183 0.536 0.463 0.658 0.788-0.117-0.226-0.3-0.412-0.502-0.565-0.046-0.035-0.095-0.069-0.149-0.088s-0.118-0.022-0.169 0.006c-0.047 0.025-0.080 0.073-0.094 0.125s-0.010 0.107 0.010 0.16c0.106-0.026 0.22-0.002 0.318 0.048s0.181 0.123 0.259 0.2c0.168 0.166 0.315 0.353 0.446 0.569-0.1-0.112-0.201-0.224-0.314-0.322s-0.242-0.181-0.384-0.23c-0.065-0.022-0.133-0.037-0.202-0.031s-0.136 0.037-0.177 0.092c-0.056 0.075-0.053 0.183-0.008 0.252 0.161-0.035 0.333 0.005 0.476 0.089s0.257 0.209 0.35 0.346c0.093 0.137 0.164 0.287 0.232 0.435-0.105-0.19-0.24-0.364-0.396-0.514-0.081-0.078-0.17-0.15-0.275-0.187-0.063-0.022-0.134-0.031-0.196-0.006-0.092 0.036-0.145 0.138-0.154 0.237s0.020 0.196 0.064 0.298c0.003-0.080 0.010-0.169 0.068-0.225 0.045-0.043 0.114-0.056 0.176-0.044s0.117 0.044 0.168 0.081c0.163 0.12 0.286 0.289 0.374 0.472s0.14 0.381 0.189 0.582c-0.126-0.086-0.264-0.153-0.388-0.193-0.008 0.028-0.011 0.057-0.010 0.086 0.202 0.111 0.374 0.275 0.493 0.472-0.124-0.158-0.29-0.295-0.479-0.381 0.013 0.048 0.034 0.095 0.061 0.137 0.058 0.093 0.139 0.17 0.212 0.252 0.132 0.148 0.249 0.317 0.304 0.508 0.071 0.248 0.093 0.515 0.036 0.766s-0.209 0.489-0.436 0.61c-0.098 0.052-0.21 0.081-0.319 0.062-0.143-0.025-0.26-0.129-0.352-0.243-0.307-0.377-0.421-0.873-0.496-1.354-0.027-0.169-0.049-0.34-0.105-0.501s-0.149-0.315-0.275-0.4c0.291 0.136 0.524 0.377 0.691 0.652s0.274 0.582 0.362 0.892c0.027 0.095 0.052 0.194 0.030 0.29s-0.106 0.185-0.186 0.188c0.018 0.118 0.086 0.228 0.185 0.295s0.226 0.090 0.342 0.062c0.129-0.031 0.238-0.121 0.313-0.231s0.119-0.237 0.152-0.366c0.026-0.102 0.038-0.23-0.060-0.289-0.031-0.019-0.067-0.026-0.103-0.024-0.068 0.003-0.136 0.031-0.171 0.080-0.102-0.403-0.208-0.809-0.382-1.187s-0.42-0.732-0.767-0.949c0.194 0.267 0.352 0.561 0.458 0.872-0.115-0.153-0.249-0.29-0.375-0.435s-0.245-0.297-0.325-0.471c-0.080-0.174-0.12-0.372-0.080-0.559s0.166-0.361 0.337-0.425c-0.012-0.051-0.025-0.103-0.052-0.148s-0.071-0.082-0.124-0.088c-0.057-0.006-0.112 0.027-0.155 0.060-0.038 0.030-0.073 0.064-0.102 0.103-0.102 0.14-0.143 0.316-0.147 0.477-0.039-0.141-0.025-0.296 0.039-0.427s0.178-0.237 0.311-0.277c-0.032-0.060-0.105-0.092-0.173-0.087s-0.13 0.045-0.174 0.097-0.072 0.116-0.077 0.177c-0.034-0.098-0.018-0.213 0.043-0.297s0.164-0.136 0.256-0.127c-0.014-0.080-0.054-0.159-0.12-0.206s-0.162-0.055-0.229-0.009c-0.048 0.034-0.076 0.090-0.096 0.145-0.046 0.129-0.061 0.27-0.042 0.404-0.046-0.126-0.053-0.265-0.045-0.395-0.407-0.48-0.917-0.872-1.484-1.121 0.301 0.258 0.587 0.54 0.793 0.88s0.326 0.742 0.284 1.149c0.030-0.057 0.107-0.078 0.168-0.057s0.106 0.073 0.135 0.131c0.029 0.058 0.043 0.121 0.061 0.183 0.065 0.223 0.184 0.43 0.344 0.598 0.21 0.22 0.483 0.369 0.708 0.573 0.311 0.28 0.526 0.666 0.595 1.083-0.121-0.307-0.246-0.62-0.462-0.868-0.334-0.384-0.862-0.588-1.11-1.033-0.072-0.129-0.116-0.273-0.193-0.399-0.035-0.057-0.087-0.115-0.158-0.1-0.032 0.007-0.060 0.030-0.077 0.058-0.036 0.060-0.029 0.131-0.014 0.196 0.054 0.231 0.207 0.437 0.419 0.542-0.026 0.178-0.013 0.361 0.049 0.516 0.097-0.021 0.2 0.027 0.267 0.101s0.101 0.172 0.124 0.269c0.044 0.193 0.044 0.396-0.008 0.596-0.206-0.43-0.552-0.792-0.957-1.001 0.704 0.796 1.205 1.77 1.473 2.825 0.051-0.079 0.155-0.116 0.246-0.095s0.166 0.096 0.195 0.185c0.029 0.089 0.015 0.19-0.030 0.272s-0.12 0.146-0.203 0.199c0.146-0.077 0.337-0.060 0.468 0.042s0.194 0.284 0.155 0.445c-0.039 0.161-0.177 0.294-0.337 0.326-0.032 0.227 0.031 0.466 0.169 0.645 0 0-0.015 0.142 0.11 0.095-0.053 0.046-0.051 0.13 0.005 0.172 0.002 0.001 0.004 0.003 0.005 0.004 0.044 0.032 0.105 0.023 0.143-0.016 0.006-0.006 0.012-0.011 0.018-0.017 0.011 0.053 0.053 0.149 0.207 0.213 0.223 0.092 1.14 0.41 3.473 0.41s3.25-0.319 3.473-0.41c0.154-0.063 0.196-0.16 0.207-0.213 0.006 0.006 0.012 0.011 0.018 0.017 0.038 0.039 0.099 0.048 0.143 0.016 0.002-0.001 0.004-0.003 0.005-0.004 0.056-0.042 0.057-0.127 0.005-0.172 0.125 0.047 0.11-0.095 0.11-0.095 0.138-0.179 0.201-0.418 0.169-0.645-0.16-0.032-0.299-0.165-0.337-0.326s0.025-0.343 0.155-0.445c0.131-0.102 0.321-0.119 0.468-0.042-0.082-0.054-0.157-0.117-0.203-0.199s-0.059-0.183-0.030-0.272c0.029-0.089 0.104-0.164 0.195-0.185s0.195 0.016 0.246 0.095c0.268-1.054 0.769-2.029 1.473-2.825-0.406 0.209-0.751 0.571-0.957 1.001-0.053-0.199-0.053-0.403-0.009-0.596 0.022-0.097 0.058-0.195 0.124-0.269s0.17-0.122 0.267-0.101c0.063-0.155 0.076-0.338 0.049-0.516 0.212-0.105 0.366-0.311 0.419-0.542 0.015-0.065 0.022-0.136-0.014-0.196-0.017-0.029-0.045-0.051-0.077-0.058-0.072-0.015-0.123 0.043-0.158 0.1-0.077 0.126-0.121 0.27-0.193 0.399-0.247 0.445-0.776 0.649-1.11 1.033-0.216 0.249-0.341 0.561-0.462 0.868 0.069-0.418 0.284-0.803 0.595-1.083 0.226-0.204 0.498-0.352 0.708-0.573 0.16-0.168 0.279-0.375 0.344-0.598 0.018-0.062 0.032-0.125 0.061-0.183s0.074-0.11 0.135-0.131c0.061-0.020 0.138 0 0.168 0.057-0.042-0.408 0.078-0.81 0.284-1.149s0.492-0.622 0.793-0.88c-0.567 0.25-1.077 0.641-1.484 1.121h-0.005zM7.376 4.86c0.324 0.194 0.569 0.519 0.664 0.906-0.138-0.35-0.407-0.629-0.664-0.906zM15.001 9.49c0.161 0.125 0.358 0.21 0.562 0.214 0.208 0.004 0.412-0.076 0.578-0.201s0.297-0.292 0.403-0.472c-0.068 0.212-0.198 0.408-0.375 0.554s-0.402 0.237-0.631 0.231c-0.218-0.006-0.43-0.101-0.593-0.247s-0.278-0.341-0.347-0.549c0.113 0.182 0.242 0.345 0.403 0.47l-0 0zM13.869 8.395c0 0 0.302 0.312 0.302 0.625s-0.162 0.442-0.28 0.442h-0.045c-0.118 0-0.28-0.128-0.28-0.442s0.302-0.625 0.302-0.625zM11.596 9.504c0.166 0.125 0.37 0.205 0.578 0.201 0.204-0.004 0.4-0.090 0.562-0.214s0.29-0.287 0.403-0.47c-0.069 0.208-0.185 0.403-0.347 0.549s-0.375 0.241-0.593 0.247c-0.229 0.006-0.454-0.085-0.631-0.231s-0.307-0.343-0.375-0.554c0.105 0.179 0.236 0.347 0.403 0.472l-0-0zM9.811 11.055c-0.008-0.104 0.076-0.195 0.171-0.238s0.201-0.050 0.302-0.073c0.304-0.071 0.567-0.302 0.677-0.595 0.019-0.050 0.034-0.102 0.062-0.148s0.073-0.084 0.126-0.089c0.102-0.010 0.169 0.099 0.234 0.179 0.17 0.208 0.461 0.274 0.729 0.268 0.227-0.005 0.455-0.055 0.655-0.162s0.371-0.276 0.489-0.488c0.024 0.147 0.111 0.282 0.235 0.363 0.041 0.027 0.087 0.050 0.111 0.093 0.020 0.037 0.018 0.086-0.006 0.122s-0.067 0.041-0.12 0.045c-1.201 0.089-2.53 0.182-3.665 0.723l0 0.001zM14.33 10.985c-0.023 0.161-0.134 0.307-0.284 0.369-0.145 0.060-0.318 0.040-0.451-0.043s-0.228-0.226-0.235-0.378c-0.005-0.106 0.028-0.213 0.090-0.298s0.153-0.149 0.254-0.179c0.155-0.047 0.333-0.011 0.457 0.094s0.191 0.275 0.168 0.436l-0-0zM14.482 11.8c0.569 0.031 1.16 0.070 1.736 0.193 0.345 0.074 0.686 0.18 1.005 0.329 0.098 0.050 0.034 0.145-0.048 0.103-0.002-0.001-0.003-0.001-0.005-0.002-0.314-0.152-0.658-0.251-1.003-0.312-0.599-0.107-1.21-0.115-1.815-0.175-0.054-0.005-0.109-0.011-0.156-0.037-0.061-0.034-0.106-0.109-0.061-0.177 0.029-0.046 0.085-0.065 0.139-0.058 0.087 0.011 0.151 0.076 0.209 0.138zM13.543 11.897c-0.047 0.026-0.102 0.032-0.156 0.037-0.605 0.060-1.217 0.068-1.815 0.175-0.345 0.062-0.689 0.16-1.003 0.312-0.002 0.001-0.003 0.001-0.005 0.002-0.083 0.042-0.147-0.053-0.048-0.103 0.319-0.149 0.66-0.256 1.005-0.329 0.576-0.123 1.166-0.162 1.736-0.193 0.059-0.062 0.123-0.127 0.209-0.138 0.054-0.007 0.11 0.012 0.139 0.058 0.044 0.069-0.001 0.144-0.062 0.177zM10.242 11.288c-0.060 0.002-0.12-0.039-0.137-0.097s0.008-0.126 0.059-0.157c0.052-0.031 0.124-0.021 0.191 0.030 0.847-0.309 1.79-0.465 2.689-0.461 0.063-0.038 0.127-0.071 0.213-0.048 0.028 0.008 0.057 0.021 0.074 0.045 0.024 0.035 0.017 0.085-0.010 0.117s-0.069 0.049-0.111 0.053c-0.059 0.006-0.12-0.012-0.164-0.040-0.9-0.009-1.802 0.143-2.65 0.446-0.038 0.064-0.093 0.11-0.154 0.112zM13.869 13.382c-1.72 0-3.548-0.184-3.548-0.526 0-0.197 0.578-0.337 1.064-0.419 0.696-0.118 1.579-0.183 2.485-0.183s1.788 0.065 2.485 0.183c0.485 0.082 1.064 0.222 1.064 0.419 0 0.341-1.828 0.526-3.548 0.526zM17.633 11.191c-0.018 0.058-0.077 0.099-0.138 0.097s-0.116-0.048-0.154-0.112c-0.848-0.303-1.749-0.455-2.65-0.446-0.045 0.029-0.105 0.046-0.164 0.040-0.042-0.004-0.084-0.020-0.111-0.053s-0.034-0.083-0.010-0.117c0.017-0.024 0.046-0.037 0.074-0.045 0.086-0.023 0.151 0.010 0.213 0.048 0.899-0.004 1.842 0.151 2.689 0.461 0.067-0.051 0.139-0.061 0.191-0.030s0.077 0.099 0.059 0.157zM17.927 11.055c-1.135-0.541-2.464-0.634-3.665-0.723-0.053-0.004-0.097-0.010-0.12-0.045s-0.026-0.084-0.006-0.122c0.024-0.043 0.070-0.066 0.111-0.093 0.124-0.081 0.212-0.216 0.235-0.363 0.118 0.213 0.289 0.381 0.489 0.489s0.428 0.157 0.655 0.162c0.268 0.006 0.559-0.060 0.729-0.268 0.065-0.080 0.132-0.188 0.234-0.179 0.053 0.005 0.098 0.044 0.126 0.089s0.043 0.098 0.062 0.148c0.11 0.293 0.373 0.524 0.677 0.595 0.101 0.024 0.207 0.031 0.302 0.073s0.179 0.134 0.171 0.238v-0.001zM18.28 10.342c-0.162 0.186-0.406 0.303-0.652 0.29-0.25-0.013-0.482-0.158-0.639-0.354s-0.247-0.439-0.304-0.683c-0.009 0.041-0.018 0.084-0.043 0.117-0.005 0.007-0.013 0.015-0.022 0.013-0.007-0.001-0.011-0.007-0.013-0.013s-0.002-0.013-0.001-0.019c0.002-0.037 0.007-0.074-0.012-0.103-0.153 0.256-0.375 0.482-0.656 0.576-0.272 0.091-0.579 0.050-0.832-0.086s-0.452-0.359-0.591-0.612c0 0.034 0 0.068-0.008 0.101-0.002 0.006-0.004 0.013-0.008 0.018s-0.011 0.008-0.017 0.007c-0.011-0.003-0.014-0.015-0.015-0.026-0.004-0.034-0.006-0.068-0.013-0.091-0.049 0.137-0.111 0.272-0.207 0.381s-0.234 0.17-0.376 0.17c-0.142 0-0.28-0.060-0.376-0.17s-0.158-0.244-0.207-0.381c-0.008 0.022-0.009 0.057-0.013 0.091-0.001 0.011-0.005 0.024-0.015 0.026-0.007 0.002-0.013-0.002-0.017-0.007s-0.007-0.011-0.008-0.018c-0.009-0.032-0.009-0.067-0.008-0.101-0.139 0.252-0.338 0.476-0.591 0.612s-0.56 0.177-0.832 0.086c-0.282-0.095-0.504-0.321-0.656-0.576-0.019 0.029-0.014 0.066-0.012 0.103 0 0.007 0.001 0.013-0.001 0.019s-0.007 0.012-0.013 0.013c-0.009 0.002-0.017-0.006-0.022-0.013-0.025-0.034-0.034-0.076-0.043-0.117-0.056 0.244-0.146 0.487-0.303 0.683s-0.389 0.341-0.639 0.354c-0.245 0.013-0.49-0.104-0.652-0.29s-0.244-0.435-0.247-0.681c0.074 0.19 0.155 0.391 0.285 0.561s0.318 0.306 0.53 0.327c0.193 0.020 0.389-0.059 0.536-0.186s0.249-0.3 0.32-0.482 0.111-0.373 0.157-0.566c0.101 0.166 0.203 0.333 0.334 0.477s0.291 0.266 0.478 0.319c0.286 0.082 0.609-0.002 0.851-0.175s0.431-0.419 0.58-0.688c0.038 0.147 0.096 0.289 0.171 0.421 0.045 0.078 0.097 0.153 0.167 0.208s0.159 0.084 0.251 0.084c0.091 0 0.18-0.028 0.25-0.084s0.122-0.13 0.167-0.208c0.076-0.131 0.134-0.274 0.171-0.421 0.148 0.269 0.338 0.514 0.58 0.688s0.565 0.257 0.851 0.175c0.187-0.053 0.348-0.175 0.478-0.319s0.232-0.311 0.334-0.477c0.046 0.192 0.086 0.384 0.157 0.566s0.173 0.354 0.32 0.482c0.147 0.127 0.342 0.205 0.536 0.186 0.212-0.022 0.4-0.158 0.53-0.327s0.211-0.371 0.285-0.561c-0.003 0.247-0.085 0.495-0.247 0.681zM19.697 5.765c0.095-0.387 0.34-0.711 0.664-0.906-0.257 0.276-0.526 0.555-0.664 0.906z"></path>
<path fill="#febb12" style="fill: var(--color1, #febb12)" d="M6.973 19.972l2.109 2.703 2.017 2.001 3.114 2.521 3.133-2.52 2.010-1.994h0.002l0.031-0.036-0.001-0.003 2.085-2.672-2.075-3.432 0.367-0.364-1.524-2.289-1.554-0.406-1.795-0.891h-1.336l-1.795 0.891-1.555 0.406-1.524 2.289 0.367 0.364-2.075 3.433zM11.974 16.395l0.212 0.296-0.555 0.565-0.947-0.273 1.29-0.588zM9.888 17.288l-0.431-0.895 0.351-0.814 2.035 0.815-1.955 0.893zM12.217 16.735l1.79 1.355-0.233 1.758-3.008-1.603-0.006-0.025 1.457-1.485zM12.258 16.699l1.52-0.397 0.417 0.376-0.179 1.35-1.758-1.33zM16.244 16.738l0.003-0.002 0.748 0.762 0.002 0.013 0.013 0.002 0.68 0.693-2.999 1.647-0.234-1.763 1.787-1.352zM14.45 18.028l-0.179-1.35 0.417-0.376 1.52 0.397-1.758 1.33zM17.932 17.071l-0.911 0.377-0.743-0.757 0.18-0.251 1.474 0.631zM16.583 16.435l2.155-0.856 0.31 0.693-0.473 1.016-1.993-0.853zM18.193 19.983l-1.613 1.906 1.152-3.583 0.461 1.677zM17.776 18.261l3.525 1.643-3.068 0.020-0.457-1.662 0-0zM17.688 18.268l-1.192 3.705-1.629-0.79-0.169-1.273 2.989-1.641zM11.963 22.045l0.022-0.038-0.001-0.001 1.593-0.753-0.205 0.798 0.014 0.030 0.818 0.4-0.039 0.692-0.833 1.24-1.369-2.367zM13.279 24.429l-2.104-1.016 0.757-1.314 1.347 2.33zM14.193 23.228l0.909 1.241-0.87 0.42-0.872-0.421v-0.001l0.832-1.238zM14.219 23.174l0.039-0.691 0.821-0.401 0.014-0.030-0.205-0.798 1.587 0.768-1.332 2.413-0.925-1.261zM16.514 22.065l0.776 1.348-2.073 1.002 1.297-2.35zM15.036 22.043l-0.803 0.392-0.803-0.392 0.212-0.825h1.183l0.212 0.825zM13.598 21.182l-0.003 0.002v0.001l-1.646 0.778-0.041-0.048-0.743-2.135-0.379-1.465 2.982 1.589-0.17 1.279v-0zM11.113 19.794l0.699 2.007-1.539-1.817 0.458-1.667 0.382 1.478-0-0zM10.233 19.922h-3.088l3.544-1.659-0.456 1.66-0-0zM10.239 20.027l1.621 1.915 0.017 0.049-2.729 0.628 1.092-2.591zM9.156 22.672l2.743-0.631 0.003 0.005-0.786 1.366-0.451 0.758-1.509-1.498zM11.136 24.637l-0.432-0.429 0.445-0.749 0.977 0.472-0.48 1.119-0.51-0.413zM11.69 25.085l0.485-1.131 1.107 0.535-0.007 0.011 0.021 0.014-0.502 1.464-1.104-0.893zM14.213 27.127l-1.375-1.113 0.511-1.493 0.884 0.427 0.902-0.436 0.003 0.005 0.459 1.496-1.384 1.113zM15.642 25.978l-0.453-1.477 0.002-0.001-0.005-0.006-0.001-0.005 1.105-0.534 0.462 1.13-1.111 0.893zM17.31 24.637l-0.514 0.413-0.457-1.118 0.976-0.472 0.387 0.787-0.392 0.389v0zM17.742 24.207l-0.379-0.771 0.001-0.001-0.798-1.386 2.727 0.618-1.551 1.539zM16.562 21.994l1.665-1.966 1.092 2.592-2.757-0.625zM21.408 19.968l-2.044 2.619-1.1-2.611 3.137-0.020 0.007 0.012zM21.346 19.865l-3.595-1.675-0.653-0.666 3.078 0.404 1.171 1.936zM20.139 17.87l-3.035-0.399 0.885-0.366-0.005-0.012 0.619 0.265 0.288-0.618 0.452-0.186 0.796 1.317zM19.695 16.168l-0.323 0.32-0.002-0.004-0.447 0.184 0.184-0.395-0.341-0.762-2.294 0.911 1.757-2.455 1.466 2.201zM18.191 13.927l-1.95 2.725-0.976-0.255 1.416-2.864 1.509 0.395zM16.632 13.512l-1.419 2.871-0.497-0.13 1.073-3.16 0.843 0.419zM14.259 12.642h0.618l0.862 0.428-1.083 3.187-0.395 0.357-0.003-0.020v-3.951h0zM14.812 21.164h-1.157l0.578-4.364 0.579 4.364zM13.567 12.642h0.639v3.951l-0.003 0.020-0.395-0.356-0.97-3.254 0.729-0.362zM11.779 13.53l1.011-0.502 0.962 3.225-0.498 0.13-1.31-2.91-0.049 0.022 1.307 2.902-0.977 0.255-1.953-2.729 1.507-0.393zM8.75 16.168l1.476-2.216 1.744 2.436-2.189-0.877-0.382 0.884 0.122 0.254-0.405-0.117-0.366-0.363v-0zM9.103 16.552l-0.009 0.030 0.457 0.132 0.311 0.646 0.747-0.341 0.901 0.259-3.203 0.59 0.796-1.316zM8.27 17.928l3.297-0.607-0.853 0.869-0.027 0.012-0.026-0.014-0.019 0.035-3.561 1.67 1.188-1.965zM10.201 19.976l-1.107 2.628-2.051-2.628h3.158z"></path>
</symbol>

<symbol id="icon_logo_gold_transparent" viewBox="0 0 29 32">
<path fill="#d69923" style="fill: var(--color1, #d69923)" d="M20.479 5.125c0.009 0.136 0.002 0.284-0.047 0.417 0.020-0.141 0.005-0.29-0.044-0.427-0.021-0.059-0.051-0.118-0.102-0.153-0.071-0.049-0.172-0.040-0.243 0.009s-0.113 0.132-0.128 0.218c0.098-0.009 0.207 0.045 0.272 0.135s0.082 0.21 0.045 0.314c-0.006-0.064-0.035-0.132-0.082-0.187s-0.112-0.097-0.184-0.103c-0.072-0.006-0.149 0.028-0.183 0.092 0.14 0.042 0.261 0.154 0.329 0.293s0.083 0.303 0.042 0.452c-0.005-0.17-0.047-0.356-0.156-0.504-0.031-0.042-0.067-0.078-0.108-0.109-0.046-0.035-0.104-0.070-0.164-0.063-0.055 0.006-0.102 0.046-0.131 0.093s-0.042 0.103-0.055 0.157c0.181 0.067 0.315 0.251 0.357 0.45s0 0.408-0.085 0.592c-0.085 0.184-0.211 0.346-0.345 0.498s-0.275 0.298-0.397 0.46c0.113-0.33 0.28-0.641 0.485-0.923-0.368 0.23-0.629 0.604-0.813 1.004s-0.296 0.829-0.404 1.256c-0.038-0.051-0.109-0.081-0.181-0.084-0.038-0.002-0.077 0.006-0.109 0.025-0.104 0.063-0.091 0.198-0.064 0.306 0.034 0.136 0.081 0.272 0.161 0.388s0.195 0.211 0.332 0.244c0.123 0.030 0.257 0.005 0.362-0.066s0.178-0.187 0.196-0.312c-0.084-0.003-0.174-0.098-0.197-0.199s0.004-0.207 0.032-0.307c0.093-0.328 0.206-0.653 0.383-0.944s0.424-0.546 0.732-0.69c-0.134 0.090-0.232 0.253-0.291 0.424s-0.084 0.351-0.112 0.53c-0.079 0.509-0.2 1.034-0.525 1.433-0.097 0.12-0.221 0.23-0.373 0.257-0.115 0.020-0.234-0.011-0.338-0.066-0.241-0.128-0.401-0.379-0.462-0.646s-0.038-0.549 0.038-0.811c0.058-0.203 0.182-0.382 0.322-0.538 0.078-0.087 0.163-0.168 0.225-0.267 0.028-0.045 0.050-0.094 0.064-0.145-0.2 0.091-0.376 0.237-0.507 0.404 0.126-0.209 0.308-0.383 0.522-0.5 0.001-0.031-0.002-0.062-0.011-0.091-0.132 0.042-0.278 0.113-0.411 0.204 0.052-0.212 0.108-0.422 0.2-0.616s0.223-0.373 0.396-0.5c0.054-0.039 0.113-0.074 0.178-0.086s0.138 0.001 0.186 0.047c0.062 0.059 0.069 0.153 0.072 0.238 0.047-0.107 0.076-0.21 0.068-0.315s-0.065-0.212-0.163-0.25c-0.066-0.026-0.141-0.017-0.208 0.006-0.112 0.039-0.206 0.116-0.291 0.198-0.166 0.159-0.308 0.343-0.42 0.544 0.072-0.156 0.148-0.315 0.246-0.46s0.22-0.277 0.371-0.366c0.151-0.089 0.333-0.131 0.504-0.094 0.048-0.073 0.051-0.188-0.008-0.267-0.044-0.058-0.116-0.090-0.188-0.097s-0.145 0.009-0.214 0.032c-0.15 0.051-0.286 0.14-0.406 0.244s-0.228 0.222-0.333 0.341c0.138-0.228 0.294-0.426 0.472-0.602 0.082-0.081 0.171-0.159 0.275-0.211s0.224-0.078 0.337-0.050c0.021-0.056 0.025-0.115 0.011-0.17s-0.050-0.106-0.1-0.132c-0.054-0.029-0.121-0.026-0.179-0.006s-0.109 0.056-0.158 0.093c-0.214 0.163-0.408 0.359-0.532 0.598 0.13-0.344 0.381-0.641 0.697-0.834-0.076-0.021-0.15-0.049-0.219-0.086-0.080 0.061-0.146 0.137-0.197 0.223-0.132-0.142-0.222-0.313-0.261-0.494-0.068 0.152-0.182 0.286-0.32 0.386 0.089 0.184 0.148 0.38 0.163 0.58-0.070-0.178-0.139-0.364-0.231-0.538-0.045-0.084-0.096-0.168-0.171-0.227s-0.175-0.093-0.267-0.065c-0.065 0.019-0.119 0.068-0.149 0.128s-0.039 0.13-0.028 0.197c0.11 0.010 0.229 0.054 0.323 0.13s0.162 0.184 0.191 0.301c0.006 0.026 0.010 0.055-0.006 0.076-0.018 0.025-0.058 0.028-0.086 0.014s-0.049-0.039-0.069-0.063c-0.056-0.065-0.121-0.122-0.192-0.169-0.094-0.062-0.202-0.108-0.317-0.089-0.029 0.005-0.058 0.015-0.083 0.030-0.129 0.076-0.126 0.22-0.109 0.347 0.093-0.052 0.205-0.045 0.298-0.002s0.168 0.115 0.233 0.194c0.197 0.241 0.306 0.545 0.344 0.854s0.006 0.623-0.058 0.928c-0.060 0.29-0.15 0.579-0.314 0.825s-0.41 0.448-0.698 0.512c-0.282 0.062-0.58-0.011-0.836-0.144-0.531-0.274-0.92-0.808-1.018-1.398s0.097-1.222 0.51-1.653c0.082-0.085 0.174-0.164 0.285-0.205s0.243-0.036 0.337 0.036c0.060-0.173 0.052-0.393-0.145-0.471-0.033-0.013-0.069-0.019-0.104-0.019-0.148-0.001-0.272 0.078-0.383 0.165-0.218 0.173-0.404 0.387-0.543 0.628 0.108-0.339 0.319-0.641 0.594-0.864 0.062-0.050 0.128-0.097 0.203-0.124s0.159-0.035 0.234-0.007c0.016-0.079 0.014-0.16-0.015-0.234s-0.083-0.139-0.157-0.167c-0.074-0.029-0.158-0.018-0.231 0.015s-0.134 0.084-0.191 0.139c-0.204 0.193-0.37 0.427-0.485 0.684 0.102-0.335 0.27-0.635 0.486-0.894-0.045-0.183-0.203-0.297-0.364-0.293-0.132 0.003-0.257 0.083-0.321 0.197-0.065-0.114-0.19-0.194-0.321-0.197-0.162-0.003-0.319 0.11-0.364 0.293 0.216 0.259 0.385 0.558 0.486 0.894-0.115-0.257-0.281-0.49-0.485-0.684-0.057-0.055-0.119-0.107-0.191-0.139s-0.157-0.043-0.231-0.015c-0.073 0.029-0.129 0.093-0.157 0.167s-0.031 0.155-0.015 0.234c0.075-0.028 0.159-0.021 0.234 0.007s0.141 0.074 0.203 0.124c0.276 0.222 0.486 0.524 0.594 0.864-0.14-0.241-0.325-0.455-0.543-0.628-0.111-0.088-0.234-0.167-0.382-0.165-0.035 0-0.071 0.007-0.104 0.019-0.197 0.078-0.205 0.298-0.145 0.471 0.094-0.072 0.226-0.076 0.337-0.036s0.203 0.12 0.285 0.205c0.413 0.431 0.608 1.063 0.51 1.653s-0.487 1.124-1.018 1.398c-0.257 0.132-0.555 0.206-0.836 0.144-0.289-0.064-0.534-0.266-0.698-0.512s-0.255-0.535-0.315-0.825c-0.063-0.305-0.095-0.619-0.058-0.928s0.147-0.614 0.344-0.854c0.065-0.079 0.14-0.152 0.233-0.194s0.205-0.050 0.298 0.002c0.017-0.126 0.020-0.27-0.109-0.347-0.026-0.015-0.054-0.025-0.083-0.030-0.116-0.020-0.224 0.027-0.317 0.089-0.071 0.047-0.136 0.104-0.193 0.169-0.021 0.024-0.041 0.049-0.069 0.063s-0.067 0.012-0.086-0.014c-0.016-0.022-0.012-0.051-0.005-0.076 0.029-0.117 0.097-0.225 0.191-0.301s0.213-0.12 0.323-0.13c0.011-0.066 0.003-0.137-0.028-0.197s-0.085-0.108-0.149-0.128c-0.091-0.027-0.193 0.006-0.267 0.065s-0.126 0.143-0.171 0.227c-0.092 0.174-0.161 0.36-0.231 0.538 0.015-0.2 0.073-0.397 0.163-0.58-0.139-0.1-0.253-0.234-0.32-0.386-0.039 0.181-0.129 0.352-0.261 0.494-0.051-0.085-0.117-0.162-0.197-0.223-0.069 0.037-0.142 0.065-0.219 0.086 0.316 0.193 0.567 0.49 0.697 0.834-0.124-0.239-0.318-0.436-0.532-0.598-0.049-0.037-0.1-0.073-0.158-0.093s-0.125-0.023-0.179 0.006c-0.050 0.026-0.085 0.077-0.1 0.132s-0.010 0.114 0.011 0.17c0.113-0.027 0.233-0.002 0.337 0.050s0.192 0.13 0.275 0.211c0.178 0.176 0.334 0.374 0.472 0.602-0.106-0.119-0.213-0.237-0.333-0.341s-0.256-0.192-0.406-0.244c-0.069-0.024-0.141-0.039-0.214-0.032s-0.144 0.039-0.188 0.097c-0.060 0.079-0.057 0.194-0.008 0.267 0.171-0.037 0.353 0.005 0.504 0.094s0.273 0.221 0.371 0.366c0.098 0.145 0.174 0.304 0.246 0.46-0.112-0.201-0.254-0.385-0.42-0.544-0.085-0.082-0.18-0.159-0.291-0.198-0.067-0.023-0.142-0.032-0.208-0.006-0.097 0.038-0.154 0.146-0.163 0.25s0.021 0.208 0.068 0.315c0.003-0.085 0.011-0.179 0.072-0.238 0.048-0.046 0.121-0.059 0.186-0.047s0.124 0.047 0.178 0.086c0.173 0.127 0.303 0.306 0.396 0.5s0.148 0.403 0.2 0.616c-0.133-0.091-0.279-0.162-0.411-0.204-0.008 0.030-0.011 0.061-0.011 0.091 0.214 0.117 0.396 0.291 0.522 0.5-0.132-0.167-0.307-0.312-0.507-0.404 0.014 0.051 0.036 0.1 0.064 0.145 0.062 0.099 0.147 0.18 0.225 0.267 0.14 0.156 0.263 0.335 0.322 0.538 0.075 0.263 0.098 0.545 0.038 0.811s-0.221 0.518-0.462 0.646c-0.103 0.055-0.223 0.086-0.338 0.066-0.152-0.026-0.275-0.137-0.373-0.257-0.325-0.399-0.446-0.924-0.525-1.433-0.028-0.179-0.052-0.359-0.112-0.53s-0.157-0.334-0.291-0.424c0.308 0.144 0.555 0.399 0.732 0.69s0.29 0.616 0.383 0.944c0.028 0.1 0.055 0.206 0.032 0.307s-0.113 0.196-0.197 0.199c0.019 0.125 0.092 0.241 0.196 0.312s0.239 0.095 0.362 0.066c0.136-0.033 0.252-0.128 0.332-0.244s0.126-0.251 0.161-0.388c0.027-0.108 0.041-0.243-0.064-0.306-0.033-0.020-0.071-0.027-0.109-0.025-0.072 0.003-0.144 0.033-0.181 0.084-0.108-0.427-0.221-0.856-0.404-1.256s-0.445-0.774-0.813-1.004c0.206 0.282 0.373 0.594 0.485 0.923-0.122-0.162-0.264-0.307-0.397-0.46s-0.26-0.314-0.345-0.498c-0.085-0.184-0.127-0.394-0.085-0.592s0.176-0.382 0.357-0.45c-0.013-0.054-0.026-0.109-0.055-0.157s-0.076-0.087-0.131-0.093c-0.060-0.006-0.118 0.028-0.164 0.063-0.041 0.031-0.078 0.068-0.108 0.109-0.109 0.148-0.151 0.334-0.156 0.504-0.042-0.149-0.027-0.313 0.042-0.452s0.189-0.251 0.329-0.293c-0.034-0.064-0.111-0.098-0.183-0.092s-0.138 0.048-0.184 0.103-0.076 0.123-0.082 0.187c-0.036-0.104-0.019-0.225 0.045-0.314s0.174-0.144 0.272-0.135c-0.015-0.085-0.057-0.169-0.128-0.218s-0.172-0.058-0.243-0.009c-0.051 0.035-0.080 0.095-0.102 0.153-0.049 0.137-0.065 0.286-0.044 0.427-0.049-0.133-0.056-0.281-0.047-0.418-0.431-0.508-0.971-0.923-1.572-1.187 0.319 0.273 0.622 0.572 0.84 0.931s0.345 0.785 0.301 1.216c0.032-0.060 0.113-0.082 0.178-0.060s0.113 0.078 0.143 0.138c0.030 0.061 0.045 0.128 0.065 0.194 0.069 0.236 0.195 0.455 0.365 0.632 0.222 0.233 0.511 0.39 0.75 0.606 0.329 0.297 0.557 0.704 0.63 1.146-0.128-0.324-0.261-0.656-0.489-0.918-0.353-0.406-0.913-0.623-1.176-1.094-0.076-0.137-0.123-0.289-0.205-0.422-0.037-0.060-0.092-0.122-0.168-0.106-0.034 0.007-0.064 0.031-0.082 0.062-0.038 0.064-0.030 0.138-0.015 0.208 0.057 0.244 0.22 0.462 0.444 0.574-0.028 0.188-0.014 0.382 0.052 0.546 0.103-0.022 0.212 0.028 0.283 0.107s0.107 0.182 0.131 0.285c0.047 0.204 0.046 0.419-0.009 0.63-0.218-0.455-0.585-0.838-1.014-1.060 0.745 0.842 1.277 1.873 1.56 2.989 0.054-0.083 0.164-0.122 0.26-0.101s0.176 0.101 0.207 0.195c0.031 0.094 0.016 0.201-0.031 0.287s-0.128 0.154-0.215 0.211c0.155-0.082 0.357-0.063 0.496 0.044s0.205 0.3 0.164 0.471c-0.041 0.171-0.188 0.311-0.357 0.345-0.034 0.24 0.033 0.493 0.179 0.682 0 0-0.016 0.15 0.117 0.1-0.056 0.048-0.054 0.137 0.005 0.182 0.002 0.001 0.004 0.003 0.005 0.004 0.046 0.034 0.111 0.024 0.151-0.017 0.006-0.006 0.012-0.012 0.019-0.018 0.012 0.056 0.056 0.158 0.22 0.225 0.236 0.097 1.207 0.434 3.679 0.434s3.443-0.337 3.679-0.434c0.163-0.067 0.208-0.169 0.219-0.225 0.006 0.006 0.012 0.012 0.019 0.018 0.040 0.041 0.105 0.051 0.151 0.017 0.002-0.001 0.004-0.003 0.006-0.004 0.059-0.045 0.061-0.134 0.005-0.182 0.132 0.050 0.117-0.1 0.117-0.1 0.146-0.189 0.213-0.442 0.179-0.682-0.17-0.034-0.316-0.175-0.357-0.345s0.026-0.363 0.164-0.471c0.138-0.108 0.34-0.126 0.496-0.044-0.087-0.057-0.167-0.124-0.215-0.211s-0.063-0.193-0.032-0.287c0.031-0.094 0.111-0.173 0.207-0.195s0.206 0.017 0.26 0.101c0.284-1.116 0.815-2.147 1.56-2.989-0.43 0.221-0.796 0.604-1.014 1.060-0.056-0.211-0.056-0.426-0.009-0.63 0.024-0.103 0.061-0.206 0.131-0.285s0.18-0.129 0.283-0.107c0.067-0.164 0.080-0.358 0.052-0.546 0.225-0.112 0.387-0.329 0.444-0.574 0.016-0.069 0.024-0.144-0.014-0.208-0.018-0.030-0.048-0.054-0.082-0.062-0.076-0.016-0.131 0.046-0.168 0.106-0.082 0.133-0.129 0.285-0.205 0.422-0.262 0.471-0.822 0.687-1.176 1.094-0.229 0.263-0.361 0.594-0.489 0.918 0.074-0.443 0.301-0.85 0.63-1.146 0.239-0.216 0.528-0.373 0.75-0.606 0.17-0.178 0.296-0.397 0.365-0.632 0.019-0.065 0.034-0.133 0.064-0.194s0.078-0.117 0.143-0.138c0.064-0.022 0.146 0 0.178 0.060-0.045-0.431 0.083-0.857 0.301-1.216s0.521-0.658 0.84-0.931c-0.6 0.264-1.141 0.679-1.572 1.187h-0.005zM7.69 4.398c0.344 0.206 0.603 0.549 0.704 0.958-0.146-0.371-0.431-0.666-0.704-0.958zM15.768 9.298c0.171 0.132 0.379 0.222 0.595 0.227 0.22 0.005 0.436-0.080 0.612-0.212s0.315-0.309 0.427-0.499c-0.072 0.224-0.21 0.432-0.397 0.586s-0.426 0.251-0.668 0.244c-0.231-0.006-0.456-0.107-0.628-0.262s-0.295-0.361-0.368-0.581c0.12 0.193 0.256 0.365 0.427 0.497l-0 0zM14.568 8.139c0 0 0.32 0.331 0.32 0.662s-0.172 0.467-0.296 0.467h-0.047c-0.124 0-0.296-0.136-0.296-0.467s0.32-0.662 0.32-0.662zM12.161 9.312c0.176 0.132 0.392 0.217 0.612 0.212 0.216-0.005 0.424-0.095 0.595-0.227s0.308-0.304 0.427-0.497c-0.073 0.22-0.196 0.427-0.368 0.581s-0.397 0.255-0.628 0.262c-0.242 0.007-0.481-0.090-0.668-0.244s-0.325-0.363-0.397-0.586c0.112 0.19 0.25 0.367 0.427 0.499l-0-0zM10.27 10.953c-0.009-0.11 0.081-0.206 0.181-0.252s0.213-0.052 0.32-0.078c0.322-0.075 0.601-0.319 0.717-0.629 0.020-0.053 0.036-0.108 0.065-0.156s0.077-0.089 0.133-0.095c0.108-0.010 0.179 0.105 0.248 0.189 0.18 0.22 0.488 0.29 0.772 0.283 0.24-0.006 0.482-0.058 0.694-0.171s0.393-0.292 0.518-0.517c0.025 0.155 0.118 0.298 0.249 0.384 0.043 0.028 0.093 0.053 0.118 0.098 0.021 0.040 0.019 0.091-0.006 0.129s-0.071 0.044-0.128 0.048c-1.272 0.095-2.68 0.193-3.882 0.765l0 0.001zM15.057 10.879c-0.024 0.17-0.142 0.325-0.3 0.391-0.154 0.064-0.337 0.042-0.478-0.046s-0.241-0.239-0.249-0.4c-0.005-0.112 0.030-0.225 0.096-0.315s0.162-0.158 0.27-0.189c0.164-0.049 0.353-0.012 0.485 0.099s0.202 0.291 0.178 0.461l-0-0zM15.218 11.742c0.603 0.033 1.229 0.074 1.839 0.204 0.366 0.078 0.727 0.191 1.065 0.349 0.104 0.053 0.036 0.153-0.051 0.109-0.002-0.001-0.003-0.001-0.006-0.002-0.333-0.161-0.697-0.265-1.062-0.331-0.634-0.114-1.282-0.122-1.923-0.186-0.057-0.005-0.115-0.012-0.165-0.040-0.065-0.036-0.112-0.115-0.065-0.188 0.031-0.048 0.090-0.069 0.147-0.062 0.092 0.012 0.159 0.080 0.222 0.146zM14.223 11.845c-0.050 0.027-0.109 0.034-0.165 0.040-0.641 0.064-1.289 0.072-1.923 0.186-0.365 0.065-0.73 0.169-1.062 0.331-0.002 0.001-0.003 0.001-0.005 0.002-0.088 0.044-0.155-0.056-0.051-0.109 0.338-0.158 0.699-0.27 1.065-0.349 0.61-0.131 1.236-0.171 1.839-0.204 0.062-0.066 0.13-0.134 0.222-0.146 0.057-0.007 0.116 0.013 0.147 0.062 0.047 0.073-0.001 0.152-0.065 0.188zM10.726 11.201c-0.064 0.002-0.127-0.042-0.146-0.103s0.008-0.133 0.063-0.166c0.055-0.033 0.132-0.022 0.202 0.032 0.897-0.327 1.896-0.492 2.848-0.488 0.067-0.040 0.135-0.075 0.226-0.050 0.030 0.008 0.060 0.022 0.078 0.048 0.026 0.036 0.018 0.090-0.011 0.124s-0.073 0.052-0.118 0.056c-0.062 0.006-0.127-0.012-0.174-0.043-0.954-0.009-1.909 0.151-2.807 0.472-0.040 0.068-0.099 0.116-0.163 0.119zM14.568 13.417c-1.822 0-3.759-0.195-3.759-0.556 0-0.209 0.613-0.357 1.127-0.444 0.737-0.125 1.672-0.194 2.632-0.194s1.895 0.069 2.632 0.194c0.514 0.087 1.127 0.235 1.127 0.444 0 0.361-1.937 0.556-3.759 0.556zM18.556 11.098c-0.019 0.061-0.082 0.105-0.146 0.103s-0.123-0.050-0.163-0.119c-0.898-0.321-1.853-0.481-2.807-0.472-0.047 0.030-0.111 0.049-0.174 0.043-0.044-0.004-0.089-0.021-0.118-0.056s-0.036-0.088-0.011-0.124c0.018-0.026 0.048-0.039 0.078-0.048 0.091-0.025 0.159 0.010 0.226 0.050 0.952-0.004 1.951 0.16 2.848 0.488 0.071-0.054 0.148-0.065 0.202-0.032s0.082 0.105 0.063 0.166zM18.867 10.953c-1.203-0.573-2.61-0.671-3.882-0.765-0.057-0.004-0.102-0.010-0.128-0.048s-0.028-0.089-0.006-0.129c0.025-0.046 0.074-0.070 0.118-0.098 0.131-0.086 0.224-0.229 0.249-0.384 0.125 0.225 0.306 0.403 0.518 0.517s0.454 0.166 0.694 0.171c0.284 0.007 0.592-0.063 0.772-0.283 0.069-0.084 0.14-0.199 0.248-0.189 0.056 0.005 0.104 0.047 0.134 0.095s0.045 0.103 0.066 0.156c0.116 0.31 0.395 0.555 0.717 0.629 0.107 0.025 0.219 0.033 0.32 0.078s0.19 0.142 0.181 0.252v-0.001zM19.242 10.199c-0.171 0.197-0.43 0.321-0.691 0.306-0.265-0.014-0.51-0.167-0.677-0.374s-0.262-0.464-0.321-0.723c-0.009 0.043-0.019 0.089-0.045 0.124-0.006 0.008-0.014 0.016-0.024 0.014-0.007-0.001-0.012-0.007-0.014-0.014s-0.002-0.014-0.001-0.021c0.002-0.039 0.007-0.078-0.013-0.109-0.162 0.27-0.397 0.51-0.695 0.61-0.288 0.097-0.613 0.052-0.881-0.091s-0.479-0.38-0.626-0.647c0 0.036 0 0.072-0.009 0.107-0.002 0.007-0.004 0.014-0.009 0.019s-0.012 0.009-0.018 0.007c-0.011-0.003-0.015-0.016-0.016-0.028-0.005-0.036-0.006-0.072-0.014-0.096-0.052 0.145-0.117 0.288-0.219 0.403s-0.248 0.179-0.398 0.179-0.296-0.064-0.398-0.179c-0.102-0.115-0.167-0.258-0.22-0.403-0.009 0.024-0.010 0.060-0.014 0.096-0.001 0.011-0.005 0.025-0.016 0.028-0.007 0.002-0.014-0.002-0.018-0.007s-0.007-0.012-0.009-0.019c-0.009-0.034-0.009-0.071-0.009-0.107-0.147 0.267-0.358 0.504-0.626 0.647s-0.593 0.188-0.881 0.091c-0.298-0.1-0.533-0.339-0.695-0.61-0.020 0.031-0.015 0.070-0.013 0.109 0 0.007 0.001 0.014-0.001 0.021s-0.007 0.012-0.014 0.014c-0.009 0.002-0.018-0.006-0.024-0.014-0.026-0.036-0.036-0.081-0.045-0.124-0.060 0.259-0.155 0.515-0.321 0.723s-0.412 0.36-0.677 0.374c-0.26 0.014-0.519-0.11-0.69-0.306s-0.258-0.46-0.261-0.721c0.078 0.201 0.164 0.414 0.302 0.593s0.337 0.323 0.562 0.346c0.205 0.021 0.412-0.062 0.567-0.196s0.264-0.318 0.339-0.51c0.075-0.192 0.117-0.395 0.166-0.599 0.107 0.176 0.215 0.352 0.353 0.505s0.309 0.282 0.506 0.338c0.303 0.086 0.645-0.002 0.902-0.186s0.457-0.443 0.614-0.728c0.040 0.156 0.101 0.306 0.181 0.445 0.047 0.082 0.103 0.162 0.177 0.22s0.169 0.089 0.265 0.089 0.191-0.030 0.265-0.089c0.075-0.058 0.13-0.138 0.177-0.22 0.080-0.139 0.142-0.29 0.181-0.445 0.157 0.284 0.358 0.544 0.614 0.728s0.599 0.272 0.902 0.186c0.198-0.056 0.369-0.185 0.506-0.338s0.246-0.329 0.353-0.505c0.049 0.204 0.092 0.407 0.166 0.599s0.183 0.375 0.339 0.51c0.156 0.135 0.363 0.217 0.567 0.196 0.225-0.023 0.423-0.167 0.561-0.346s0.224-0.393 0.302-0.593c-0.003 0.261-0.090 0.524-0.261 0.721zM20.742 5.356c0.101-0.41 0.36-0.752 0.704-0.958-0.272 0.292-0.557 0.588-0.704 0.958z"></path>
<path fill="#febb12" style="fill: var(--color2, #febb12)" d="M6.991 20.515l2.234 2.86 2.137 2.118 3.298 2.667 3.319-2.667 2.129-2.111h0.002l0.032-0.038-0.001-0.003 2.209-2.828-2.199-3.632 0.389-0.386-1.615-2.423-1.647-0.429-1.901-0.943h-1.415l-1.901 0.943-1.647 0.43-1.615 2.423 0.389 0.386-2.198 3.633zM12.289 16.73l0.225 0.313-0.588 0.598-1.003-0.289 1.366-0.623zM10.080 17.675l-0.457-0.947 0.372-0.861 2.156 0.863-2.071 0.945zM12.547 17.090l1.896 1.433-0.247 1.86-3.186-1.696-0.007-0.026 1.544-1.571zM12.59 17.051l1.61-0.42 0.442 0.398-0.19 1.429-1.862-1.407zM16.812 17.092l0.003-0.002 0.793 0.806 0.002 0.014 0.014 0.002 0.72 0.733-3.177 1.743-0.248-1.865 1.893-1.431zM14.912 18.458l-0.19-1.429 0.442-0.398 1.61 0.42-1.862 1.407zM18.601 17.444l-0.965 0.399-0.787-0.801 0.19-0.265 1.561 0.667zM17.171 16.772l2.283-0.905 0.329 0.733-0.501 1.075-2.111-0.903zM18.877 20.526l-1.709 2.017 1.221-3.792 0.488 1.775zM18.435 18.703l3.734 1.738-3.25 0.021-0.484-1.759 0-0zM18.342 18.711l-1.262 3.92-1.726-0.836-0.179-1.347 3.167-1.737zM12.277 22.709l0.023-0.041-0.001-0.001 1.688-0.797-0.217 0.845 0.015 0.032 0.867 0.423-0.041 0.732-0.883 1.312-1.45-2.505zM13.672 25.231l-2.229-1.075 0.802-1.39 1.427 2.466zM14.64 23.961l0.963 1.313-0.921 0.445-0.924-0.446v-0.001l0.881-1.31zM14.668 23.903l0.041-0.731 0.87-0.425 0.015-0.032-0.217-0.844 1.682 0.813-1.411 2.554-0.98-1.335zM17.098 22.729l0.822 1.427-2.196 1.060 1.374-2.486zM15.533 22.706l-0.851 0.415-0.851-0.415 0.225-0.874h1.253l0.225 0.874zM14.009 21.795l-0.003 0.002v0.001l-1.744 0.823-0.044-0.051-0.787-2.259-0.401-1.551 3.159 1.682-0.18 1.353v-0zM11.377 20.326l0.74 2.124-1.63-1.923 0.486-1.764 0.405 1.564-0.001-0zM10.445 20.462h-3.271l3.754-1.756-0.483 1.756-0.001-0zM10.452 20.573l1.717 2.026 0.018 0.052-2.891 0.665 1.156-2.742zM9.304 23.371l2.906-0.668 0.003 0.005-0.833 1.445-0.477 0.802-1.598-1.585zM11.402 25.451l-0.458-0.454 0.471-0.792 1.035 0.5-0.508 1.184-0.541-0.437zM11.988 25.925l0.514-1.196 1.172 0.566-0.008 0.012 0.022 0.015-0.531 1.549-1.169-0.945zM14.661 28.087l-1.456-1.178 0.542-1.58 0.936 0.452 0.955-0.461 0.003 0.005 0.486 1.583-1.467 1.178zM16.175 26.87l-0.48-1.563 0.002-0.001-0.005-0.006-0.001-0.005 1.171-0.565 0.489 1.196-1.177 0.945zM17.941 25.451l-0.544 0.437-0.484-1.183 1.034-0.499 0.41 0.833-0.416 0.412v0zM18.4 24.996l-0.401-0.816 0.001-0.001-0.846-1.467 2.888 0.654-1.643 1.629zM17.149 22.654l1.764-2.081 1.156 2.743-2.92-0.662zM22.283 20.51l-2.166 2.772-1.165-2.764 3.323-0.021 0.008 0.013zM22.217 20.401l-3.808-1.773-0.692-0.705 3.26 0.428 1.241 2.049zM20.939 18.29l-3.215-0.422 0.938-0.387-0.005-0.013 0.656 0.28 0.305-0.654 0.479-0.197 0.844 1.393zM20.468 16.489l-0.342 0.339-0.002-0.004-0.473 0.194 0.195-0.418-0.362-0.806-2.43 0.964 1.861-2.598 1.553 2.329zM18.875 14.118l-2.065 2.883-1.033-0.27 1.5-3.031 1.599 0.417zM17.223 13.679l-1.504 3.038-0.527-0.138 1.137-3.344 0.893 0.443zM14.71 12.758h0.655l0.913 0.453-1.147 3.373-0.419 0.377-0.003-0.021v-4.181h0.001zM15.295 21.776h-1.226l0.613-4.618 0.613 4.618zM13.977 12.758h0.677v4.181l-0.003 0.021-0.418-0.377-1.028-3.443 0.772-0.383zM12.082 13.697l1.071-0.531 1.019 3.413-0.527 0.138-1.388-3.080-0.052 0.023 1.385 3.071-1.035 0.27-2.069-2.888 1.596-0.416zM8.874 16.489l1.563-2.346 1.847 2.578-2.319-0.928-0.404 0.935 0.13 0.269-0.429-0.124-0.388-0.385v-0zM9.248 16.895l-0.009 0.031 0.485 0.14 0.33 0.683 0.791-0.36 0.954 0.275-3.393 0.625 0.843-1.393zM8.366 18.352l3.493-0.643-0.904 0.92-0.028 0.013-0.028-0.015-0.020 0.037-3.772 1.767 1.259-2.079zM10.412 20.519l-1.172 2.781-2.173-2.781h3.345z"></path>
</symbol>

<symbol id="icon_document_scanner_outline" viewBox="0 0 32 32">
<path d="M2.667 8v-6.667h6.667v2.667h-4v4h-2.667zM26.667 8v-4h-4v-2.667h6.667v6.667h-2.667zM2.667 30.667v-6.667h2.667v4h4v2.667h-6.667zM22.667 30.667v-2.667h4v-4h2.667v6.667h-6.667zM9.333 24h13.333v-16h-13.333v16zM9.333 26.667c-0.733 0-1.361-0.261-1.884-0.784s-0.784-1.15-0.783-1.883v-16c0-0.733 0.261-1.361 0.784-1.884s1.15-0.784 1.883-0.783h13.333c0.733 0 1.361 0.261 1.884 0.784s0.784 1.15 0.783 1.883v16c0 0.733-0.261 1.361-0.784 1.884s-1.15 0.784-1.883 0.783h-13.333zM12 13.333h8v-2.667h-8v2.667zM12 17.333h8v-2.667h-8v2.667zM12 21.333h8v-2.667h-8v2.667z"></path>
</symbol>

<symbol id="icon_facebook" viewBox="0 0 32 32">
<path stroke-linejoin="round" stroke-linecap="round" stroke-miterlimit="4" stroke-width="1.3333" d="M24 2.667h-4c-1.768 0-3.464 0.702-4.714 1.953s-1.953 2.946-1.953 4.714v4h-4v5.333h4v10.667h5.333v-10.667h4l1.333-5.333h-5.333v-4c0-0.354 0.14-0.693 0.391-0.943s0.589-0.391 0.943-0.391h4v-5.333z"></path>
</symbol>

<symbol id="icon_instagram" viewBox="0 0 32 32">
<path stroke-linejoin="round" stroke-linecap="round" stroke-miterlimit="4" stroke-width="1.3333" d="M22.667 2.667h-13.333c-3.682 0-6.667 2.985-6.667 6.667v13.333c0 3.682 2.985 6.667 6.667 6.667h13.333c3.682 0 6.667-2.985 6.667-6.667v-13.333c0-3.682-2.985-6.667-6.667-6.667z"></path>
<path stroke-linejoin="round" stroke-linecap="round" stroke-miterlimit="4" stroke-width="1.3333" d="M21.333 15.16c0.165 1.11-0.025 2.243-0.542 3.239s-1.334 1.803-2.336 2.308c-1.002 0.504-2.138 0.68-3.245 0.502s-2.131-0.701-2.924-1.494c-0.793-0.793-1.316-1.816-1.494-2.924s-0.003-2.243 0.502-3.245c0.504-1.002 1.312-1.82 2.308-2.336s2.129-0.706 3.239-0.542c1.132 0.168 2.18 0.695 2.989 1.504s1.337 1.857 1.504 2.989z"></path>
<path stroke-linejoin="round" stroke-linecap="round" stroke-miterlimit="4" stroke-width="1.3333" d="M23.333 8.667h0.013"></path>
</symbol>

<symbol id="icon_line" viewBox="0 0 32 32">
<path d="M29.415 9.171l-6.586-6.585c-0.186-0.186-0.406-0.333-0.649-0.434s-0.503-0.152-0.765-0.152-0.523 0.052-0.765 0.152c-0.243 0.101-0.463 0.248-0.649 0.434l-17.415 17.414c-0.186 0.186-0.333 0.406-0.434 0.649s-0.152 0.503-0.152 0.765c0 0.263 0.052 0.523 0.152 0.765s0.248 0.463 0.434 0.649l6.586 6.585c0.186 0.186 0.406 0.333 0.649 0.434s0.503 0.152 0.765 0.152c0.263 0 0.523-0.052 0.765-0.152s0.463-0.248 0.649-0.434l17.415-17.414c0.186-0.186 0.333-0.406 0.434-0.649s0.152-0.503 0.152-0.765c0-0.263-0.052-0.523-0.152-0.765s-0.248-0.463-0.434-0.649zM10.585 28l-6.585-6.586 4-4 3.292 3.294c0.093 0.093 0.203 0.167 0.325 0.217s0.252 0.076 0.383 0.076c0.131 0 0.261-0.026 0.383-0.076s0.232-0.124 0.325-0.217c0.093-0.093 0.167-0.203 0.217-0.325s0.076-0.252 0.076-0.383-0.026-0.261-0.076-0.383c-0.050-0.121-0.124-0.232-0.217-0.325l-3.294-3.293 2.586-2.586 3.292 3.294c0.188 0.188 0.442 0.293 0.708 0.293s0.52-0.105 0.707-0.293c0.188-0.188 0.293-0.442 0.293-0.708s-0.105-0.52-0.293-0.707l-3.294-3.293 2.586-2.586 3.292 3.294c0.093 0.093 0.203 0.167 0.325 0.217s0.252 0.076 0.383 0.076c0.131 0 0.261-0.026 0.383-0.076s0.232-0.124 0.325-0.217c0.093-0.093 0.167-0.203 0.217-0.325s0.076-0.252 0.076-0.383-0.026-0.261-0.076-0.383c-0.050-0.121-0.124-0.232-0.217-0.325l-3.294-3.293 4-4 6.586 6.586-17.415 17.414z"></path>
</symbol>

<symbol id="icon_envelope" viewBox="0 0 32 32">
<path stroke-linejoin="round" stroke-linecap="round" stroke-miterlimit="4" stroke-width="2" d="M5.333 5.333h21.333c1.467 0 2.667 1.2 2.667 2.667v16c0 1.467-1.2 2.667-2.667 2.667h-21.333c-1.467 0-2.667-1.2-2.667-2.667v-16c0-1.467 1.2-2.667 2.667-2.667z"></path>
<path stroke-linejoin="round" stroke-linecap="round" stroke-miterlimit="4" stroke-width="2" d="M29.333 8l-13.333 9.333-13.333-9.333"></path>
</symbol>

<symbol id="icon_message_circle" viewBox="0 0 32 32">
<path stroke-linejoin="round" stroke-linecap="round" stroke-miterlimit="4" stroke-width="1.3333" d="M28 15.333c0.005 1.76-0.407 3.496-1.2 5.067-0.941 1.882-2.387 3.466-4.177 4.572s-3.852 1.693-5.957 1.694c-1.76 0.005-3.496-0.407-5.067-1.2l-7.6 2.533 2.533-7.6c-0.793-1.571-1.205-3.307-1.2-5.067 0.001-2.104 0.587-4.167 1.694-5.957s2.69-3.236 4.572-4.177c1.571-0.793 3.307-1.205 5.067-1.2h0.667c2.779 0.153 5.404 1.326 7.372 3.295s3.141 4.593 3.294 7.372v0.667z"></path>
</symbol>

<symbol id="icon_phone" viewBox="0 0 32 32">
<path stroke-linejoin="round" stroke-linecap="round" stroke-miterlimit="4" stroke-width="1.3333" d="M29.333 22.56v4c0.002 0.371-0.075 0.739-0.223 1.079s-0.367 0.646-0.641 0.897c-0.274 0.251-0.597 0.442-0.948 0.561s-0.724 0.163-1.094 0.13c-4.103-0.446-8.044-1.848-11.507-4.093-3.222-2.047-5.953-4.778-8-8-2.253-3.478-3.656-7.439-4.093-11.56-0.033-0.369 0.010-0.74 0.129-1.091s0.308-0.673 0.558-0.947c0.25-0.273 0.553-0.492 0.892-0.641s0.705-0.227 1.075-0.227h4c0.647-0.006 1.274 0.223 1.765 0.645s0.811 1.008 0.902 1.649c0.169 1.28 0.482 2.537 0.933 3.747 0.179 0.477 0.218 0.996 0.112 1.495s-0.353 0.956-0.712 1.319l-1.693 1.693c1.898 3.338 4.662 6.102 8 8l1.693-1.693c0.363-0.359 0.82-0.606 1.319-0.712s1.017-0.067 1.495 0.112c1.21 0.451 2.467 0.765 3.747 0.933 0.648 0.091 1.239 0.418 1.662 0.917s0.647 1.136 0.631 1.79z"></path>
</symbol>

<symbol id="icon_search" viewBox="0 0 32 32">
<path stroke-linejoin="round" stroke-linecap="round" stroke-miterlimit="4" stroke-width="2" d="M14.667 25.333c5.891 0 10.667-4.776 10.667-10.667s-4.776-10.667-10.667-10.667c-5.891 0-10.667 4.776-10.667 10.667s4.776 10.667 10.667 10.667z"></path>
<path stroke-linejoin="round" stroke-linecap="round" stroke-miterlimit="4" stroke-width="2" d="M28 28l-5.8-5.8"></path>
</symbol>

<symbol id="icon_cross_dark" viewBox="0 0 32 32">
<path stroke-linejoin="round" stroke-linecap="round" stroke-miterlimit="4" stroke-width="2" d="M8 24.971l16.971-16.971"></path>
<path stroke-linejoin="round" stroke-linecap="round" stroke-miterlimit="4" stroke-width="2" d="M24.971 24.971l-16.971-16.971"></path>
</symbol>

<symbol id="icon_youtube" viewBox="0 0 26 32">
<path stroke-linejoin="round" stroke-linecap="round" stroke-miterlimit="4" stroke-width="0.8" d="M24.043 8.951c-0.127-0.622-0.385-1.192-0.748-1.653s-0.819-0.795-1.321-0.969c-1.835-0.551-9.173-0.551-9.173-0.551s-7.339 0-9.173 0.603c-0.502 0.175-0.958 0.509-1.321 0.969s-0.621 1.031-0.748 1.653c-0.336 2.289-0.5 4.61-0.491 6.936-0.012 2.343 0.152 4.682 0.491 6.988 0.14 0.603 0.404 1.151 0.766 1.592s0.811 0.76 1.303 0.925c1.835 0.603 9.173 0.603 9.173 0.603s7.339 0 9.173-0.603c0.502-0.175 0.958-0.509 1.321-0.969s0.621-1.031 0.748-1.653c0.333-2.271 0.497-4.575 0.491-6.883 0.012-2.343-0.152-4.682-0.491-6.988z"></path>
<path fill="none" stroke="#fff" style="stroke: var(--color1, #fff)" stroke-linejoin="round" stroke-linecap="round" stroke-miterlimit="4" stroke-width="0.8" d="M10.4 20.226l6.133-4.287-6.133-4.287v8.575z"></path>
</symbol>

<symbol id="icon_viber" viewBox="0 0 32 32">
<path d="M15.197 0.003c-2.567 0.035-8.089 0.456-11.179 3.287-2.293 2.28-3.095 5.641-3.188 9.804-0.080 4.147-0.173 11.933 7.333 14.055v3.227c0 0-0.051 1.293 0.803 1.56 1.053 0.333 1.653-0.665 2.653-1.732l1.867-2.107c5.133 0.427 9.067-0.559 9.52-0.705 1.040-0.333 6.908-1.081 7.868-8.869 0.987-8.041-0.48-13.108-3.12-15.401l-0.013-0.003c-0.8-0.733-4-3.067-11.16-3.093 0 0-0.528-0.033-1.384-0.021zM15.287 2.265c0.727-0.004 1.173 0.027 1.173 0.027 6.053 0.013 8.948 1.84 9.628 2.453 2.227 1.905 3.371 6.475 2.533 13.189-0.8 6.507-5.56 6.92-6.44 7.2-0.373 0.12-3.84 0.973-8.203 0.693 0 0-3.252 3.921-4.265 4.935-0.16 0.173-0.347 0.227-0.467 0.2-0.173-0.040-0.227-0.253-0.213-0.547l0.027-5.359c-6.361-1.76-5.988-8.403-5.921-11.869 0.080-3.467 0.733-6.309 2.667-8.229 2.609-2.36 7.3-2.68 9.481-2.693zM15.767 5.732c-0 0-0.001 0-0.001 0-0.22 0-0.399 0.178-0.399 0.399 0 0 0 0 0 0v0c0 0.221 0.179 0.4 0.4 0.4v0c0.043-0.001 0.093-0.001 0.143-0.001 2.034 0 3.88 0.809 5.232 2.123l-0.002-0.002c1.453 1.413 2.161 3.307 2.188 5.787 0 0.221 0.179 0.4 0.4 0.4v0-0.012c0.221 0 0.4-0.179 0.4-0.4v0c0.005-0.109 0.008-0.236 0.008-0.364 0-2.326-0.923-4.436-2.423-5.985l0.002 0.002c-1.587-1.547-3.589-2.347-5.948-2.347zM10.495 6.652c-0.054-0.008-0.116-0.013-0.18-0.013-0.236 0-0.457 0.064-0.646 0.176l0.006-0.003h-0.016c-0.547 0.32-1.051 0.72-1.531 1.253-0.36 0.427-0.561 0.852-0.615 1.265-0.009 0.064-0.014 0.137-0.014 0.212 0 0.182 0.029 0.357 0.084 0.521l-0.003-0.012 0.027 0.013c0.458 1.331 0.998 2.476 1.646 3.549l-0.046-0.082c0.895 1.608 1.922 2.996 3.101 4.237l-0.008-0.009 0.040 0.053 0.053 0.040 0.080 0.080c1.236 1.174 2.628 2.205 4.136 3.053l0.104 0.054c1.76 0.96 2.829 1.413 3.469 1.6v0.013c0.187 0.053 0.357 0.080 0.531 0.080 0.57-0.043 1.079-0.274 1.471-0.631l-0.002 0.002c0.52-0.467 0.933-0.984 1.24-1.531v-0.013c0.307-0.573 0.2-1.121-0.24-1.495-0.845-0.742-1.782-1.421-2.781-2.007l-0.085-0.046c-0.68-0.373-1.373-0.147-1.653 0.227l-0.6 0.759c-0.307 0.373-0.867 0.32-0.867 0.32l-0.016 0.013c-4.16-1.067-5.267-5.279-5.267-5.279s-0.053-0.573 0.333-0.867l0.747-0.6c0.36-0.293 0.613-0.987 0.227-1.667-0.631-1.084-1.31-2.022-2.071-2.887l0.017 0.020c-0.166-0.204-0.399-0.349-0.665-0.399l-0.007-0.001zM16.459 7.839c-0.22 0.001-0.399 0.18-0.399 0.4s0.179 0.4 0.4 0.4c0 0 0.001 0 0.001 0h-0c1.388 0.025 2.636 0.607 3.532 1.532l0.001 0.001c0.75 0.825 1.209 1.926 1.209 3.134 0 0.103-0.003 0.205-0.010 0.306l0.001-0.014c0.001 0.22 0.18 0.399 0.4 0.399 0 0 0 0 0 0v0l0.013 0.016c0 0 0 0 0 0 0.221 0 0.4-0.179 0.4-0.4 0-0 0-0.001 0-0.001v0c0.040-1.587-0.453-2.92-1.427-3.987s-2.333-1.667-4.067-1.787c-0.008-0.001-0.018-0.001-0.028-0.001s-0.020 0-0.029 0.001l0.001-0zM17.112 9.997c-0.004-0-0.008-0-0.012-0-0.225 0-0.407 0.182-0.407 0.408 0 0.221 0.176 0.401 0.395 0.407h0.001c1.32 0.067 1.96 0.733 2.040 2.107 0.007 0.215 0.184 0.387 0.4 0.387 0 0 0 0 0 0h0.013c0.215-0.007 0.388-0.183 0.388-0.4 0-0.009-0-0.019-0.001-0.028l0 0.001c-0.093-1.787-1.067-2.788-2.8-2.881-0.002-0-0.005-0-0.008-0s-0.006 0-0.008 0h0z"></path>
</symbol>

<symbol id="icon_telegram" viewBox="0 0 32 32">
<path d="M29.402 2.839l-28.351 10.989c-1.141 0.512-1.527 1.537-0.276 2.093l7.273 2.323 17.585-10.924c0.96-0.686 1.943-0.503 1.097 0.251l-15.104 13.746-0.474 5.817c0.439 0.898 1.244 0.902 1.757 0.456l4.179-3.974 7.157 5.387c1.662 0.989 2.567 0.351 2.924-1.462l4.694-22.342c0.487-2.232-0.344-3.215-2.462-2.36z"></path>
</symbol>

<symbol id="icon_navigation" viewBox="0 0 32 32">
<path stroke-linejoin="round" stroke-linecap="round" stroke-miterlimit="4" stroke-width="1.3333" d="M4 14.667l25.333-12-12 25.333-2.667-10.667-10.667-2.667z"></path>
</symbol>

<symbol id="icon_map_marker" viewBox="0 0 26 32">
<path d="M12.099 30.903c-0.632 0-11.93-12.071-11.93-18.66s5.341-11.93 11.93-11.93c6.589 0 11.93 5.341 11.93 11.93s-11.298 18.66-11.93 18.66zM12.099 18.21c3.341 0 6.049-2.708 6.049-6.049s-2.708-6.049-6.049-6.049c-3.341 0-6.049 2.708-6.049 6.049s2.708 6.049 6.049 6.049z"></path>
<path d="M0.169 12.243c0 6.589 11.298 18.66 11.93 18.66v-12.693c-3.341-0-6.049-2.708-6.049-6.049s2.708-6.049 6.049-6.049v-5.8c-6.589 0-11.93 5.341-11.93 11.93z"></path>
</symbol>

<symbol id="icon_arrow_left_circle" viewBox="0 0 32 32">
<path stroke-linejoin="round" stroke-linecap="round" stroke-miterlimit="4" stroke-width="2.6667" d="M16 29.333c7.364 0 13.333-5.97 13.333-13.333s-5.97-13.333-13.333-13.333c-7.364 0-13.333 5.97-13.333 13.333s5.97 13.333 13.333 13.333z"></path>
<path stroke-linejoin="round" stroke-linecap="round" stroke-miterlimit="4" stroke-width="2.6667" d="M16 10.667l-5.333 5.333 5.333 5.333"></path>
<path stroke-linejoin="round" stroke-linecap="round" stroke-miterlimit="4" stroke-width="2.6667" d="M21.333 16h-10.667"></path>
</symbol>

</defs>
</svg>
