<svg width="48" height="48" viewBox="0 0 48 48" fill="none" xmlns="http://www.w3.org/2000/svg">
<g id="phone">
<path id="Vector" d="M44.0001 33.84V39.84C44.0024 40.397 43.8883 40.9483 43.6651 41.4586C43.442 41.969 43.1147 42.4271 42.7043 42.8037C42.2938 43.1802 41.8093 43.4669 41.2816 43.6454C40.754 43.8238 40.1949 43.8901 39.6401 43.84C33.4858 43.1712 27.5741 41.0682 22.3801 37.7C17.5478 34.6293 13.4508 30.5323 10.3801 25.7C7.00007 20.4824 4.8966 14.5419 4.24011 8.35995C4.19013 7.80688 4.25586 7.24947 4.43311 6.7232C4.61036 6.19693 4.89525 5.71333 5.26964 5.30319C5.64403 4.89306 6.09972 4.56537 6.60769 4.34099C7.11566 4.11662 7.66479 4.00047 8.22011 3.99995H14.2201C15.1907 3.9904 16.1317 4.33411 16.8676 4.96702C17.6036 5.59992 18.0843 6.47884 18.2201 7.43995C18.4734 9.36008 18.943 11.2454 19.6201 13.0599C19.8892 13.7758 19.9474 14.5538 19.7879 15.3017C19.6284 16.0496 19.2578 16.7362 18.7201 17.28L16.1801 19.8199C19.0272 24.827 23.173 28.9728 28.1801 31.82L30.7201 29.28C31.2639 28.7422 31.9504 28.3716 32.6983 28.2121C33.4463 28.0526 34.2243 28.1109 34.9401 28.3799C36.7547 29.0571 38.64 29.5267 40.5601 29.78C41.5316 29.917 42.4189 30.4064 43.0532 31.1549C43.6874 31.9035 44.0244 32.8591 44.0001 33.84Z" stroke="white" stroke-width="2" stroke-linecap="round" stroke-linejoin="round"/>
</g>
</svg>
