<svg xmlns="http://www.w3.org/2000/svg" width="190" height="315" viewBox="0 0 190 315" fill="none">
<path d="M116.491 287.024L115.512 285.888L116.491 287.024ZM180.637 1.03806C180.106 0.402409 179.16 0.317793 178.524 0.849059L168.166 9.50655C167.53 10.0378 167.445 10.9838 167.977 11.6194C168.508 12.2551 169.454 12.3397 170.09 11.8084L179.297 4.11288L186.993 13.3204C187.524 13.9561 188.47 14.0407 189.106 13.5094C189.741 12.9781 189.826 12.0322 189.295 11.3965L180.637 1.03806ZM1.62719 225.951C1.91847 226.726 2.78329 227.119 3.55882 226.828C4.33435 226.536 4.72692 225.671 4.43565 224.896L1.62719 225.951ZM6.47728 230.386C6.1906 229.609 5.32812 229.211 4.55088 229.498C3.77363 229.784 3.37595 230.647 3.66263 231.424L6.47728 230.386ZM5.67675 236.911C5.96146 237.689 6.82293 238.089 7.6009 237.804C8.37886 237.519 8.77873 236.658 8.49401 235.88L5.67675 236.911ZM10.5042 241.371C10.2189 240.593 9.35714 240.194 8.5794 240.479C7.80166 240.764 7.40247 241.626 7.68779 242.404L10.5042 241.371ZM9.71401 247.897C10.0025 248.673 10.866 249.069 11.6425 248.781C12.4191 248.492 12.8147 247.629 12.5262 246.852L9.71401 247.897ZM14.5784 252.316C14.2839 251.542 13.4175 251.153 12.6431 251.447C11.8688 251.742 11.4798 252.608 11.7743 253.383L14.5784 252.316ZM13.8887 258.854C14.192 259.625 15.0628 260.004 15.8337 259.7C16.6046 259.397 16.9837 258.526 16.6804 257.755L13.8887 258.854ZM18.8534 263.16C18.538 262.394 17.6614 262.028 16.8953 262.344C16.1293 262.659 15.7639 263.536 16.0793 264.302L18.8534 263.16ZM18.3709 269.716C18.702 270.475 19.586 270.823 20.3454 270.492C21.1048 270.16 21.452 269.276 21.1209 268.517L18.3709 269.716ZM23.5095 273.811C23.1585 273.061 22.2656 272.737 21.5152 273.088C20.7648 273.439 20.4411 274.332 20.7921 275.083L23.5095 273.811ZM23.3765 280.383C23.7524 281.121 24.6556 281.415 25.3938 281.039C26.132 280.663 26.4257 279.76 26.0497 279.022L23.3765 280.383ZM28.7771 284.118C28.3702 283.396 27.4554 283.141 26.7338 283.548C26.0121 283.955 25.7569 284.87 26.1638 285.591L28.7771 284.118ZM29.2018 290.67C29.6467 291.369 30.5738 291.575 31.2727 291.13C31.9715 290.685 32.1774 289.758 31.7325 289.059L29.2018 290.67ZM34.974 293.802C34.4826 293.135 33.5436 292.992 32.8766 293.484C32.2097 293.975 32.0674 294.914 32.5588 295.581L34.974 293.802ZM36.3077 300.248C36.8552 300.869 37.803 300.93 38.4247 300.382C39.0465 299.835 39.1066 298.887 38.5591 298.265L36.3077 300.248ZM42.5295 302.319C41.9169 301.762 40.9682 301.806 40.4105 302.419C39.8529 303.031 39.8975 303.98 40.5101 304.538L42.5295 302.319ZM45.2361 308.297C45.9195 308.765 46.8531 308.591 47.3214 307.908C47.7898 307.224 47.6155 306.291 46.9322 305.822L45.2361 308.297ZM51.7856 308.606C51.0348 308.256 50.1424 308.58 49.7922 309.331C49.442 310.082 49.7668 310.974 50.5176 311.325L51.7856 308.606ZM56.2643 313.399C57.0659 313.608 57.8852 313.128 58.0944 312.327C58.3035 311.525 57.8232 310.706 57.0216 310.496L56.2643 313.399ZM62.4994 311.406C61.6733 311.343 60.9529 311.962 60.8902 312.788C60.8276 313.614 61.4464 314.335 62.2725 314.397L62.4994 311.406ZM68.3468 314.355C69.1722 314.284 69.7837 313.557 69.7126 312.731C69.6416 311.906 68.9149 311.295 68.0895 311.366L68.3468 314.355ZM73.672 310.487C72.8638 310.669 72.3563 311.472 72.5385 312.28C72.7207 313.088 73.5235 313.596 74.3316 313.413L73.672 310.487ZM80.1254 311.756C80.9087 311.486 81.3251 310.633 81.0554 309.849C80.7858 309.066 79.9321 308.65 79.1488 308.919L80.1254 311.756ZM84.464 306.814C83.7074 307.152 83.3675 308.038 83.7048 308.795C84.0421 309.552 84.929 309.892 85.6856 309.554L84.464 306.814ZM91.013 306.942C91.744 306.553 92.0206 305.644 91.6309 304.913C91.2411 304.182 90.3325 303.905 89.6015 304.295L91.013 306.942ZM94.5734 301.452C93.866 301.883 93.6419 302.806 94.0729 303.513C94.5039 304.221 95.4268 304.445 96.1343 304.014L94.5734 301.452ZM101.088 300.827C101.774 300.363 101.954 299.431 101.49 298.744C101.026 298.058 100.094 297.878 99.4074 298.342L101.088 300.827ZM104.137 294.999C103.47 295.491 103.327 296.43 103.819 297.097C104.31 297.764 105.249 297.906 105.916 297.415L104.137 294.999ZM110.657 293.794C111.307 293.28 111.417 292.336 110.904 291.687C110.39 291.037 109.446 290.926 108.797 291.44L110.657 293.794ZM113.236 287.822C112.602 288.355 112.519 289.301 113.051 289.936C113.583 290.57 114.529 290.653 115.164 290.121L113.236 287.822ZM119.812 286.111C120.432 285.561 120.488 284.613 119.938 283.994C119.388 283.374 118.439 283.318 117.82 283.869L119.812 286.111ZM122.285 279.78C121.682 280.349 121.655 281.298 122.224 281.901C122.792 282.503 123.742 282.53 124.344 281.962L122.285 279.78ZM128.739 277.682C129.324 277.095 129.321 276.145 128.734 275.56C128.147 274.976 127.197 274.978 126.613 275.565L128.739 277.682ZM130.815 271.208C130.25 271.813 130.282 272.763 130.887 273.328C131.493 273.894 132.442 273.861 133.007 273.256L130.815 271.208ZM137.125 268.704C137.671 268.08 137.608 267.133 136.984 266.587C136.361 266.041 135.414 266.104 134.868 266.727L137.125 268.704ZM138.777 262.113C138.252 262.754 138.346 263.699 138.986 264.224C139.627 264.749 140.572 264.655 141.097 264.014L138.777 262.113ZM144.913 259.196C145.416 258.538 145.291 257.597 144.633 257.093C143.976 256.59 143.034 256.715 142.531 257.373L144.913 259.196ZM146.121 252.516C145.64 253.191 145.796 254.128 146.47 254.609C147.145 255.09 148.081 254.934 148.563 254.259L146.121 252.516ZM152.053 249.192C152.512 248.501 152.324 247.57 151.634 247.112C150.944 246.654 150.013 246.841 149.554 247.531L152.053 249.192ZM152.807 242.453C152.372 243.158 152.591 244.082 153.296 244.517C154.001 244.952 154.925 244.734 155.36 244.029L152.807 242.453ZM158.507 238.732C158.918 238.013 158.669 237.097 157.95 236.686C157.23 236.274 156.314 236.524 155.903 237.243L158.507 238.732ZM158.806 231.965C158.419 232.697 158.699 233.605 159.431 233.992C160.164 234.379 161.071 234.1 161.459 233.367L158.806 231.965ZM164.25 227.87C164.613 227.126 164.304 226.228 163.559 225.865C162.814 225.502 161.916 225.811 161.554 226.556L164.25 227.87ZM164.11 221.087C163.772 221.843 164.11 222.73 164.866 223.069C165.622 223.408 166.509 223.07 166.848 222.314L164.11 221.087ZM169.273 216.662C169.588 215.895 169.222 215.019 168.455 214.705C167.689 214.39 166.813 214.756 166.498 215.523L169.273 216.662ZM168.707 209.892C168.417 210.668 168.81 211.533 169.586 211.823C170.361 212.114 171.226 211.721 171.516 210.945L168.707 209.892ZM173.582 205.165C173.849 204.381 173.43 203.529 172.646 203.262C171.862 202.995 171.009 203.414 170.742 204.198L173.582 205.165ZM172.61 198.436C172.366 199.227 172.81 200.067 173.602 200.311C174.394 200.555 175.233 200.11 175.477 199.319L172.61 198.436ZM177.197 193.436C177.418 192.637 176.95 191.811 176.152 191.59C175.353 191.368 174.527 191.836 174.306 192.635L177.197 193.436ZM175.843 186.769C175.644 187.573 176.135 188.386 176.939 188.585C177.743 188.784 178.557 188.294 178.756 187.49L175.843 186.769ZM180.15 181.517C180.327 180.708 179.815 179.908 179.006 179.73C178.197 179.553 177.397 180.065 177.219 180.874L180.15 181.517ZM178.443 174.94C178.286 175.753 178.818 176.54 179.631 176.697C180.445 176.854 181.231 176.321 181.388 175.508L178.443 174.94ZM182.476 169.469C182.613 168.652 182.062 167.879 181.245 167.742C180.428 167.605 179.654 168.156 179.518 168.973L182.476 169.469ZM180.448 162.991C180.33 163.811 180.899 164.572 181.719 164.689C182.539 164.807 183.3 164.238 183.418 163.418L180.448 162.991ZM184.222 157.332C184.322 156.51 183.736 155.762 182.913 155.663C182.091 155.563 181.344 156.149 181.244 156.972L184.222 157.332ZM181.908 150.947C181.826 151.771 182.427 152.506 183.252 152.588C184.076 152.67 184.811 152.068 184.893 151.244L181.908 150.947ZM185.438 145.14C185.503 144.314 184.886 143.592 184.061 143.526C183.235 143.461 182.512 144.077 182.447 144.903L185.438 145.14ZM182.868 138.846C182.818 139.673 183.448 140.383 184.275 140.433C185.102 140.482 185.813 139.852 185.863 139.025L182.868 138.846ZM186.173 132.921C186.208 132.093 185.565 131.394 184.738 131.359C183.91 131.324 183.211 131.967 183.176 132.795L186.173 132.921ZM183.379 126.714C183.359 127.542 184.013 128.231 184.841 128.251C185.669 128.272 186.358 127.618 186.378 126.789L183.379 126.714ZM186.483 120.672C186.49 119.843 185.825 119.165 184.997 119.158C184.168 119.15 183.49 119.815 183.483 120.644L186.483 120.672ZM183.494 114.573C183.498 115.402 184.173 116.07 185.002 116.065C185.83 116.06 186.498 115.385 186.494 114.557L183.494 114.573ZM186.418 108.429C186.402 107.601 185.717 106.943 184.889 106.958C184.061 106.974 183.402 107.659 183.418 108.487L186.418 108.429ZM183.264 102.42C183.29 103.248 183.982 103.898 184.81 103.872C185.638 103.846 186.288 103.153 186.262 102.325L183.264 102.42ZM186.033 96.2104C185.998 95.3827 185.298 94.7406 184.47 94.7762C183.642 94.8118 183 95.5117 183.036 96.3393L186.033 96.2104ZM182.743 90.2566C182.787 91.0839 183.493 91.7188 184.32 91.6748C185.147 91.6307 185.782 90.9244 185.738 90.0971L182.743 90.2566ZM185.386 84.0124C185.335 83.1856 184.623 82.557 183.796 82.6084C182.969 82.6599 182.341 83.3719 182.392 84.1987L185.386 84.0124ZM181.99 78.1152C182.047 78.9416 182.764 79.5647 183.591 79.5069C184.417 79.4492 185.04 78.7324 184.982 77.906L181.99 78.1152ZM184.536 71.8068C184.473 70.9808 183.752 70.3622 182.926 70.4251C182.1 70.488 181.482 71.2087 181.545 72.0347L184.536 71.8068ZM181.068 65.9786C181.135 66.8044 181.859 67.4196 182.684 67.3528C183.51 67.2859 184.125 66.5624 184.058 65.7367L181.068 65.9786ZM183.556 59.6531C183.487 58.8276 182.761 58.2146 181.936 58.2839C181.11 58.3532 180.497 59.0786 180.566 59.9041L183.556 59.6531ZM180.051 53.8131C180.121 54.6385 180.847 55.2507 181.672 55.1805C182.498 55.1103 183.11 54.3842 183.04 53.5588L180.051 53.8131ZM182.526 47.4877C182.456 46.6622 181.731 46.0491 180.905 46.1184C180.08 46.1877 179.467 46.9131 179.536 47.7386L182.526 47.4877ZM179.038 41.6792C179.104 42.505 179.827 43.1208 180.653 43.0546C181.478 42.9884 182.094 42.2654 182.028 41.4396L179.038 41.6792ZM181.561 35.3635C181.5 34.5373 180.781 33.9165 179.955 33.9769C179.129 34.0373 178.508 34.756 178.569 35.5822L181.561 35.3635ZM178.153 29.4635C178.204 30.2904 178.916 30.9191 179.743 30.8678C180.57 30.8166 181.198 30.1047 181.147 29.2779L178.153 29.4635ZM180.817 23.2054C180.779 22.3779 180.078 21.7376 179.25 21.7754C178.423 21.8132 177.783 22.5148 177.82 23.3423L180.817 23.2054ZM177.608 17.2116C177.626 18.0399 178.312 18.6962 179.141 18.6777C179.969 18.6592 180.625 17.9727 180.607 17.1445L177.608 17.2116ZM180.566 11.0966C180.574 10.2682 179.91 9.5895 179.082 9.58062C178.253 9.57174 177.575 10.2361 177.566 11.0645L180.566 11.0966ZM177.77 4.89796C177.721 5.72498 178.353 6.43454 179.18 6.48281C180.007 6.53109 180.716 5.89979 180.765 5.07277L177.77 4.89796ZM0.598042 223.228C0.942292 224.132 1.28526 225.04 1.62719 225.951L4.43565 224.896C4.09237 223.982 3.74788 223.07 3.40196 222.161L0.598042 223.228ZM3.66263 231.424C4.33569 233.249 5.00635 235.079 5.67675 236.911L8.49401 235.88C7.82341 234.047 7.1517 232.214 6.47728 230.386L3.66263 231.424ZM7.68779 242.404C8.36105 244.239 9.03588 246.072 9.71401 247.897L12.5262 246.852C11.85 245.032 11.1767 243.204 10.5042 241.371L7.68779 242.404ZM11.7743 253.383C12.4729 255.22 13.177 257.045 13.8887 258.854L16.6804 257.755C15.9736 255.959 15.2736 254.145 14.5784 252.316L11.7743 253.383ZM16.0793 264.302C16.8321 266.13 17.5953 267.937 18.3709 269.716L21.1209 268.517C20.3544 266.759 19.5993 264.972 18.8534 263.16L16.0793 264.302ZM20.7921 275.083C21.6361 276.887 22.4967 278.656 23.3765 280.383L26.0497 279.022C25.1867 277.327 24.3408 275.589 23.5095 273.811L20.7921 275.083ZM26.1638 285.591C27.1498 287.34 28.1614 289.035 29.2018 290.67L31.7325 289.059C30.7236 287.474 29.7394 285.825 28.7771 284.118L26.1638 285.591ZM32.5588 295.581C33.7671 297.221 35.0152 298.78 36.3077 300.248L38.5591 298.265C37.3297 296.869 36.1359 295.379 34.974 293.802L32.5588 295.581ZM40.5101 304.538C42.0241 305.916 43.5975 307.174 45.2361 308.297L46.9322 305.822C45.4165 304.783 43.9505 303.613 42.5295 302.319L40.5101 304.538ZM50.5176 311.325C52.3585 312.183 54.2724 312.88 56.2643 313.399L57.0216 310.496C55.2103 310.024 53.4671 309.39 51.7856 308.606L50.5176 311.325ZM62.2725 314.397C64.2328 314.546 66.2564 314.535 68.3468 314.355L68.0895 311.366C66.1538 311.532 64.2923 311.542 62.4994 311.406L62.2725 314.397ZM74.3316 313.413C76.2125 312.989 78.1429 312.439 80.1254 311.756L79.1488 308.919C77.2633 309.569 75.4387 310.089 73.672 310.487L74.3316 313.413ZM85.6856 309.554C87.4223 308.78 89.1976 307.91 91.013 306.942L89.6015 304.295C87.8443 305.232 86.1324 306.07 84.464 306.814L85.6856 309.554ZM96.1343 304.014C97.7543 303.027 99.4052 301.965 101.088 300.827L99.4074 298.342C97.7616 299.455 96.1506 300.491 94.5734 301.452L96.1343 304.014ZM105.916 297.415C107.47 296.271 109.05 295.064 110.657 293.794L108.797 291.44C107.215 292.691 105.662 293.877 104.137 294.999L105.916 297.415ZM115.164 290.121C115.927 289.482 116.696 288.828 117.47 288.161L115.512 285.888C114.747 286.547 113.989 287.192 113.236 287.822L115.164 290.121ZM117.47 288.161C118.26 287.48 119.04 286.797 119.812 286.111L117.82 283.869C117.059 284.544 116.29 285.218 115.512 285.888L117.47 288.161ZM124.344 281.962C125.843 280.546 127.308 279.119 128.739 277.682L126.613 275.565C125.204 276.981 123.761 278.386 122.285 279.78L124.344 281.962ZM133.007 273.256C134.415 271.749 135.787 270.232 137.125 268.704L134.868 266.727C133.551 268.231 132.2 269.725 130.815 271.208L133.007 273.256ZM141.097 264.014C142.405 262.418 143.676 260.812 144.913 259.196L142.531 257.373C141.314 258.963 140.063 260.543 138.777 262.113L141.097 264.014ZM148.563 254.259C149.762 252.58 150.925 250.89 152.053 249.192L149.554 247.531C148.444 249.202 147.3 250.864 146.121 252.516L148.563 254.259ZM155.36 244.029C156.444 242.272 157.493 240.506 158.507 238.732L155.903 237.243C154.905 238.988 153.873 240.725 152.807 242.453L155.36 244.029ZM161.459 233.367C162.423 231.542 163.354 229.71 164.25 227.87L161.554 226.556C160.671 228.366 159.756 230.17 158.806 231.965L161.459 233.367ZM166.848 222.314C167.69 220.436 168.498 218.552 169.273 216.662L166.498 215.523C165.734 217.384 164.939 219.239 164.11 221.087L166.848 222.314ZM171.516 210.945C172.236 209.023 172.925 207.096 173.582 205.165L170.742 204.198C170.094 206.101 169.416 207.999 168.707 209.892L171.516 210.945ZM175.477 199.319C176.08 197.361 176.653 195.4 177.197 193.436L174.306 192.635C173.769 194.572 173.204 196.506 172.61 198.436L175.477 199.319ZM178.756 187.49C179.248 185.5 179.712 183.509 180.15 181.517L177.219 180.874C176.788 182.841 176.329 184.806 175.843 186.769L178.756 187.49ZM181.388 175.508C181.777 173.495 182.139 171.482 182.476 169.469L179.518 168.973C179.184 170.962 178.826 172.951 178.443 174.94L181.388 175.508ZM183.418 163.418C183.709 161.388 183.977 159.359 184.222 157.332L181.244 156.972C181.002 158.977 180.737 160.984 180.448 162.991L183.418 163.418ZM184.893 151.244C185.096 149.206 185.277 147.171 185.438 145.14L182.447 144.903C182.288 146.915 182.108 148.929 181.908 150.947L184.893 151.244ZM185.863 139.025C185.985 136.985 186.088 134.95 186.173 132.921L183.176 132.795C183.091 134.807 182.989 136.824 182.868 138.846L185.863 139.025ZM186.378 126.789C186.43 124.743 186.464 122.703 186.483 120.672L183.483 120.644C183.464 122.66 183.43 124.684 183.379 126.714L186.378 126.789ZM186.494 114.557C186.482 112.505 186.456 110.462 186.418 108.429L183.418 108.487C183.457 110.506 183.482 112.535 183.494 114.573L186.494 114.557ZM186.262 102.325C186.197 100.275 186.12 98.2361 186.033 96.2104L183.036 96.3393C183.123 98.3544 183.199 100.382 183.264 102.42L186.262 102.325ZM185.738 90.0971C185.63 88.054 185.512 86.0253 185.386 84.0124L182.392 84.1987C182.517 86.2034 182.634 88.2231 182.743 90.2566L185.738 90.0971ZM184.982 77.906C184.839 75.8544 184.69 73.8209 184.536 71.8068L181.545 72.0347C181.698 74.0434 181.847 76.0706 181.99 78.1152L184.982 77.906ZM184.058 65.7367C183.892 63.686 183.724 61.6577 183.556 59.6531L180.566 59.9041C180.735 61.9067 180.903 63.9319 181.068 65.9786L184.058 65.7367ZM183.04 53.5588C182.865 51.5065 182.693 49.4826 182.526 47.4877L179.536 47.7386C179.704 49.7355 179.876 51.7611 180.051 53.8131L183.04 53.5588ZM182.028 41.4396C181.863 39.3778 181.706 37.3519 181.561 35.3635L178.569 35.5822C178.715 37.5792 178.872 39.6123 179.038 41.6792L182.028 41.4396ZM181.147 29.2779C181.019 27.2056 180.907 25.1807 180.817 23.2054L177.82 23.3423C177.911 25.3364 178.024 27.3777 178.153 29.4635L181.147 29.2779ZM180.607 17.1445C180.56 15.0612 180.545 13.0442 180.566 11.0966L177.566 11.0645C177.544 13.0497 177.56 15.1002 177.608 17.2116L180.607 17.1445ZM180.765 5.07277C180.823 4.06941 180.895 3.08954 180.98 2.13364L177.992 1.86636C177.904 2.85532 177.83 3.86611 177.77 4.89796L180.765 5.07277Z" fill="#FFCF57"/>
</svg>