<svg width="48" height="48" viewBox="0 0 48 48" fill="none" xmlns="http://www.w3.org/2000/svg">
<g id="material-symbols:document-scanner-outline">
<path id="Vector" d="M4 12V2H14V6H8V12H4ZM40 12V6H34V2H44V12H40ZM4 46V36H8V42H14V46H4ZM34 46V42H40V36H44V46H34ZM14 36H34V12H14V36ZM14 40C12.9 40 11.958 39.608 11.174 38.824C10.39 38.04 9.99867 37.0987 10 36V12C10 10.9 10.392 9.958 11.176 9.174C11.96 8.39 12.9013 7.99867 14 8H34C35.1 8 36.042 8.392 36.826 9.176C37.61 9.96 38.0013 10.9013 38 12V36C38 37.1 37.608 38.042 36.824 38.826C36.04 39.61 35.0987 40.0013 34 40H14ZM18 20H30V16H18V20ZM18 26H30V22H18V26ZM18 32H30V28H18V32Z" fill="black"/>
</g>
</svg>
