<svg width="42" height="47" viewBox="0 0 42 47" fill="none" xmlns="http://www.w3.org/2000/svg">
<path d="M20.8207 2.36432C15.5933 5.87795 8.98175 8.01736 1.77637 8.1251C2.42538 29.4158 20.8207 43.7716 20.8207 43.7716C20.8207 43.7716 39.2161 29.4158 39.8651 8.1251C32.6597 8.01956 26.0482 5.88015 20.8207 2.36432Z" fill="#161616"/>
<path d="M10.9692 34.8622C15.6618 41.1541 19.8083 44.7188 20 44.8686C20.1917 45.0184 21 45.5 21 45.5C21 45.5 21.629 45.05 21.8207 44.9002C22.0124 44.7505 26.3382 41.1541 31.0308 34.8622C35.3754 29.0394 40.6255 19.7326 40.9692 8.46579L41 7.48578L40.0196 7.47036C33.2141 7.36906 26.8229 5.43107 21.5398 1.86558L21 1.5L20.4602 1.86558C15.1771 5.43107 8.78586 7.36906 1.98039 7.47036L1 7.48578L1.03085 8.46579C1.37454 19.7326 6.62459 29.0394 10.9692 34.8622Z" stroke="#D69923" stroke-miterlimit="10"/>
<path d="M28.565 8.14716C28.5775 8.33629 28.5674 8.54182 28.4996 8.72661C28.528 8.53072 28.5068 8.32374 28.4385 8.13365C28.4092 8.05211 28.3683 7.97009 28.2976 7.92088C28.1996 7.85237 28.0591 7.86491 27.9606 7.93342C27.8625 8.00193 27.8038 8.11724 27.7836 8.23593C27.9197 8.22291 28.0712 8.29865 28.1601 8.42265C28.2491 8.54664 28.2736 8.71454 28.2231 8.8588C28.2149 8.76955 28.1741 8.67546 28.1096 8.59875C28.0452 8.52204 27.9538 8.46462 27.8543 8.45594C27.7548 8.44726 27.648 8.49502 27.6009 8.58331C27.7957 8.64169 27.963 8.79753 28.0572 8.99004C28.1515 9.18254 28.1726 9.41075 28.1149 9.61725C28.1087 9.38132 28.0495 9.1232 27.899 8.91718C27.8567 8.85929 27.8057 8.80863 27.7495 8.7652C27.686 8.71599 27.6052 8.66871 27.5225 8.67739C27.4461 8.68511 27.3807 8.7406 27.3408 8.8067C27.3009 8.87279 27.2826 8.94903 27.2643 9.02429C27.5153 9.11789 27.7009 9.37312 27.7591 9.64861C27.8173 9.9241 27.7596 10.215 27.6418 10.4703C27.524 10.726 27.349 10.9503 27.1638 11.1621C26.9792 11.3739 26.7825 11.5761 26.6133 11.8004C26.7696 11.3426 27.0008 10.9108 27.2864 10.519C26.7763 10.8384 26.4147 11.3575 26.1594 11.9128C25.9045 12.4682 25.7492 13.0635 25.5987 13.6565C25.5463 13.5851 25.4477 13.5446 25.3472 13.5397C25.2944 13.5373 25.241 13.5475 25.1958 13.5745C25.0511 13.6623 25.0693 13.849 25.1073 13.9995C25.1549 14.1887 25.2198 14.3768 25.3299 14.5375C25.44 14.6982 25.6006 14.8308 25.7901 14.8762C25.9603 14.9172 26.1469 14.8834 26.2921 14.785C26.4373 14.6866 26.5383 14.5254 26.5642 14.3517C26.4474 14.3469 26.3233 14.2162 26.2916 14.0753C26.2599 13.9344 26.2969 13.7877 26.3363 13.6488C26.4652 13.1938 26.6219 12.7422 26.8676 12.3389C27.1133 11.9355 27.4552 11.5804 27.8827 11.3812C27.6971 11.5061 27.561 11.7324 27.4788 11.9693C27.3966 12.2062 27.3629 12.4571 27.324 12.7051C27.2138 13.4114 27.046 14.1404 26.5955 14.6943C26.4604 14.8603 26.2887 15.0142 26.0781 15.0508C25.9185 15.0788 25.7531 15.0354 25.6098 14.9592C25.2756 14.7816 25.0535 14.4328 24.9688 14.0627C24.8847 13.6932 24.9164 13.3014 25.0212 12.9371C25.102 12.6554 25.2737 12.4074 25.4675 12.1903C25.5752 12.0697 25.693 11.9572 25.779 11.8202C25.818 11.7585 25.8488 11.6899 25.868 11.619C25.5905 11.7459 25.3472 11.9476 25.1645 12.1792C25.3391 11.8892 25.592 11.648 25.8882 11.4854C25.8891 11.4429 25.8848 11.4 25.8733 11.3585C25.6906 11.4164 25.4881 11.5158 25.3035 11.6417C25.3751 11.3469 25.453 11.0565 25.5809 10.7872C25.7088 10.518 25.8896 10.2695 26.13 10.0939C26.2046 10.0394 26.2863 9.99165 26.3767 9.97428C26.4671 9.95691 26.5681 9.97524 26.6349 10.0389C26.7205 10.1205 26.7311 10.2512 26.7354 10.3694C26.8003 10.2208 26.8412 10.0775 26.8292 9.9323C26.8167 9.78708 26.7388 9.63848 26.6037 9.58492C26.5123 9.54922 26.4084 9.56128 26.3156 9.59361C26.1608 9.64813 26.03 9.75475 25.9117 9.86862C25.6819 10.0896 25.4852 10.3453 25.3299 10.6242C25.4295 10.4075 25.5348 10.187 25.6708 9.98586C25.8069 9.78467 25.9757 9.60133 26.1849 9.4783C26.394 9.35527 26.6465 9.29689 26.8835 9.34803C26.9503 9.24719 26.9547 9.08749 26.872 8.97797C26.8114 8.8974 26.7114 8.85301 26.6114 8.84288C26.5113 8.83323 26.4104 8.85494 26.3152 8.88775C26.107 8.95916 25.919 9.08219 25.7516 9.22596C25.5843 9.36974 25.4362 9.53426 25.29 9.69879C25.4814 9.38228 25.6978 9.10728 25.9444 8.86363C26.0589 8.75073 26.182 8.64266 26.3253 8.57029C26.469 8.49791 26.6359 8.46269 26.7922 8.50033C26.8215 8.42265 26.8273 8.34111 26.8071 8.26488C26.7869 8.18865 26.7383 8.11773 26.6686 8.08154C26.5931 8.04198 26.5008 8.04536 26.42 8.07334C26.3397 8.10132 26.2685 8.1515 26.2007 8.20312C25.904 8.42892 25.6353 8.702 25.4631 9.03346C25.643 8.55629 25.9916 8.14378 26.4296 7.87553C26.3238 7.84658 26.2219 7.8075 26.1262 7.75636C26.0156 7.84031 25.9238 7.94645 25.8531 8.06562C25.6699 7.86829 25.5458 7.63188 25.4915 7.38003C25.3977 7.59135 25.2395 7.7771 25.0472 7.91605C25.1713 8.1708 25.252 8.4434 25.2732 8.72082C25.1761 8.47331 25.0804 8.21567 24.9525 7.97395C24.8905 7.85671 24.8193 7.7414 24.7159 7.65841C24.613 7.57543 24.4726 7.52959 24.3462 7.56771C24.2567 7.59473 24.1817 7.66179 24.1394 7.74478C24.0971 7.82776 24.0851 7.9257 24.1009 8.01786C24.2533 8.03233 24.4188 8.09312 24.5491 8.19878C24.6794 8.30444 24.7736 8.45353 24.8135 8.6166C24.8222 8.65231 24.8275 8.69332 24.8058 8.72275C24.7803 8.75797 24.726 8.76134 24.6871 8.74204C24.6476 8.72275 24.6193 8.68753 24.5909 8.65424C24.513 8.5645 24.4231 8.48537 24.324 8.41975C24.1942 8.33387 24.0442 8.26922 23.8841 8.29672C23.8437 8.30348 23.8043 8.31747 23.7687 8.33822C23.5893 8.44436 23.5936 8.6441 23.6172 8.81924C23.7456 8.74687 23.9014 8.75748 24.0302 8.81586C24.1591 8.87424 24.2634 8.97556 24.3529 9.08508C24.626 9.41895 24.7779 9.84208 24.8299 10.271C24.8818 10.6999 24.8376 11.1361 24.7501 11.5592C24.6669 11.9621 24.5418 12.3625 24.3139 12.7046C24.086 13.0467 23.7456 13.3265 23.3455 13.4148C22.9546 13.5011 22.5416 13.3989 22.1858 13.215C21.4501 12.8353 20.9106 12.0938 20.7745 11.275C20.6384 10.4563 20.9087 9.57913 21.4813 8.98039C21.5943 8.86218 21.7222 8.75218 21.8761 8.69573C22.0295 8.63976 22.2137 8.64603 22.3435 8.74542C22.4267 8.50515 22.4156 8.19975 22.1425 8.09167C22.0968 8.07334 22.0473 8.06514 21.9982 8.06466C21.7924 8.06273 21.6213 8.17225 21.4679 8.29383C21.1654 8.53362 20.9082 8.83082 20.7144 9.16517C20.864 8.69476 21.1563 8.2755 21.5386 7.96671C21.6246 7.89724 21.7165 7.83259 21.8198 7.79399C21.9232 7.75539 22.0406 7.74526 22.1439 7.78434C22.166 7.67482 22.1627 7.56192 22.1237 7.45964C22.0853 7.35735 22.0083 7.26713 21.9064 7.22757C21.804 7.188 21.6867 7.20296 21.5862 7.24831C21.4862 7.29318 21.4006 7.36555 21.3207 7.4413C21.038 7.70956 20.8082 8.03426 20.6485 8.39032C20.7904 7.92474 21.0236 7.50933 21.3231 7.14941C21.2606 6.89563 21.0423 6.73786 20.8178 6.74268C20.6351 6.74654 20.4615 6.85799 20.3721 7.01673C20.2826 6.85799 20.109 6.74703 19.9263 6.74268C19.7018 6.73786 19.4835 6.89514 19.421 7.14941C19.7205 7.50933 19.9542 7.92426 20.0956 8.39032C19.9359 8.03378 19.7061 7.70956 19.4234 7.4413C19.3436 7.36555 19.2585 7.29318 19.158 7.24831C19.0579 7.20344 18.9401 7.188 18.8377 7.22757C18.7363 7.26713 18.6593 7.35735 18.6204 7.45964C18.5814 7.56192 18.5781 7.67482 18.6002 7.78434C18.7036 7.74526 18.8204 7.75539 18.9243 7.79399C19.0281 7.83259 19.1195 7.89724 19.2056 7.96671C19.5878 8.2755 19.8802 8.69428 20.0297 9.16517C19.8359 8.83082 19.5787 8.53362 19.2762 8.29383C19.1229 8.17225 18.9512 8.06224 18.7459 8.06466C18.6968 8.06514 18.6473 8.07382 18.6016 8.09167C18.328 8.19926 18.317 8.50515 18.4006 8.74542C18.5305 8.64603 18.7141 8.63976 18.868 8.69573C19.0214 8.75169 19.1493 8.86218 19.2628 8.98039C19.8359 9.57913 20.1062 10.4563 19.9696 11.275C19.833 12.0938 19.294 12.8353 18.5584 13.215C18.2025 13.3989 17.7895 13.5007 17.3986 13.4148C16.9985 13.3265 16.6576 13.0462 16.4302 12.7046C16.2028 12.363 16.0773 11.9621 15.9941 11.5592C15.9066 11.1361 15.8628 10.6999 15.9143 10.271C15.9662 9.84208 16.1181 9.41895 16.3912 9.08508C16.4807 8.97556 16.5855 8.87424 16.7139 8.81586C16.8423 8.75748 16.9985 8.74687 17.1269 8.81924C17.1505 8.6441 17.1548 8.44436 16.9755 8.33822C16.9399 8.31747 16.9004 8.30348 16.8601 8.29672C16.6999 8.26922 16.5494 8.33387 16.4201 8.41975C16.321 8.48537 16.2311 8.5645 16.1532 8.65424C16.1244 8.68704 16.096 8.72275 16.0571 8.74204C16.0176 8.76134 15.9638 8.75845 15.9383 8.72275C15.9167 8.69283 15.9219 8.65182 15.9306 8.6166C15.9705 8.45353 16.0648 8.30444 16.1951 8.19878C16.3254 8.09312 16.4908 8.03233 16.6432 8.01786C16.6586 7.9257 16.647 7.82824 16.6047 7.74478C16.5624 7.66131 16.4869 7.59473 16.398 7.56771C16.2715 7.52959 16.1311 7.57543 16.0282 7.65841C15.9253 7.7414 15.8537 7.85671 15.7916 7.97395C15.6637 8.21567 15.5681 8.47331 15.4709 8.72082C15.4921 8.4434 15.5729 8.17032 15.6969 7.91605C15.5046 7.7771 15.3464 7.59087 15.2526 7.38003C15.1978 7.63188 15.0742 7.86829 14.891 8.06562C14.8204 7.94693 14.7285 7.84031 14.6179 7.75636C14.5222 7.8075 14.4203 7.84658 14.3145 7.87553C14.7526 8.14378 15.1012 8.55629 15.281 9.03346C15.1093 8.70152 14.8406 8.42892 14.5434 8.20312C14.4756 8.1515 14.4044 8.10132 14.3241 8.07334C14.2434 8.04536 14.151 8.0415 14.0755 8.08154C14.0058 8.11821 13.9573 8.18865 13.9371 8.26488C13.9169 8.34111 13.9226 8.42265 13.952 8.50033C14.1082 8.46269 14.2756 8.49791 14.4189 8.57029C14.5621 8.64266 14.6852 8.75073 14.7997 8.86363C15.0463 9.10776 15.2627 9.38277 15.4541 9.69879C15.3074 9.53378 15.1593 9.36926 14.9925 9.22596C14.8252 9.08219 14.6376 8.95964 14.429 8.88775C14.3338 8.85494 14.2333 8.83323 14.1328 8.84288C14.0328 8.85253 13.9332 8.8974 13.8722 8.97797C13.7894 9.08749 13.7938 9.24671 13.8606 9.34803C14.0977 9.29689 14.3501 9.35527 14.5593 9.4783C14.7684 9.60133 14.9372 9.78467 15.0733 9.98586C15.2094 10.187 15.3147 10.4075 15.4142 10.6242C15.2594 10.3453 15.0622 10.0896 14.8324 9.86862C14.7141 9.75475 14.5833 9.64813 14.4285 9.59361C14.3357 9.56128 14.2318 9.54874 14.1405 9.58492C14.0053 9.63799 13.927 9.78708 13.9149 9.9323C13.9024 10.0775 13.9438 10.2208 14.0087 10.3694C14.013 10.2512 14.0236 10.1205 14.1092 10.0389C14.176 9.97524 14.277 9.95739 14.3674 9.97428C14.4578 9.99116 14.5395 10.0394 14.6141 10.0939C14.854 10.2695 15.0348 10.518 15.1632 10.7872C15.2916 11.0565 15.369 11.3469 15.4406 11.6417C15.256 11.5158 15.0536 11.4164 14.8708 11.3585C14.8593 11.4 14.855 11.4429 14.8559 11.4854C15.1521 11.648 15.4051 11.8892 15.5796 12.1792C15.3969 11.9476 15.1536 11.7459 14.8761 11.619C14.8954 11.6899 14.9261 11.758 14.9651 11.8202C15.0507 11.9572 15.169 12.0697 15.2767 12.1903C15.4704 12.4074 15.6421 12.6559 15.7229 12.9371C15.8272 13.3019 15.8594 13.6932 15.7753 14.0627C15.6911 14.4323 15.4685 14.7816 15.1343 14.9592C14.9911 15.0354 14.8256 15.0788 14.666 15.0508C14.4554 15.0142 14.2842 14.8607 14.1486 14.6943C13.6976 14.1404 13.5303 13.4119 13.4202 12.7051C13.3812 12.4571 13.3476 12.2062 13.2653 11.9693C13.1831 11.7324 13.047 11.5061 12.8614 11.3812C13.2889 11.5804 13.6308 11.9355 13.8765 12.3389C14.1222 12.7422 14.2789 13.1938 14.4078 13.6488C14.4472 13.7877 14.4843 13.9344 14.4525 14.0753C14.4208 14.2162 14.2962 14.3469 14.1799 14.3517C14.2059 14.5254 14.3068 14.6866 14.452 14.785C14.5972 14.8834 14.7838 14.9172 14.954 14.8762C15.143 14.8308 15.3036 14.6982 15.4142 14.5375C15.5248 14.3768 15.5892 14.1887 15.6368 13.9995C15.6748 13.849 15.6931 13.6623 15.5483 13.5745C15.5031 13.547 15.4498 13.5368 15.3969 13.5397C15.2964 13.5446 15.1978 13.5856 15.1454 13.6565C14.9949 13.064 14.8396 12.4687 14.5847 11.9128C14.3299 11.3575 13.9678 10.8384 13.4577 10.519C13.7433 10.9108 13.9746 11.343 14.1308 11.8004C13.9616 11.5761 13.7649 11.3739 13.5803 11.1621C13.3956 10.9503 13.2201 10.726 13.1023 10.4703C12.9845 10.2145 12.9268 9.9241 12.985 9.64861C13.0432 9.37312 13.2288 9.11789 13.4798 9.02429C13.462 8.94903 13.4432 8.87279 13.4033 8.8067C13.3634 8.7406 13.2985 8.6856 13.2216 8.67739C13.1384 8.66871 13.0576 8.71647 12.9946 8.7652C12.9384 8.80863 12.8869 8.85977 12.8451 8.91718C12.6946 9.1232 12.6354 9.38132 12.6292 9.61725C12.5715 9.41027 12.5922 9.18254 12.6869 8.99004C12.7811 8.79753 12.9485 8.64169 13.1432 8.58331C13.0956 8.49502 12.9893 8.44774 12.8898 8.45594C12.7903 8.46462 12.6989 8.52204 12.6345 8.59875C12.5701 8.67546 12.5292 8.76955 12.521 8.8588C12.4705 8.71454 12.495 8.54664 12.584 8.42265C12.673 8.29914 12.8249 8.22291 12.9605 8.23593C12.9403 8.11773 12.8816 8.00193 12.7835 7.93342C12.6855 7.86491 12.5451 7.85285 12.4465 7.92088C12.3758 7.97009 12.3349 8.05259 12.3056 8.13365C12.2373 8.32374 12.2162 8.53072 12.2445 8.72661C12.1767 8.54182 12.1666 8.33677 12.1791 8.14716C11.5815 7.44178 10.8323 6.86668 10 6.5C10.4419 6.87826 10.8626 7.29367 11.1646 7.79206C11.4665 8.29045 11.6435 8.88148 11.5815 9.48023C11.6257 9.39676 11.7387 9.36636 11.8281 9.39676C11.9176 9.42715 11.9844 9.50435 12.0262 9.58878C12.0681 9.67322 12.0887 9.76681 12.1157 9.858C12.2114 10.1856 12.3864 10.4891 12.6215 10.7356C12.9297 11.0589 13.3303 11.2774 13.6615 11.5766C14.1179 11.9881 14.4338 12.5541 14.5357 13.1678C14.3578 12.7176 14.1741 12.2578 13.8572 11.8931C13.3673 11.3291 12.5907 11.029 12.2272 10.3752C12.1219 10.1856 12.057 9.97428 11.9435 9.78949C11.8921 9.70602 11.8161 9.62014 11.7108 9.64234C11.6632 9.65247 11.6223 9.68576 11.5973 9.72773C11.5444 9.81603 11.555 9.91976 11.5771 10.0158C11.656 10.3549 11.8815 10.6575 12.1931 10.8118C12.1546 11.0729 12.1738 11.3421 12.2657 11.5693C12.4085 11.5384 12.56 11.6084 12.6576 11.7174C12.7552 11.8265 12.8066 11.9698 12.8398 12.1131C12.9047 12.3968 12.9042 12.6949 12.8273 12.9878C12.5249 12.3558 12.0166 11.8246 11.4213 11.5172C12.4547 12.6862 13.1918 14.1173 13.5846 15.666C13.6596 15.5507 13.812 15.4962 13.9457 15.5266C14.0794 15.557 14.1895 15.667 14.2328 15.7977C14.2761 15.9285 14.2554 16.0766 14.189 16.1967C14.1222 16.3173 14.0121 16.4104 13.8909 16.4891C14.1058 16.3757 14.3862 16.4013 14.578 16.5508C14.7699 16.7009 14.8627 16.9672 14.8059 17.2041C14.7492 17.441 14.5458 17.6364 14.3107 17.6832C14.2631 18.0161 14.3559 18.3669 14.5588 18.6298C14.5588 18.6298 14.5371 18.8378 14.7203 18.7688C14.6429 18.8358 14.6453 18.9593 14.7271 19.0216C14.7295 19.0235 14.7324 19.0254 14.7348 19.0274C14.7992 19.0747 14.8891 19.0611 14.9444 19.0032C14.9526 18.9946 14.9617 18.9864 14.9704 18.9782C14.9867 19.0558 15.0483 19.1972 15.2747 19.2903C15.6017 19.4249 16.949 19.8924 20.3754 19.8924C23.8018 19.8924 25.1491 19.4244 25.4761 19.2903C25.7026 19.1972 25.7641 19.0558 25.7805 18.9782C25.7891 18.9864 25.7978 18.9946 25.8064 19.0032C25.8622 19.0607 25.9517 19.0742 26.0161 19.0274C26.0185 19.0254 26.0214 19.0235 26.0238 19.0216C26.1055 18.9593 26.1079 18.8358 26.0305 18.7688C26.2137 18.8378 26.1921 18.6298 26.1921 18.6298C26.395 18.3669 26.4878 18.0161 26.4402 17.6832C26.2046 17.6359 26.0017 17.441 25.9449 17.2041C25.8882 16.9672 25.981 16.7009 26.1728 16.5508C26.3647 16.4013 26.6445 16.3757 26.8599 16.4891C26.7388 16.4104 26.6287 16.3168 26.5618 16.1967C26.495 16.0761 26.4748 15.9285 26.5181 15.7977C26.5613 15.667 26.6715 15.5574 26.8051 15.5266C26.9388 15.4957 27.0912 15.5502 27.1662 15.666C27.5596 14.1173 28.2962 12.6862 29.3295 11.5172C28.7338 11.8241 28.226 12.3553 27.9236 12.9878C27.8461 12.6949 27.8457 12.3963 27.911 12.1131C27.9437 11.9703 27.9957 11.827 28.0933 11.7174C28.1909 11.6079 28.3424 11.5384 28.4852 11.5693C28.5775 11.3421 28.5962 11.0729 28.5578 10.8118C28.8694 10.657 29.0949 10.3549 29.1737 10.0158C29.1958 9.91976 29.2064 9.81603 29.1535 9.72773C29.1285 9.68576 29.0877 9.65247 29.04 9.64234C28.9347 9.61966 28.8588 9.70602 28.8073 9.78949C28.6938 9.97476 28.6289 10.1856 28.5236 10.3752C28.1601 11.029 27.3836 11.3291 26.8936 11.8931C26.5767 12.2583 26.3931 12.7176 26.2152 13.1678C26.3171 12.5536 26.633 11.9881 27.0893 11.5766C27.4206 11.2774 27.8211 11.0589 28.1293 10.7356C28.3645 10.4891 28.5395 10.1851 28.6352 9.858C28.6616 9.7673 28.6823 9.6737 28.7246 9.58878C28.7669 9.50387 28.8333 9.42667 28.9227 9.39676C29.0122 9.36685 29.1247 9.39676 29.1694 9.48023C29.1074 8.88148 29.2843 8.29045 29.5863 7.79206C29.8882 7.29367 30.3085 6.87874 30.7509 6.5C29.9185 6.86668 29.1694 7.44178 28.5717 8.14716H28.565ZM10.8333 7.13783C11.3098 7.42345 11.669 7.89965 11.8089 8.468C11.606 7.95369 11.2112 7.54407 10.8333 7.13783ZM22.0329 13.9383C22.2699 14.1216 22.5589 14.247 22.8585 14.2533C23.1633 14.2596 23.4633 14.1419 23.7076 13.9585C23.9519 13.7752 24.1442 13.5296 24.299 13.2657C24.1995 13.5764 24.0081 13.8654 23.7485 14.0791C23.4888 14.2929 23.1575 14.4275 22.8219 14.4178C22.5012 14.4092 22.1901 14.2692 21.9511 14.0545C21.7121 13.8398 21.5424 13.5537 21.441 13.2478C21.6068 13.5156 21.7963 13.7544 22.0333 13.9378L22.0329 13.9383ZM20.3697 12.3297C20.3697 12.3297 20.813 12.7885 20.813 13.2483C20.813 13.7081 20.575 13.8968 20.4024 13.8968H20.337C20.1643 13.8968 19.9263 13.7081 19.9263 13.2483C19.9263 12.7885 20.3697 12.3297 20.3697 12.3297ZM17.0322 13.9585C17.2765 14.1419 17.576 14.2596 17.8813 14.2533C18.1804 14.247 18.4694 14.1216 18.7069 13.9383C18.944 13.7549 19.1334 13.5161 19.2993 13.2483C19.1983 13.5537 19.0281 13.8403 18.7892 14.055C18.5502 14.2697 18.2391 14.4096 17.9184 14.4183C17.5827 14.4275 17.2515 14.2934 16.9918 14.0796C16.7322 13.8659 16.5408 13.5764 16.4412 13.2662C16.5961 13.5296 16.7884 13.7757 17.0327 13.959L17.0322 13.9585ZM14.4097 16.2363C14.3977 16.0838 14.5218 15.9497 14.6607 15.887C14.8002 15.8247 14.956 15.8141 15.1045 15.7794C15.5517 15.6756 15.9373 15.3365 16.0984 14.9056C16.1258 14.8323 16.1479 14.7556 16.1888 14.6885C16.2297 14.6214 16.296 14.5645 16.3739 14.5573C16.5239 14.5433 16.622 14.703 16.7177 14.8197C16.9673 15.1251 17.3947 15.2226 17.7881 15.213C18.1213 15.2052 18.4564 15.1329 18.7507 14.9751C19.0445 14.8173 19.2955 14.5698 19.4691 14.2577C19.5037 14.4733 19.6321 14.6716 19.8143 14.7913C19.8744 14.8304 19.9427 14.8651 19.9773 14.9278C20.0071 14.9828 20.0042 15.0542 19.9691 15.1063C19.934 15.1584 19.8706 15.1671 19.7922 15.1729C18.0285 15.3041 16.0763 15.4407 14.4092 16.2353L14.4097 16.2363ZM21.0472 16.1335C21.014 16.3699 20.8505 16.5846 20.6307 16.6758C20.4177 16.7641 20.1634 16.7347 19.9677 16.6121C19.772 16.4896 19.633 16.2802 19.6224 16.0568C19.6152 15.9014 19.6633 15.7446 19.7552 15.6197C19.8465 15.4942 19.9802 15.4011 20.1288 15.3567C20.3567 15.2882 20.6178 15.3408 20.8005 15.4942C20.9832 15.6477 21.0808 15.8976 21.0476 16.134L21.0472 16.1335ZM21.2703 17.3305C22.1064 17.3759 22.9739 17.4328 23.8196 17.6137C24.3264 17.7223 24.827 17.8781 25.2958 18.0976C25.44 18.171 25.3458 18.3099 25.2246 18.2487C25.2217 18.2472 25.2198 18.2467 25.2169 18.2453C24.7558 18.0219 24.2505 17.8772 23.7441 17.7865C22.8647 17.6287 21.967 17.6171 21.0779 17.5288C20.9991 17.5211 20.9183 17.5119 20.849 17.4738C20.7596 17.4246 20.6937 17.3141 20.7587 17.2133C20.8019 17.1462 20.8837 17.1177 20.963 17.1279C21.0904 17.1443 21.1842 17.2393 21.2703 17.3305ZM19.8907 17.4738C19.8215 17.5119 19.7402 17.5211 19.6619 17.5288C18.7733 17.6171 17.8751 17.6287 16.9956 17.7865C16.4893 17.8772 15.984 18.0214 15.5229 18.2453C15.5205 18.2463 15.518 18.2472 15.5152 18.2487C15.3935 18.3104 15.2997 18.1715 15.444 18.0976C15.9128 17.8781 16.4134 17.7223 16.9202 17.6137C17.7664 17.4323 18.6334 17.3759 19.4695 17.3305C19.5556 17.2393 19.6498 17.1443 19.7768 17.1279C19.8556 17.1177 19.9379 17.1462 19.9811 17.2133C20.0461 17.3141 19.9802 17.4246 19.8907 17.4738ZM15.0425 16.5793C14.954 16.5827 14.867 16.5214 14.8406 16.437C14.8141 16.3525 14.8516 16.2517 14.9276 16.2064C15.0036 16.161 15.1103 16.1755 15.2079 16.2503C16.4513 15.7958 17.8366 15.5676 19.157 15.5734C19.2493 15.5179 19.344 15.4691 19.4705 15.5034C19.5123 15.5145 19.5542 15.5338 19.5792 15.5695C19.6147 15.6202 19.6037 15.6945 19.5643 15.7417C19.5248 15.7895 19.4623 15.8131 19.4008 15.8189C19.3142 15.8271 19.2248 15.8016 19.1599 15.7596C17.8376 15.7466 16.5134 15.9695 15.268 16.4148C15.2127 16.5094 15.131 16.5759 15.0425 16.5793ZM20.3697 19.6551C17.8429 19.6551 15.1579 19.3844 15.1579 18.8831C15.1579 18.5936 16.0075 18.3881 16.7201 18.267C17.7424 18.0933 19.0387 17.9978 20.3697 17.9978C21.7006 17.9978 22.9964 18.0933 24.0192 18.267C24.7318 18.3881 25.5814 18.5931 25.5814 18.8831C25.5814 19.3844 22.896 19.6551 20.3697 19.6551ZM25.8988 16.437C25.8723 16.5219 25.7853 16.5827 25.6968 16.5793C25.6083 16.5759 25.5266 16.5094 25.4713 16.4148C24.2259 15.9695 22.9017 15.7466 21.5794 15.7596C21.514 15.8016 21.4251 15.8271 21.3385 15.8189C21.277 15.8131 21.2145 15.7895 21.1751 15.7417C21.1356 15.694 21.1246 15.6202 21.1601 15.5695C21.1852 15.5338 21.227 15.515 21.2688 15.5034C21.3953 15.4691 21.49 15.5179 21.5823 15.5734C22.9027 15.5676 24.288 15.7958 25.5314 16.2503C25.6295 16.1755 25.7362 16.1605 25.8117 16.2064C25.8877 16.2517 25.9252 16.3525 25.8988 16.437ZM26.3296 16.2363C24.6621 15.4416 22.7104 15.3051 20.9467 15.1739C20.8683 15.1681 20.8048 15.1594 20.7697 15.1073C20.7346 15.0552 20.7312 14.9838 20.7615 14.9288C20.7962 14.8656 20.8644 14.8313 20.9245 14.7922C21.1068 14.6726 21.2352 14.4743 21.2698 14.2586C21.4434 14.5708 21.6944 14.8178 21.9881 14.9761C22.2819 15.1338 22.6171 15.2062 22.9508 15.2139C23.3441 15.2231 23.7716 15.1261 24.0211 14.8207C24.1168 14.7035 24.2149 14.5442 24.3649 14.5582C24.4428 14.5655 24.5087 14.6229 24.55 14.6895C24.5914 14.7561 24.613 14.8328 24.6409 14.9066C24.8025 15.3374 25.1881 15.6766 25.6348 15.7803C25.7834 15.8151 25.9392 15.8257 26.0786 15.8879C26.218 15.9502 26.3416 16.0843 26.3296 16.2372V16.2363ZM26.8494 15.1893C26.6118 15.4624 26.2527 15.6342 25.892 15.6149C25.5242 15.5951 25.1842 15.3828 24.953 15.0952C24.7217 14.8077 24.5899 14.4506 24.5072 14.0917C24.4942 14.152 24.4803 14.2147 24.4442 14.2639C24.4365 14.2745 24.425 14.2856 24.4115 14.2837C24.4019 14.2823 24.3952 14.2736 24.3923 14.2649C24.3894 14.2557 24.3899 14.2461 24.3904 14.2364C24.3938 14.1819 24.4005 14.1279 24.3726 14.0849C24.1485 14.4603 23.822 14.7922 23.4085 14.9312C23.0094 15.0653 22.5579 15.004 22.1867 14.8048C21.8155 14.6055 21.5222 14.2774 21.3188 13.9064C21.3188 13.9561 21.3193 14.0068 21.3063 14.0545C21.3039 14.0637 21.3006 14.0734 21.2943 14.0806C21.288 14.0878 21.278 14.0927 21.2688 14.0907C21.2534 14.0869 21.2481 14.068 21.2462 14.0521C21.24 14.0024 21.238 13.9518 21.2265 13.919C21.1544 14.1202 21.064 14.3189 20.9221 14.4786C20.7808 14.6388 20.5788 14.7276 20.3697 14.7276C20.1605 14.7276 19.959 14.6388 19.8172 14.4786C19.6758 14.3189 19.5849 14.1202 19.5128 13.919C19.5008 13.9518 19.4993 14.0024 19.4931 14.0521C19.4912 14.068 19.4859 14.0869 19.4705 14.0907C19.4609 14.0931 19.4513 14.0878 19.445 14.0806C19.4388 14.0734 19.4354 14.0637 19.433 14.0545C19.42 14.0068 19.42 13.9561 19.4205 13.9064C19.2171 14.277 18.9238 14.6055 18.5526 14.8048C18.1814 15.004 17.7299 15.0653 17.3308 14.9312C16.9173 14.7922 16.5913 14.4603 16.3667 14.0849C16.3388 14.1279 16.3456 14.1819 16.3489 14.2364C16.3494 14.2461 16.3499 14.2557 16.347 14.2649C16.3441 14.2741 16.3369 14.2823 16.3278 14.2837C16.3148 14.2861 16.3032 14.275 16.2951 14.2639C16.2585 14.2142 16.2446 14.152 16.2321 14.0917C16.1494 14.4506 16.0176 14.8072 15.7864 15.0952C15.5551 15.3828 15.2151 15.5956 14.8473 15.6149C14.4867 15.6342 14.1275 15.4624 13.8899 15.1893C13.6524 14.9162 13.5322 14.551 13.5274 14.1887C13.6356 14.4671 13.7543 14.7633 13.9457 15.0122C14.1371 15.2612 14.4126 15.4609 14.7242 15.4928C15.0079 15.5217 15.2949 15.4069 15.5108 15.2202C15.7267 15.033 15.8772 14.7792 15.9806 14.5124C16.084 14.2456 16.1431 13.9643 16.2109 13.6811C16.3595 13.9248 16.5095 14.1703 16.7009 14.3817C16.8918 14.5935 17.1288 14.7725 17.4029 14.8501C17.8232 14.9698 18.2977 14.8477 18.6531 14.5925C19.0084 14.3373 19.2868 13.9773 19.5046 13.5827C19.5599 13.7988 19.645 14.0073 19.7561 14.2007C19.822 14.3146 19.8984 14.4251 20.0018 14.5061C20.1052 14.5877 20.236 14.6292 20.3697 14.6292C20.5033 14.6292 20.6341 14.5877 20.7375 14.5061C20.8409 14.4251 20.9173 14.3146 20.9832 14.2007C21.0948 14.0077 21.1799 13.7988 21.2347 13.5827C21.4525 13.9773 21.7309 14.3373 22.0862 14.5925C22.4416 14.8477 22.9162 14.9698 23.3364 14.8501C23.6105 14.772 23.8475 14.5935 24.0384 14.3817C24.2293 14.1698 24.3793 13.9248 24.5284 13.6811C24.5962 13.9638 24.6553 14.2456 24.7587 14.5124C24.8621 14.7792 25.0126 15.033 25.2285 15.2202C25.4444 15.4074 25.7314 15.5217 26.0151 15.4928C26.3267 15.4609 26.6022 15.2612 26.7936 15.0122C26.985 14.7633 27.1037 14.4671 27.2119 14.1887C27.2071 14.551 27.0869 14.9162 26.8494 15.1893ZM28.9304 8.468C29.0699 7.89965 29.4295 7.42393 29.906 7.13783C29.5286 7.54359 29.1333 7.95369 28.9304 8.468Z" fill="#D69923"/>
<path d="M10.2412 29.3341L13.3377 33.3016L13.3391 33.3036L16.3014 36.2429L20.8745 39.9452L25.4744 36.2456L25.4758 36.2443L28.4281 33.315H28.4314L28.4764 33.2621L28.4744 33.2581L31.5374 29.3334L28.4891 24.2922L29.0287 23.7569L26.7898 20.3943L24.5067 19.7981L21.8705 18.4899H19.9081L17.2719 19.7981L14.9887 20.3943L12.7498 23.7569L13.2887 24.2922L10.2546 29.31L10.2405 29.3328L10.2412 29.3341ZM17.5867 24.0805L17.8981 24.5152L17.0833 25.3452L15.6927 24.9446L17.5867 24.0798V24.0805ZM14.5236 25.392L13.8901 24.0778L14.4062 22.8828L17.3954 24.0805L14.5236 25.3914V25.392ZM17.9444 24.5802L20.5732 26.5696L20.2309 29.1512L15.8135 26.7974L15.8041 26.7612L17.9437 24.5809L17.9444 24.5802ZM18.0034 24.5266L20.2356 23.9438L20.8483 24.4965L20.5853 26.4799L18.0034 24.5266ZM23.8584 24.5842L23.8631 24.5809L24.9624 25.7002L24.965 25.7196L24.9838 25.7223L25.9825 26.7398L21.5779 29.1586L21.2342 26.5696L23.8577 24.5849L23.8584 24.5842ZM21.2228 26.4792L20.9597 24.4958L21.5725 23.9432L23.8047 24.5259L21.2228 26.4792ZM26.3382 25.0725L25.0006 25.6258L23.91 24.5145L24.1738 24.1461L26.3382 25.0725ZM24.3557 24.1388L27.5214 22.8821L27.9771 23.8996L27.2831 25.392L24.3557 24.1388ZM26.7214 29.3502L24.3516 32.1495L26.0442 26.8865L26.7214 29.3502ZM26.108 26.8202L31.2851 29.233L26.7784 29.2618L26.1073 26.8208L26.108 26.8202ZM25.9798 26.8309L24.2295 32.2721L21.8416 31.1166V31.1146L21.8369 31.1112L21.5893 29.241L25.9798 26.8302V26.8309ZM17.5705 32.3792L17.6028 32.323L17.6007 32.321L19.941 31.215L19.6396 32.3873L19.6604 32.4321L20.8624 33.0189L20.8054 34.0351L19.5813 35.8564L17.5699 32.3786L17.5705 32.3792ZM19.5041 35.8805L16.4142 34.3881L17.5256 32.4583L19.5041 35.8805ZM20.8457 34.1168L22.1812 35.9395L20.904 36.5564L19.6235 35.9375V35.9355L20.8457 34.1161V34.1168ZM20.8846 34.0364L20.9416 33.0216L22.1476 32.4321L22.1685 32.3873L21.8678 31.2157L24.1993 32.3444L22.2429 35.8892L20.8853 34.0364H20.8846ZM24.2543 32.4074L25.3946 34.3874L22.3497 35.8584L24.2543 32.4074ZM22.0846 32.3759L20.9047 32.952L19.7249 32.3759L20.0363 31.1635H21.7732L22.0846 32.3759ZM19.9718 31.1112L19.9678 31.1146V31.1159L17.5497 32.2587L17.4893 32.1877L16.3974 29.0521L15.841 26.8999L20.2208 29.2336L19.9718 31.1119V31.1112ZM16.3216 29.0729L17.3477 32.0202L15.088 29.3508L15.7612 26.9026L16.3222 29.0735L16.3216 29.0729ZM15.0303 29.2611H10.4955L15.6974 26.8222L15.7008 26.8242L15.031 29.2618L15.0303 29.2611ZM15.039 29.4145L17.4195 32.2265L17.4444 32.2982L13.4357 33.2206L15.039 29.4138V29.4145ZM13.4478 33.2989L17.4766 32.3719L17.4806 32.3792L16.3256 34.3854L15.6639 35.4987L13.4478 33.2996V33.2989ZM16.3565 36.1853L15.7216 35.5557L16.3753 34.4558L17.8108 35.1491L17.1061 36.7922L16.3565 36.1853ZM17.1699 36.8438L17.882 35.1832L19.5074 35.9683L19.4967 35.9844L19.5276 36.0051L18.7907 38.1553L17.1699 36.8431V36.8438ZM20.8752 39.8434L18.8558 38.2089L19.6068 36.0165L20.8873 36.6354L20.9047 36.6435L22.2295 36.0038L22.2342 36.0105L22.9087 38.2083L20.8752 39.8434ZM22.9745 38.1547L22.3094 35.9857L22.3127 35.9837L22.306 35.975L22.304 35.9683L23.9275 35.1839L24.606 36.8438L22.9751 38.1553L22.9745 38.1547ZM25.4234 36.1853L24.6691 36.7915L23.9979 35.1491L25.4315 34.4564L25.9999 35.6126L25.4234 36.1846V36.1853ZM26.059 35.5543L25.5026 34.4223L25.5046 34.4209L24.3322 32.3853L28.3368 33.2936L26.0583 35.5543H26.059ZM24.3255 32.3035L26.7711 29.4152L28.3744 33.2219L24.3255 32.3035ZM31.4428 29.3274L28.4402 33.1743L26.8247 29.3388L31.432 29.31L31.4428 29.3274ZM31.3515 29.1767L26.0711 26.7163L25.1113 25.7384L29.6314 26.3325L31.3508 29.1767H31.3515ZM29.5797 26.2468L25.1214 25.6607L26.4214 25.1234L26.414 25.1054L27.3234 25.4945L27.7462 24.5862L28.4099 24.3129L29.5797 26.2474V26.2468ZM28.9274 23.7462L28.4536 24.2165L28.4509 24.2104L27.7945 24.4804L28.0643 23.9003L27.563 22.7816L24.1932 24.1193L26.7737 20.5135L28.9267 23.7469L28.9274 23.7462ZM26.718 20.4559L23.8543 24.4576L22.4215 24.0832L24.5013 19.8765L26.7187 20.4553L26.718 20.4559ZM24.4281 19.8464L22.3436 24.0631L21.6134 23.8722L23.1899 19.2315L24.4281 19.8457V19.8464ZM20.9436 18.5683H21.8517L23.1181 19.1966L21.5275 23.8775L20.947 24.4013L20.943 24.3719V18.5683H20.9436ZM21.7544 31.0851H20.0544L20.904 24.6753L21.7544 31.0851ZM19.9269 18.5683H20.8651V24.3719L20.8611 24.4013L20.2812 23.8782L18.8564 19.0995L19.9269 18.5683ZM17.3001 19.8718L18.7846 19.135L20.1973 23.8722L19.4665 24.0631L17.5417 19.7888L17.4699 19.8209L19.39 24.0832L17.9551 24.4576L15.0867 20.4492L17.3008 19.8712L17.3001 19.8718ZM12.8512 23.7469L15.0189 20.4914L17.5799 24.0698L14.3646 22.7816L13.8042 24.0798L13.984 24.4529L13.3887 24.2814L12.8512 23.7476V23.7469ZM13.37 24.3102L13.3572 24.3538L14.029 24.5474L14.486 25.4959L15.5827 24.9955L16.9055 25.3766L12.2015 26.2434L13.37 24.3109V24.3102ZM12.1472 26.3325L16.99 25.4403L15.737 26.717L15.6981 26.7351L15.6598 26.7143L15.6317 26.7659L10.4022 29.2182L12.1472 26.3325ZM14.9833 29.3401L13.3579 33.1998L10.3452 29.3401H14.9833Z" fill="#FEBB12"/>
</svg>
