<svg width="48" height="48" viewBox="0 0 48 48" fill="none" xmlns="http://www.w3.org/2000/svg">
<g id="message-circle">
<path id="Vector" d="M42 23.0001C42.0069 25.6398 41.3901 28.2438 40.2 30.6001C38.7889 33.4235 36.6195 35.7984 33.9349 37.4586C31.2503 39.1188 28.1565 39.9988 25 40.0001C22.3603 40.0069 19.7562 39.3902 17.4 38.2001L6 42.0001L9.8 30.6001C8.60986 28.2438 7.99312 25.6398 8 23.0001C8.00122 19.8436 8.88122 16.7498 10.5414 14.0652C12.2017 11.3806 14.5765 9.21119 17.4 7.80006C19.7562 6.60992 22.3603 5.99317 25 6.00006H26C30.1687 6.23004 34.1061 7.98958 37.0583 10.9418C40.0105 13.894 41.77 17.8314 42 22.0001V23.0001Z" stroke="white" stroke-width="2" stroke-linecap="round" stroke-linejoin="round"/>
</g>
</svg>
