<svg width="48" height="48" viewBox="0 0 48 48" fill="none" xmlns="http://www.w3.org/2000/svg">
<g id="ph:ruler">
<path id="Vector" d="M44.1225 13.7569L34.2431 3.87941C33.9645 3.60076 33.6338 3.37972 33.2697 3.22892C32.9057 3.07811 32.5155 3.00049 32.1215 3.00049C31.7275 3.00049 31.3373 3.07811 30.9733 3.22892C30.6093 3.37972 30.2785 3.60076 30 3.87941L3.87746 30C3.59881 30.2786 3.37777 30.6094 3.22696 30.9734C3.07616 31.3374 2.99854 31.7276 2.99854 32.1216C2.99854 32.5156 3.07616 32.9058 3.22696 33.2698C3.37777 33.6338 3.59881 33.9646 3.87746 34.2432L13.7568 44.1207C14.0354 44.3993 14.3662 44.6204 14.7302 44.7712C15.0942 44.922 15.4844 44.9996 15.8784 44.9996C16.2724 44.9996 16.6626 44.922 17.0266 44.7712C17.3906 44.6204 17.7214 44.3993 18 44.1207L44.1225 18C44.4011 17.7215 44.6221 17.3907 44.773 17.0267C44.9238 16.6627 45.0014 16.2725 45.0014 15.8785C45.0014 15.4844 44.9238 15.0943 44.773 14.7303C44.6221 14.3662 44.4011 14.0355 44.1225 13.7569ZM15.8775 42L5.99996 32.1207L12 26.1207L16.9387 31.0613C17.0781 31.2007 17.2435 31.3112 17.4256 31.3866C17.6077 31.462 17.8029 31.5009 18 31.5009C18.1971 31.5009 18.3922 31.462 18.5743 31.3866C18.7564 31.3112 18.9218 31.2007 19.0612 31.0613C19.2006 30.9219 19.3111 30.7565 19.3865 30.5744C19.462 30.3923 19.5008 30.1971 19.5008 30C19.5008 29.8029 19.462 29.6078 19.3865 29.4257C19.3111 29.2436 19.2006 29.0782 19.0612 28.9388L14.1206 24L18 20.1207L22.9387 25.0613C23.2202 25.3427 23.6019 25.5009 24 25.5009C24.398 25.5009 24.7797 25.3427 25.0612 25.0613C25.3427 24.7798 25.5008 24.3981 25.5008 24C25.5008 23.602 25.3427 23.2202 25.0612 22.9388L20.1206 18L24 14.1207L28.9387 19.0613C29.0781 19.2007 29.2435 19.3112 29.4256 19.3866C29.6077 19.462 29.8029 19.5009 30 19.5009C30.1971 19.5009 30.3922 19.462 30.5743 19.3866C30.7564 19.3112 30.9218 19.2007 31.0612 19.0613C31.2006 18.9219 31.3111 18.7565 31.3865 18.5744C31.462 18.3923 31.5008 18.1971 31.5008 18C31.5008 17.8029 31.462 17.6078 31.3865 17.4257C31.3111 17.2436 31.2006 17.0781 31.0612 16.9388L26.1206 12L32.1206 6.00004L42 15.8794L15.8775 42Z" fill="black"/>
</g>
</svg>
